<svg width="608" height="608" viewBox="0 0 608 608" fill="none" xmlns="http://www.w3.org/2000/svg">
<path d="M163.817 331.307C163.817 331.307 154.677 244.315 216.894 232.6C279.112 220.886 290.677 230.712 334.013 200.967C377.348 171.223 514.266 259.02 486.548 382.514C483.279 397.16 479.13 411.595 474.125 425.742" stroke="#EEC474" stroke-width="2"/>
<path fill-rule="evenodd" clip-rule="evenodd" d="M409.518 273.719H432.148V569.25H409.518V273.719Z" stroke="#EEC474" stroke-width="2"/>
<path d="M251.262 427.559L251.258 428.559H251.262V427.559ZM249.826 426.105L250.826 426.114V426.105H249.826ZM274.714 413.039V414.039L274.722 414.039L274.714 413.039ZM276.168 414.475H277.168L277.168 414.47L276.168 414.475ZM276.168 426.105H275.168L275.168 426.109L276.168 426.105ZM274.714 427.559L274.718 426.559H274.714V427.559ZM292.488 446.435L293.488 446.444V446.435H292.488ZM291.034 447.877L291.034 446.877H291.034V447.877ZM267.582 447.877L267.582 446.877L267.582 446.877L267.582 447.877ZM266.128 446.435H265.128L265.128 446.444L266.128 446.435ZM266.128 434.793L265.128 434.78V434.793H266.128ZM267.582 433.357L267.582 434.357H267.582V433.357ZM291.034 433.357L291.034 434.357L291.034 434.357L291.034 433.357ZM292.488 434.793H293.488L293.488 434.78L292.488 434.793ZM280.762 414.475L279.762 414.47V414.475H280.762ZM282.216 413.039L282.208 414.039H282.216V413.039ZM305.668 413.039L305.668 414.039L305.668 414.039L305.668 413.039ZM307.122 414.475H308.122L308.122 414.462L307.122 414.475ZM307.122 426.105L308.122 426.109V426.105H307.122ZM305.668 427.559L305.668 428.559L305.672 428.559L305.668 427.559ZM282.21 427.559L282.21 426.559L282.21 426.559L282.21 427.559ZM323.317 446.435L322.317 446.436L322.317 446.44L323.317 446.435ZM321.881 447.877L321.881 446.877H321.881V447.877ZM298.405 447.877L298.405 446.877L298.405 446.877L298.405 447.877ZM296.969 446.435L297.969 446.44V446.435H296.969ZM296.969 434.793H295.969H296.969ZM323.311 434.793H322.311L322.311 434.793L323.311 434.793ZM338.046 426.105L337.046 426.106L337.046 426.109L338.046 426.105ZM336.592 427.559L336.596 426.559H336.592V427.559ZM313.14 427.559L313.136 428.559H313.14V427.559ZM311.698 426.105L312.698 426.109V426.105H311.698ZM311.698 414.475L312.698 414.475L312.698 414.475L311.698 414.475ZM313.14 413.039L313.136 414.039H313.14V413.039ZM336.586 413.039V414.039L336.594 414.039L336.586 413.039ZM338.04 414.475L339.04 414.474L339.04 414.47L338.04 414.475ZM368.976 426.105L367.976 426.106L367.976 426.114L368.976 426.105ZM367.54 427.559V428.559L367.544 428.559L367.54 427.559ZM344.082 427.559V426.559L344.078 426.559L344.082 427.559ZM342.628 426.105L343.628 426.109V426.105H342.628ZM342.628 414.475L341.628 414.47V414.475H342.628ZM344.082 413.039L344.074 414.039H344.082V413.039ZM368.97 414.475L367.97 414.475L367.97 414.475L368.97 414.475ZM390.689 382.436L389.689 382.437L389.689 382.439L390.689 382.436ZM376.984 396.176L376.984 395.176H376.984V396.176ZM262.488 396.176L262.487 397.176H262.488V396.176ZM248.748 382.436L247.748 382.436L247.748 382.437L248.748 382.436ZM248.748 333.988H249.748H248.748ZM376.96 320.248L376.96 321.248L376.96 321.248L376.96 320.248ZM390.665 333.988L389.665 333.986L389.665 333.989L390.665 333.988ZM388.68 304.202L389.392 304.905L391.073 303.202H388.68V304.202ZM383.854 306.21L383.857 305.21H383.854V306.21ZM256.66 306.21L256.659 307.21H256.66V306.21ZM249.826 299.376L248.826 299.373L248.826 299.377L249.826 299.376ZM256.66 292.542V291.542L256.657 291.542L256.66 292.542ZM383.842 292.542V293.542L383.843 293.542L383.842 292.542ZM390.676 299.376L389.676 299.375L389.676 299.38L390.676 299.376ZM388.674 304.202L387.971 303.492L386.242 305.202H388.674V304.202ZM229.687 273.719V272.719H228.687V273.719H229.687ZM409.517 273.719H410.517V272.719H409.517V273.719ZM409.517 569.256V570.256H410.517V569.256H409.517ZM379.219 569.256H378.219V570.256H379.219V569.256ZM379.219 478.492H380.219L380.219 478.489L379.219 478.492ZM365.478 464.787V465.787L365.479 465.787L365.478 464.787ZM275.03 464.787L275.03 465.787H275.03V464.787ZM261.29 478.492L260.29 478.489V478.492H261.29ZM261.29 569.256V570.256H262.29V569.256H261.29ZM251.266 426.559C251.148 426.559 251.036 426.511 250.953 426.428L249.53 427.833C249.987 428.295 250.608 428.557 251.258 428.559L251.266 426.559ZM250.953 426.428C250.871 426.344 250.825 426.231 250.826 426.114L248.826 426.097C248.821 426.746 249.074 427.371 249.53 427.833L250.953 426.428ZM250.826 426.105V414.475H248.826V426.105H250.826ZM250.826 414.475C250.826 414.234 251.021 414.039 251.262 414.039V412.039C249.917 412.039 248.826 413.129 248.826 414.475H250.826ZM251.262 414.039H274.714V412.039H251.262V414.039ZM274.722 414.039C274.84 414.038 274.953 414.083 275.037 414.166L276.442 412.743C275.98 412.287 275.355 412.033 274.706 412.039L274.722 414.039ZM275.037 414.166C275.12 414.249 275.167 414.361 275.168 414.479L277.168 414.47C277.165 413.821 276.904 413.199 276.442 412.743L275.037 414.166ZM275.168 414.475V426.105H277.168V414.475H275.168ZM275.168 426.109C275.168 426.229 275.121 426.344 275.037 426.428L276.451 427.842C276.913 427.381 277.171 426.754 277.168 426.101L275.168 426.109ZM275.037 426.428C274.952 426.512 274.838 426.56 274.718 426.559L274.71 428.559C275.363 428.562 275.989 428.304 276.451 427.842L275.037 426.428ZM274.714 426.559H251.262V428.559H274.714V426.559ZM291.488 446.427C291.486 446.676 291.283 446.877 291.034 446.877L291.034 448.877C292.381 448.877 293.477 447.791 293.488 446.444L291.488 446.427ZM291.034 446.877H267.582V448.877H291.034V446.877ZM267.582 446.877C267.333 446.877 267.13 446.676 267.128 446.427L265.128 446.444C265.139 447.791 266.234 448.877 267.582 448.877L267.582 446.877ZM267.128 446.435V434.793H265.128V446.435H267.128ZM267.128 434.805C267.131 434.557 267.333 434.357 267.582 434.357L267.582 432.357C266.238 432.357 265.145 433.437 265.128 434.78L267.128 434.805ZM267.582 434.357H291.034V432.357H267.582V434.357ZM291.034 434.357C291.283 434.357 291.485 434.557 291.488 434.805L293.488 434.78C293.471 433.437 292.378 432.357 291.034 432.357L291.034 434.357ZM291.488 434.793V446.435H293.488V434.793H291.488ZM281.762 426.105V414.475H279.762V426.105H281.762ZM281.762 414.479C281.762 414.361 281.81 414.249 281.893 414.166L280.488 412.743C280.026 413.199 279.765 413.821 279.762 414.47L281.762 414.479ZM281.893 414.166C281.977 414.083 282.09 414.038 282.208 414.039L282.224 412.039C281.575 412.033 280.95 412.287 280.488 412.743L281.893 414.166ZM282.216 414.039H305.668V412.039H282.216V414.039ZM305.668 414.039C305.917 414.039 306.119 414.238 306.122 414.487L308.122 414.462C308.105 413.119 307.012 412.038 305.668 412.039L305.668 414.039ZM306.122 414.475V426.105H308.122V414.475H306.122ZM306.122 426.101C306.121 426.354 305.917 426.558 305.664 426.559L305.672 428.559C307.023 428.554 308.116 427.46 308.122 426.109L306.122 426.101ZM305.668 426.559H282.21V428.559H305.668V426.559ZM282.21 426.559C282.091 426.559 281.977 426.512 281.893 426.427L280.475 427.839C280.935 428.3 281.559 428.559 282.21 428.559L282.21 426.559ZM281.893 426.427C281.808 426.343 281.762 426.229 281.762 426.109L279.762 426.101C279.759 426.752 280.016 427.377 280.475 427.839L281.893 426.427ZM322.317 446.44C322.317 446.555 322.272 446.667 322.19 446.749L323.607 448.16C324.064 447.701 324.319 447.079 324.317 446.431L322.317 446.44ZM322.19 446.749C322.108 446.831 321.997 446.877 321.881 446.877L321.881 448.877C322.529 448.877 323.15 448.619 323.607 448.16L322.19 446.749ZM321.881 446.877H298.405V448.877H321.881V446.877ZM298.405 446.877C298.289 446.877 298.178 446.831 298.096 446.749L296.679 448.16C297.136 448.619 297.757 448.877 298.405 448.877L298.405 446.877ZM298.096 446.749C298.014 446.667 297.968 446.555 297.969 446.44L295.969 446.431C295.966 447.079 296.222 447.701 296.679 448.16L298.096 446.749ZM297.969 446.435V434.793H295.969V446.435H297.969ZM297.969 434.793C297.969 434.552 298.164 434.357 298.405 434.357V432.357C297.059 432.357 295.969 433.447 295.969 434.793H297.969ZM298.405 434.357H321.875V432.357H298.405V434.357ZM321.875 434.357C322.116 434.357 322.311 434.552 322.311 434.793H324.311C324.311 433.447 323.22 432.357 321.875 432.357V434.357ZM322.311 434.793L322.317 446.436L324.317 446.435L324.311 434.792L322.311 434.793ZM337.046 426.109C337.046 426.229 336.999 426.344 336.915 426.428L338.329 427.842C338.791 427.381 339.049 426.754 339.046 426.101L337.046 426.109ZM336.915 426.428C336.83 426.512 336.716 426.56 336.596 426.559L336.588 428.559C337.241 428.562 337.867 428.304 338.329 427.842L336.915 426.428ZM336.592 426.559H313.14V428.559H336.592V426.559ZM313.144 426.559C313.025 426.559 312.911 426.511 312.828 426.427L311.408 427.835C311.865 428.296 312.487 428.557 313.136 428.559L313.144 426.559ZM312.828 426.427C312.744 426.342 312.697 426.228 312.698 426.109L310.698 426.101C310.695 426.75 310.951 427.374 311.408 427.835L312.828 426.427ZM312.698 426.105V414.475H310.698V426.105H312.698ZM312.698 414.475C312.698 414.359 312.744 414.247 312.826 414.166L311.415 412.748C310.956 413.206 310.698 413.827 310.698 414.475L312.698 414.475ZM312.826 414.166C312.908 414.084 313.02 414.038 313.136 414.039L313.144 412.039C312.496 412.036 311.874 412.291 311.415 412.748L312.826 414.166ZM313.14 414.039H336.586V412.039H313.14V414.039ZM336.594 414.039C336.712 414.038 336.825 414.083 336.909 414.166L338.314 412.743C337.852 412.287 337.227 412.033 336.578 412.039L336.594 414.039ZM336.909 414.166C336.992 414.249 337.04 414.361 337.04 414.479L339.04 414.47C339.037 413.821 338.776 413.199 338.314 412.743L336.909 414.166ZM337.04 414.475L337.046 426.106L339.046 426.105L339.04 414.474L337.04 414.475ZM367.976 426.114C367.977 426.231 367.931 426.344 367.849 426.428L369.272 427.833C369.728 427.371 369.981 426.746 369.976 426.097L367.976 426.114ZM367.849 426.428C367.766 426.511 367.654 426.559 367.536 426.559L367.544 428.559C368.194 428.557 368.815 428.295 369.272 427.833L367.849 426.428ZM367.54 426.559H344.082V428.559H367.54V426.559ZM344.078 426.559C343.958 426.56 343.844 426.512 343.759 426.428L342.345 427.842C342.807 428.304 343.433 428.562 344.086 428.559L344.078 426.559ZM343.759 426.428C343.675 426.344 343.628 426.229 343.628 426.109L341.628 426.101C341.625 426.754 341.883 427.381 342.345 427.842L343.759 426.428ZM343.628 426.105V414.475H341.628V426.105H343.628ZM343.628 414.479C343.629 414.361 343.676 414.249 343.759 414.166L342.354 412.743C341.892 413.199 341.631 413.821 341.628 414.47L343.628 414.479ZM343.759 414.166C343.843 414.083 343.956 414.038 344.074 414.039L344.09 412.039C343.441 412.033 342.816 412.287 342.354 412.743L343.759 414.166ZM344.082 414.039H367.534V412.039H344.082V414.039ZM367.534 414.039C367.775 414.039 367.97 414.234 367.97 414.475H369.97C369.97 413.129 368.88 412.039 367.534 412.039V414.039ZM367.97 414.475L367.976 426.106L369.976 426.105L369.97 414.474L367.97 414.475ZM389.689 382.439C389.697 385.814 388.363 389.054 385.979 391.444L387.395 392.856C390.154 390.09 391.699 386.34 391.689 382.434L389.689 382.439ZM385.979 391.444C383.596 393.833 380.359 395.176 376.984 395.176L376.984 397.176C380.891 397.176 384.637 395.622 387.395 392.856L385.979 391.444ZM376.984 395.176H262.488V397.176H376.984V395.176ZM262.488 395.176C255.453 395.173 249.751 389.471 249.748 382.436L247.748 382.437C247.751 390.576 254.348 397.173 262.487 397.176L262.488 395.176ZM249.748 382.436V333.988H247.748V382.436H249.748ZM249.748 333.988C249.748 326.952 255.451 321.248 262.488 321.248V319.248C254.347 319.248 247.748 325.848 247.748 333.988H249.748ZM262.488 321.248H376.96V319.248H262.488V321.248ZM376.96 321.248C380.336 321.248 383.572 322.591 385.955 324.981L387.371 323.569C384.613 320.803 380.867 319.248 376.96 319.248L376.96 321.248ZM385.955 324.981C388.339 327.371 389.673 330.611 389.665 333.986L391.665 333.991C391.675 330.085 390.13 326.335 387.371 323.569L385.955 324.981ZM389.665 333.989L389.689 382.437L391.689 382.436L391.665 333.988L389.665 333.989ZM387.969 303.5C386.884 304.599 385.402 305.215 383.857 305.21L383.851 307.21C385.933 307.217 387.93 306.386 389.392 304.905L387.969 303.5ZM383.854 305.21H256.66V307.21H383.854V305.21ZM256.661 305.21C253.44 305.208 250.829 302.597 250.826 299.375L248.826 299.377C248.83 303.702 252.335 307.207 256.659 307.21L256.661 305.21ZM250.826 299.38C250.837 296.16 253.444 293.553 256.664 293.542L256.657 291.542C252.338 291.557 248.841 295.054 248.826 299.373L250.826 299.38ZM256.66 293.542H383.842V291.542H256.66V293.542ZM383.843 293.542C385.391 293.54 386.875 294.155 387.969 295.249L389.384 293.835C387.914 292.365 385.92 291.54 383.841 291.542L383.843 293.542ZM387.969 295.249C389.064 296.343 389.678 297.828 389.676 299.375L391.676 299.377C391.678 297.298 390.853 295.304 389.384 293.835L387.969 295.249ZM389.676 299.38C389.683 300.924 389.068 302.406 387.971 303.492L389.378 304.913C390.857 303.45 391.685 301.453 391.676 299.372L389.676 299.38ZM388.674 305.202H388.68V303.202H388.674V305.202ZM230.687 535.043V519.64H228.687V535.043H230.687ZM230.687 501.169V273.719H228.687V501.169H230.687ZM229.687 274.719H409.517V272.719H229.687V274.719ZM408.517 273.719V569.256H410.517V273.719H408.517ZM409.517 568.256H379.219V570.256H409.517V568.256ZM380.219 569.256V478.492H378.219V569.256H380.219ZM380.219 478.489C380.201 470.362 373.605 463.784 365.478 463.787L365.479 465.787C372.503 465.784 378.203 471.47 378.219 478.494L380.219 478.489ZM365.478 463.787H275.03V465.787H365.478V463.787ZM275.03 463.787C266.904 463.787 260.311 470.363 260.29 478.489L262.29 478.494C262.308 471.471 268.007 465.787 275.03 465.787L275.03 463.787ZM260.29 478.492V569.256H262.29V478.492H260.29ZM261.29 568.256H231.802V570.256H261.29V568.256Z" fill="#EEC474"/>
<path fill-rule="evenodd" clip-rule="evenodd" d="M274.714 427.559H251.262C250.879 427.558 250.512 427.403 250.242 427.131C249.973 426.858 249.823 426.489 249.826 426.105V414.475C249.826 413.682 250.469 413.039 251.262 413.039H274.714C275.098 413.035 275.467 413.185 275.74 413.455C276.012 413.724 276.167 414.091 276.168 414.475V426.105C276.17 426.491 276.017 426.862 275.744 427.135C275.471 427.408 275.101 427.561 274.714 427.559V427.559Z" stroke="#EEC474" stroke-width="2"/>
<path fill-rule="evenodd" clip-rule="evenodd" d="M267.582 433.357H291.034C291.83 433.357 292.478 433.997 292.488 434.793V446.435C292.481 447.234 291.832 447.877 291.034 447.877H267.582C266.783 447.877 266.134 447.234 266.128 446.435V434.793C266.138 433.997 266.786 433.357 267.582 433.357V433.357Z" stroke="#EEC474" stroke-width="2"/>
<path fill-rule="evenodd" clip-rule="evenodd" d="M307.117 414.475V426.105C307.114 426.907 306.465 427.556 305.663 427.559H282.211C281.825 427.561 281.454 427.408 281.181 427.135C280.908 426.862 280.755 426.491 280.757 426.105V414.475C280.758 414.091 280.913 413.724 281.185 413.455C281.458 413.185 281.827 413.035 282.211 413.039H305.663C306.459 413.039 307.107 413.679 307.117 414.475V414.475Z" stroke="#EEC474" stroke-width="2"/>
<rect x="296.969" y="433.357" width="26.3421" height="14.5206" rx="2.41" stroke="#EEC474" stroke-width="2"/>
<path fill-rule="evenodd" clip-rule="evenodd" d="M313.14 427.559C312.756 427.558 312.389 427.404 312.118 427.131C311.848 426.858 311.697 426.489 311.698 426.105V414.475C311.698 414.093 311.85 413.727 312.121 413.457C312.392 413.188 312.758 413.037 313.14 413.039H336.586C336.97 413.035 337.339 413.185 337.612 413.455C337.884 413.724 338.039 414.091 338.04 414.475V426.105C338.042 426.491 337.889 426.862 337.616 427.135C337.343 427.408 336.973 427.561 336.586 427.559H313.14Z" stroke="#EEC474" stroke-width="2"/>
<path fill-rule="evenodd" clip-rule="evenodd" d="M344.083 427.559C343.697 427.561 343.326 427.408 343.053 427.135C342.78 426.862 342.627 426.491 342.629 426.105V414.475C342.63 414.091 342.785 413.724 343.058 413.455C343.33 413.185 343.699 413.035 344.083 413.039H367.535C368.328 413.039 368.971 413.682 368.971 414.475V426.105C368.974 426.489 368.825 426.858 368.555 427.131C368.286 427.403 367.919 427.558 367.535 427.559H344.083Z" stroke="#EEC474" stroke-width="2"/>
<path fill-rule="evenodd" clip-rule="evenodd" d="M379.219 478.492V569.256H261.29V478.492C261.31 470.917 267.456 464.787 275.03 464.787H365.479C373.054 464.784 379.202 470.916 379.219 478.492V478.492Z" stroke="#EEC474" stroke-width="2"/>
<path fill-rule="evenodd" clip-rule="evenodd" d="M249.826 299.376C249.839 295.607 252.891 292.555 256.66 292.542H383.842C385.656 292.54 387.395 293.26 388.677 294.542C389.959 295.824 390.678 297.563 390.677 299.376C390.664 303.145 387.612 306.197 383.842 306.211H256.66C252.887 306.207 249.829 303.149 249.826 299.376V299.376Z" stroke="#EEC474" stroke-width="2"/>
<path fill-rule="evenodd" clip-rule="evenodd" d="M312.866 340.763V375.721C312.869 378.287 311.853 380.749 310.04 382.565C308.227 384.381 305.767 385.402 303.202 385.404H269.304C263.962 385.397 259.636 381.063 259.64 375.721V340.763C259.638 338.199 260.655 335.738 262.468 333.924C264.28 332.109 266.739 331.088 269.304 331.087H303.202C305.767 331.087 308.227 332.107 310.04 333.922C311.852 335.737 312.869 338.198 312.866 340.763Z" stroke="#EEC474" stroke-width="2"/>
<path fill-rule="evenodd" clip-rule="evenodd" d="M379.428 340.721V375.769C379.431 378.335 378.414 380.796 376.602 382.612C374.789 384.428 372.329 385.45 369.763 385.451H335.8C333.234 385.45 330.773 384.429 328.96 382.613C327.146 380.797 326.128 378.335 326.13 375.769V340.721C326.128 338.155 327.146 335.693 328.96 333.877C330.773 332.062 333.234 331.041 335.8 331.039H369.763C372.329 331.041 374.789 332.062 376.602 333.878C378.414 335.694 379.431 338.156 379.428 340.721V340.721Z" stroke="#EEC474" stroke-width="2"/>
<path d="M376.961 320.249V321.249H377.961V320.249H376.961ZM262.488 320.249V321.249V320.249ZM248.748 382.436H247.748L247.748 382.437L248.748 382.436ZM262.488 396.176L262.488 397.176H262.488V396.176ZM376.961 396.176L376.961 395.176H376.961V396.176ZM390.665 382.436H389.665L389.665 382.439L390.665 382.436ZM390.665 333.989L389.665 333.986V333.989H390.665ZM376.961 320.249L376.961 319.249L375.961 319.249V320.249H376.961ZM312.866 375.721L311.866 375.721L311.866 375.722L312.866 375.721ZM303.202 385.404L303.202 386.404L303.202 386.404L303.202 385.404ZM269.304 385.404L269.303 386.404H269.304V385.404ZM259.64 375.721L260.64 375.722V375.721H259.64ZM259.64 340.763L260.64 340.763L260.64 340.763L259.64 340.763ZM269.304 331.087L269.304 330.087L269.304 330.087L269.304 331.087ZM303.202 331.087L303.202 332.087L303.202 332.087L303.202 331.087ZM312.866 340.763L311.866 340.762V340.763H312.866ZM379.428 375.769L378.428 375.769L378.428 375.77L379.428 375.769ZM369.763 385.451V386.451L369.764 386.451L369.763 385.451ZM335.8 385.451L335.8 386.451H335.8V385.451ZM326.13 375.769L327.13 375.77V375.769H326.13ZM326.13 340.722L327.13 340.722L327.13 340.721L326.13 340.722ZM335.8 331.039L335.8 330.039L335.8 330.039L335.8 331.039ZM369.763 331.039L369.764 330.039H369.763V331.039ZM379.428 340.722L378.428 340.72V340.722H379.428ZM376.961 319.249H262.488V321.249H376.961V319.249ZM262.488 319.249C254.347 319.249 247.748 325.848 247.748 333.989H249.748C249.748 326.952 255.452 321.249 262.488 321.249V319.249ZM247.748 333.989V382.436H249.748V333.989H247.748ZM247.748 382.437C247.752 390.576 254.349 397.173 262.488 397.176L262.489 395.176C255.453 395.173 249.751 389.471 249.748 382.436L247.748 382.437ZM262.488 397.176H376.961V395.176H262.488V397.176ZM376.961 397.176C380.867 397.176 384.613 395.622 387.372 392.856L385.956 391.444C383.572 393.833 380.336 395.176 376.961 395.176L376.961 397.176ZM387.372 392.856C390.131 390.09 391.675 386.34 391.665 382.434L389.665 382.439C389.674 385.814 388.339 389.054 385.956 391.444L387.372 392.856ZM391.665 382.436V333.989H389.665V382.436H391.665ZM391.665 333.991C391.675 330.085 390.131 326.335 387.372 323.569L385.956 324.981C388.339 327.371 389.674 330.611 389.665 333.986L391.665 333.991ZM387.372 323.569C384.613 320.803 380.867 319.249 376.961 319.249L376.961 321.249C380.336 321.249 383.572 322.592 385.956 324.981L387.372 323.569ZM375.961 320.249V320.249H377.961V320.249H375.961ZM311.866 375.722C311.869 378.023 310.958 380.23 309.332 381.858L310.748 383.271C312.748 381.268 313.87 378.551 313.866 375.72L311.866 375.722ZM309.332 381.858C307.707 383.487 305.502 384.402 303.201 384.404L303.202 386.404C306.034 386.402 308.748 385.275 310.748 383.271L309.332 381.858ZM303.202 384.404H269.304V386.404H303.202V384.404ZM269.306 384.404C264.516 384.398 260.637 380.512 260.64 375.722L258.64 375.721C258.636 381.615 263.409 386.396 269.303 386.404L269.306 384.404ZM260.64 375.721V340.763H258.64V375.721H260.64ZM260.64 340.763C260.639 338.463 261.551 336.257 263.176 334.63L261.761 333.217C259.761 335.219 258.638 337.934 258.64 340.764L260.64 340.763ZM263.176 334.63C264.801 333.003 267.006 332.088 269.305 332.087L269.304 330.087C266.474 330.089 263.76 331.214 261.761 333.217L263.176 334.63ZM269.304 332.087H303.202V330.087H269.304V332.087ZM303.202 332.087C305.502 332.087 307.707 333.001 309.332 334.628L310.747 333.215C308.747 331.212 306.032 330.087 303.202 330.087L303.202 332.087ZM309.332 334.628C310.958 336.256 311.869 338.462 311.866 340.762L313.866 340.765C313.87 337.934 312.748 335.218 310.747 333.215L309.332 334.628ZM311.866 340.763V375.721H313.866V340.763H311.866ZM378.428 375.77C378.431 378.071 377.519 380.278 375.894 381.906L377.309 383.319C379.309 381.315 380.431 378.599 380.428 375.768L378.428 375.77ZM375.894 381.906C374.269 383.534 372.063 384.45 369.763 384.451L369.764 386.451C372.595 386.45 375.309 385.323 377.309 383.319L375.894 381.906ZM369.763 384.451H335.8V386.451H369.763V384.451ZM335.801 384.451C333.5 384.45 331.293 383.534 329.667 381.906L328.252 383.32C330.253 385.323 332.968 386.45 335.8 386.451L335.801 384.451ZM329.667 381.906C328.041 380.278 327.128 378.071 327.13 375.77L325.13 375.768C325.128 378.6 326.251 381.316 328.252 383.32L329.667 381.906ZM327.13 375.769V340.722H325.13V375.769H327.13ZM327.13 340.721C327.128 338.42 328.041 336.212 329.667 334.584L328.252 333.171C326.251 335.174 325.128 337.891 325.13 340.722L327.13 340.721ZM329.667 334.584C331.293 332.956 333.5 332.041 335.801 332.039L335.8 330.039C332.968 330.041 330.253 331.167 328.252 333.171L329.667 334.584ZM335.8 332.039H369.763V330.039H335.8V332.039ZM369.763 332.039C372.063 332.041 374.269 332.956 375.894 334.584L377.309 333.171C375.309 331.168 372.595 330.041 369.764 330.039L369.763 332.039ZM375.894 334.584C377.519 336.213 378.431 338.42 378.428 340.72L380.428 340.723C380.431 337.892 379.309 335.175 377.309 333.171L375.894 334.584ZM378.428 340.722V375.769H380.428V340.722H378.428Z" fill="#EEC474"/>
<path fill-rule="evenodd" clip-rule="evenodd" d="M312.866 340.763V375.721C312.869 378.287 311.853 380.749 310.04 382.565C308.227 384.381 305.767 385.402 303.202 385.404H269.304C263.962 385.397 259.636 381.063 259.64 375.721V340.763C259.638 338.199 260.655 335.738 262.468 333.924C264.28 332.109 266.739 331.088 269.304 331.087H303.202C305.767 331.087 308.227 332.107 310.04 333.922C311.852 335.737 312.869 338.198 312.866 340.763Z" stroke="#EEC474" stroke-width="2"/>
<path fill-rule="evenodd" clip-rule="evenodd" d="M379.428 340.721V375.769C379.431 378.335 378.414 380.796 376.602 382.612C374.789 384.428 372.329 385.45 369.763 385.451H335.8C333.234 385.45 330.773 384.429 328.96 382.613C327.146 380.797 326.128 378.335 326.13 375.769V340.721C326.128 338.155 327.146 335.693 328.96 333.877C330.773 332.062 333.234 331.041 335.8 331.039H369.763C372.329 331.041 374.789 332.062 376.602 333.878C378.414 335.694 379.431 338.156 379.428 340.721V340.721Z" stroke="#EEC474" stroke-width="2"/>
<path fill-rule="evenodd" clip-rule="evenodd" d="M379.428 340.721V375.769C379.431 378.335 378.414 380.796 376.602 382.612C374.789 384.428 372.329 385.45 369.763 385.451H335.8C333.234 385.45 330.773 384.429 328.96 382.613C327.146 380.797 326.128 378.335 326.13 375.769V340.721C326.128 338.155 327.146 335.693 328.96 333.877C330.773 332.062 333.234 331.041 335.8 331.039H369.763C372.329 331.041 374.789 332.062 376.602 333.878C378.414 335.694 379.431 338.156 379.428 340.721V340.721Z" stroke="#EEC474" stroke-width="2"/>
<path fill-rule="evenodd" clip-rule="evenodd" d="M312.866 340.763V375.721C312.869 378.287 311.853 380.749 310.04 382.565C308.227 384.381 305.767 385.402 303.202 385.404H269.304C263.962 385.397 259.636 381.063 259.64 375.721V340.763C259.638 338.199 260.655 335.738 262.468 333.924C264.28 332.109 266.739 331.088 269.304 331.087H303.202C305.767 331.087 308.227 332.107 310.04 333.922C311.852 335.737 312.869 338.198 312.866 340.763Z" stroke="#EEC474" stroke-width="2"/>
<path fill-rule="evenodd" clip-rule="evenodd" d="M379.219 478.492V569.256H261.29V478.492C261.31 470.917 267.456 464.787 275.03 464.787H365.479C373.054 464.784 379.202 470.916 379.219 478.492V478.492Z" stroke="#EEC474" stroke-width="2"/>
<path fill-rule="evenodd" clip-rule="evenodd" d="M276.168 414.475V426.105C276.17 426.491 276.017 426.862 275.744 427.135C275.471 427.408 275.101 427.561 274.714 427.559H251.262C250.879 427.558 250.512 427.403 250.242 427.131C249.973 426.858 249.823 426.489 249.826 426.105V414.475C249.826 413.682 250.469 413.039 251.262 413.039H274.714C275.098 413.035 275.467 413.185 275.74 413.455C276.012 413.724 276.167 414.091 276.168 414.475V414.475Z" stroke="#EEC474" stroke-width="2"/>
<path fill-rule="evenodd" clip-rule="evenodd" d="M307.117 414.475V426.105C307.114 426.907 306.465 427.556 305.663 427.559H282.211C281.825 427.561 281.454 427.408 281.181 427.135C280.908 426.862 280.755 426.491 280.757 426.105V414.475C280.758 414.091 280.913 413.724 281.185 413.455C281.458 413.185 281.827 413.035 282.211 413.039H305.663C306.459 413.039 307.107 413.679 307.117 414.475V414.475Z" stroke="#EEC474" stroke-width="2"/>
<path fill-rule="evenodd" clip-rule="evenodd" d="M338.04 414.475V426.105C338.042 426.491 337.889 426.862 337.616 427.135C337.343 427.408 336.973 427.561 336.586 427.559H313.14C312.756 427.558 312.389 427.404 312.118 427.131C311.848 426.858 311.697 426.489 311.698 426.105V414.475C311.698 414.093 311.85 413.727 312.121 413.457C312.392 413.188 312.758 413.037 313.14 413.039H336.586C336.97 413.035 337.339 413.185 337.612 413.455C337.884 413.724 338.039 414.091 338.04 414.475V414.475Z" stroke="#EEC474" stroke-width="2"/>
<path fill-rule="evenodd" clip-rule="evenodd" d="M368.947 414.475V426.105C368.95 426.489 368.801 426.858 368.531 427.131C368.262 427.403 367.895 427.558 367.511 427.559H344.083C343.697 427.561 343.326 427.408 343.053 427.135C342.78 426.862 342.627 426.491 342.629 426.105V414.475C342.63 414.091 342.785 413.724 343.058 413.455C343.33 413.185 343.699 413.035 344.083 413.039H367.535C368.319 413.052 368.947 413.691 368.947 414.475V414.475Z" stroke="#EEC474" stroke-width="2"/>
<path fill-rule="evenodd" clip-rule="evenodd" d="M292.488 434.793V446.435C292.481 447.234 291.832 447.877 291.034 447.877H267.582C266.783 447.877 266.134 447.234 266.128 446.435V434.793C266.138 433.997 266.786 433.357 267.582 433.357H291.034C291.83 433.357 292.478 433.997 292.488 434.793V434.793Z" stroke="#EEC474" stroke-width="2"/>
<rect x="296.969" y="433.357" width="26.3421" height="14.5206" rx="2.41" stroke="#EEC474" stroke-width="2"/>
<path fill-rule="evenodd" clip-rule="evenodd" d="M390.683 299.376C390.67 303.148 387.614 306.201 383.843 306.211H256.66C252.887 306.207 249.829 303.149 249.826 299.376C249.839 295.607 252.891 292.555 256.66 292.542H383.843C385.657 292.539 387.397 293.258 388.681 294.54C389.964 295.822 390.684 297.562 390.683 299.376V299.376Z" stroke="#EEC474" stroke-width="2"/>
<rect x="271.182" y="475.286" width="97.7953" height="7.883" rx="3.9415" stroke="#EEC474" stroke-width="2"/>
<rect x="271.182" y="491.552" width="97.7953" height="7.88297" rx="3.94148" stroke="#EEC474" stroke-width="2"/>
<rect x="271.182" y="507.819" width="97.7953" height="7.88293" rx="3.94147" stroke="#EEC474" stroke-width="2"/>
<rect x="271.182" y="524.091" width="97.7953" height="7.88293" rx="3.94147" stroke="#EEC474" stroke-width="2"/>
<rect x="271.182" y="540.358" width="97.7953" height="7.88306" rx="3.94153" stroke="#EEC474" stroke-width="2"/>
<path fill-rule="evenodd" clip-rule="evenodd" d="M213.057 246.799H443.099C450.608 246.799 456.696 252.887 456.696 260.396V273.505H199.46V260.396C199.46 252.887 205.548 246.799 213.057 246.799V246.799Z" stroke="#EEC474" stroke-width="2"/>
<path fill-rule="evenodd" clip-rule="evenodd" d="M432.142 459.103H456.875V481.608H480.345V507.455H503.201V527.696H525.694V545.506H572.128V569.244H432.142V459.103Z" stroke="#EEC474" stroke-width="2"/>
<path d="M436.807 409.273H457.035H457.649L480.38 432.01L503.296 454.92L525.7 477.324L536.294 487.918" stroke="#EEC474" stroke-width="2"/>
<path d="M457.035 481.608V409.273" stroke="#EEC474" stroke-width="2"/>
<path d="M525.7 527.702V477.324" stroke="#EEC474" stroke-width="2"/>
<path d="M480.381 491.737V432.004" stroke="#EEC474" stroke-width="2"/>
<path d="M503.201 454.92V509.434" stroke="#EEC474" stroke-width="2"/>
<path d="M229.598 519.771V535.043" stroke="#EEC474" stroke-width="2"/>
<path d="M206.968 535.043V525.652C207.927 528.405 210.507 530.806 213.832 531.992C212.753 524.127 210.644 511.734 206.968 500.645" stroke="#EEC474" stroke-width="2"/>
<path d="M229.598 489.187V358.221H206.968V483.3" stroke="#EEC474" stroke-width="2"/>
<path d="M206.968 525.664V535.043" stroke="#EEC474" stroke-width="2"/>
<path d="M206.968 483.3V358.221H66.0991V569.256H205.138H206.968" stroke="#EEC474" stroke-width="2"/>
<path fill-rule="evenodd" clip-rule="evenodd" d="M131.556 485.058C119.069 485.058 108.946 474.935 108.946 462.448V398.266C108.946 385.779 119.069 375.656 131.556 375.656H144.859C157.346 375.656 167.469 385.779 167.469 398.266V462.448C167.469 474.935 157.346 485.058 144.859 485.058H131.556Z" stroke="#EEC474" stroke-width="2"/>
<path fill-rule="evenodd" clip-rule="evenodd" d="M133.2 425.432C124.402 425.432 117.27 418.3 117.27 409.502V400.261C117.27 391.463 124.402 384.331 133.2 384.331H143.275C152.073 384.331 159.205 391.463 159.205 400.261V409.502C159.205 418.3 152.073 425.432 143.275 425.432H133.2Z" stroke="#EEC474" stroke-width="2"/>
<path fill-rule="evenodd" clip-rule="evenodd" d="M133.236 476.662C124.438 476.662 117.306 469.53 117.306 460.732V451.557C117.306 442.759 124.438 435.627 133.236 435.627H143.239C152.037 435.627 159.169 442.759 159.169 451.557V460.732C159.169 469.53 152.037 476.662 143.239 476.662H133.236Z" stroke="#EEC474" stroke-width="2"/>
<rect x="86.2324" y="497.541" width="26.348" height="14.5266" rx="2.39" stroke="#EEC474" stroke-width="2"/>
<rect x="117.168" y="497.541" width="26.3481" height="14.5266" rx="2.39" stroke="#EEC474" stroke-width="2"/>
<rect x="148.104" y="497.541" width="26.3481" height="14.5266" rx="2.39" stroke="#EEC474" stroke-width="2"/>
<rect x="102.546" y="517.865" width="26.348" height="14.5266" rx="2.39" stroke="#EEC474" stroke-width="2"/>
<rect x="133.375" y="517.865" width="26.348" height="14.5266" rx="2.39" stroke="#EEC474" stroke-width="2"/>
<path fill-rule="evenodd" clip-rule="evenodd" d="M49.7313 331.307H229.675V357.995H35.8721V345.173C35.8754 337.519 42.0775 331.314 49.7313 331.307Z" stroke="#EEC474" stroke-width="2"/>
<path d="M218.497 506.621C219.731 505.62 221.161 504.697 222.15 503.594C224.927 500.49 223.86 496.522 225.642 493.114C227.81 488.943 234.627 486.053 241.33 486.434C240.695 488.395 240.26 490.415 240.031 492.464C239.834 494.287 240.311 496.313 239.787 498.083C238.935 500.919 234.383 502.641 233.828 505.555C233.34 508.129 236.355 510.536 235.854 513.158C235.324 515.97 231.004 517.525 229.413 520.01C228.114 522.036 228.728 524.347 228.055 526.498C227.238 529.096 224.414 531.39 220.714 532.457L220.345 532.564C218.985 531.398 217.819 530.025 216.889 528.494" stroke="#EEC474" stroke-width="2"/>
<path d="M237.266 489.699C227.273 499.894 222.572 521.386 220.743 532.469C220.594 533.404 220.457 534.256 220.344 535.037" stroke="#EEC474" stroke-width="2"/>
<path fill-rule="evenodd" clip-rule="evenodd" d="M238.159 541.281L233.559 566.986C233.296 568.475 232.003 569.56 230.491 569.56H206.461C204.933 569.559 203.631 568.452 203.386 566.944L199.132 541.281H238.159Z" stroke="#EEC474" stroke-width="2"/>
<path fill-rule="evenodd" clip-rule="evenodd" d="M242.528 538.415C242.394 540.034 241.042 541.281 239.417 541.281H197.941C196.332 541.282 194.987 540.059 194.837 538.457C194.753 537.582 195.042 536.712 195.633 536.061C196.224 535.41 197.062 535.038 197.941 535.037H239.393C240.27 535.031 241.109 535.393 241.705 536.036C242.301 536.678 242.599 537.542 242.528 538.415V538.415Z" stroke="#EEC474" stroke-width="2"/>
<path d="M206.967 525.652C206.897 525.457 206.837 525.258 206.788 525.057C206.127 522.566 206.717 519.867 205.472 517.531C203.94 514.653 199.805 512.854 199.281 509.589C198.816 506.562 201.712 503.761 201.229 500.776C200.705 497.41 196.331 495.413 195.503 492.118C195.009 490.081 195.461 487.727 195.283 485.612C195.061 483.253 194.638 480.916 194.02 478.629C198.965 478.289 203.97 480.19 206.967 483.276C207.866 484.168 208.587 485.221 209.094 486.381C210.804 490.319 209.785 494.919 212.455 498.518C213.909 500.466 216.322 501.92 217.561 503.958C217.976 504.623 218.266 505.358 218.419 506.127C218.425 506.183 218.435 506.239 218.449 506.294C218.479 506.401 218.491 506.502 218.509 506.591C218.955 509.606 217.805 512.872 218.175 515.976C218.509 518.55 219.903 521.13 219.104 523.644C218.545 525.335 217.802 526.96 216.888 528.489C216.147 529.806 215.235 531.02 214.177 532.099C214.058 532.07 213.95 532.022 213.831 531.98C212.753 524.115 210.643 511.722 206.967 500.633" stroke="#EEC474" stroke-width="2"/>
<path d="M214.225 535.031C214.118 534.113 213.981 533.112 213.832 532.004C212.754 524.139 210.644 511.745 206.968 500.657C204.65 493.596 201.695 487.036 197.965 482.448" stroke="#EEC474" stroke-width="2"/>
<path d="M212.455 498.536C212.455 498.536 213.116 488.275 218.652 485.153C224.187 482.031 224.068 499.525 224.068 499.525" stroke="#EEC474" stroke-width="2"/>
<path d="M218.496 506.621C217.871 502.727 218.163 498.74 219.349 494.979" stroke="#EEC474" stroke-width="2"/>
<path d="M301.867 314.659C303.455 316.382 303.544 319.007 302.075 320.832L288.306 344.517L287.823 349.284L283.539 392.333L276.734 460.706C276.693 461.141 276.603 461.576 276.526 462.011C276.484 462.356 276.436 462.702 276.377 463.047C276.287 463.494 276.18 463.917 276.079 464.346C275.978 464.775 275.912 465.055 275.805 465.401C275.698 465.747 275.555 466.223 275.406 466.628L275.042 467.647C274.881 468.052 274.714 468.44 274.548 468.839C274.381 469.238 274.232 469.488 274.071 469.816C273.91 470.144 273.696 470.567 273.475 470.924C273.255 471.282 273.112 471.556 272.921 471.854C272.73 472.152 272.486 472.557 272.242 472.903C271.997 473.248 271.825 473.498 271.616 473.773C271.163 474.368 270.716 474.928 270.222 475.465C269.966 475.763 269.697 476.061 269.429 476.347C269.161 476.633 268.833 476.901 268.559 477.175C268.285 477.449 268.017 477.681 267.731 477.92C267.445 478.158 267.135 478.432 266.808 478.67C266.48 478.909 266.212 479.135 265.908 479.344C265.604 479.552 265.258 479.797 264.931 480.023C264.603 480.249 264.287 480.422 263.959 480.619C263.632 480.815 263.28 481.012 262.941 481.215C262.601 481.417 262.249 481.56 261.892 481.721C261.534 481.882 261.201 482.067 260.843 482.216C260.486 482.365 260.075 482.519 259.687 482.651C259.3 482.782 258.996 482.919 258.651 483.026C257.995 483.234 257.322 483.413 256.643 483.568C256.255 483.658 255.88 483.729 255.493 483.789C255.105 483.848 254.742 483.938 254.355 484.003H254.414L259.729 495.324L264.704 495.372C263.098 495.6 261.474 495.67 259.854 495.58L267.731 512.377C270.301 517.851 269.895 524.26 266.654 529.365C263.413 534.471 257.786 537.566 251.739 537.569H242.205C241.46 537.571 240.746 537.869 240.221 538.397C239.695 538.926 239.402 539.642 239.405 540.387V541.782C246.126 544.06 250.209 550.868 249.055 557.869C247.901 564.871 241.848 570.008 234.751 570.008C227.655 570.008 221.602 564.871 220.448 557.869C219.293 550.868 223.377 544.06 230.098 541.782V540.387C230.099 539.641 229.804 538.924 229.276 538.395C228.749 537.866 228.032 537.569 227.286 537.569H122.09C121.343 537.569 120.627 537.866 120.099 538.395C119.572 538.924 119.276 539.641 119.278 540.387V541.782C126.009 544.06 130.1 550.877 128.946 557.888C127.791 564.9 121.73 570.045 114.624 570.045C107.518 570.045 101.457 564.9 100.302 557.888C99.1478 550.877 103.24 544.06 109.971 541.782V540.387C109.971 538.831 108.709 537.569 107.152 537.569H90.8024C89.2641 537.565 87.8793 536.636 87.2927 535.214C86.7061 533.791 87.033 532.156 88.1211 531.069C88.831 530.356 89.7965 529.957 90.8024 529.96H248.313C252.353 529.956 256.112 527.892 258.284 524.484C260.456 521.077 260.74 516.798 259.038 513.134L245.494 483.908L109.756 472.932C109.652 472.908 109.547 472.892 109.44 472.885C108.844 472.825 108.249 472.748 107.653 472.646C107.452 472.621 107.254 472.585 107.057 472.539C106.384 472.42 105.74 472.271 105.091 472.104L104.537 471.943C103.941 471.759 103.345 471.568 102.749 471.347L102.284 471.169C101.742 470.96 101.206 470.722 100.681 470.466C100.459 470.373 100.242 470.267 100.032 470.15C99.5553 469.912 99.0786 469.655 98.6139 469.369C90.6563 464.693 85.7689 456.154 85.7676 446.924V388.085C85.7698 375.109 95.3087 364.108 108.153 362.267L278.176 337.838L294.925 314.642C295.829 313.687 297.086 313.148 298.4 313.151C299.714 313.155 300.969 313.7 301.867 314.659V314.659Z" fill="white"/>
<path fill-rule="evenodd" clip-rule="evenodd" d="M430.664 427.148C461.743 451.738 484.373 492.452 495.366 515.261C500.294 525.42 502.874 527.797 502.874 527.797L468.083 568.464C466.656 570.146 464.174 570.447 462.386 569.155L461.427 568.452C459.782 567.241 459.229 565.033 460.11 563.19L473.815 534.757H474.19C474.851 534.364 473.791 530.616 444.088 501.92L443.85 501.682L443.254 501.128L435.299 493.578L434.704 492.983L434.251 492.583L396.057 456.273V456.243C396.01 456.231 396.01 456.183 396.01 456.183L394.705 454.992L369.799 553.544L365.628 569.983H314.815C314.512 569.985 314.21 569.951 313.915 569.882C313.122 569.715 312.394 569.324 311.818 568.756C311.539 568.46 311.302 568.127 311.114 567.766C310.772 567.157 310.591 566.47 310.59 565.77C310.577 564.319 311.319 562.965 312.55 562.195C312.958 561.93 313.41 561.742 313.885 561.641L326.922 558.161L344.321 553.532L360.861 407.676L361.511 401.795L363.685 382.526L363.399 380.977L363.131 379.541V379.481V379.433C362.804 377.682 362.476 375.912 362.16 374.178L362.053 373.517C361.606 370.895 361.201 368.196 360.825 365.532C358.085 365.139 355.898 364.764 354.605 364.454L352.722 364.168C350.515 363.83 348.857 361.977 348.766 359.747C348.36 357.322 349.647 354.384 350.964 351.405C351.775 348.616 352.615 345.47 353.425 342.098C354.175 338.234 354.881 333.901 355.498 330.115L355.498 330.114C356.096 326.445 356.61 323.29 357 321.571C357.022 321.32 357.045 321.071 357.068 320.823L357.068 320.82L357.068 320.819C357.118 320.268 357.168 319.725 357.209 319.188C357.199 318.844 357.053 318.518 356.803 318.282C356.552 318.046 356.218 317.919 355.874 317.931C355.459 318.028 355.032 318.138 354.61 318.246L354.61 318.246L354.606 318.247L354.331 318.318H354.289C347.75 319.961 341.21 321.432 334.816 322.872L334.811 322.873L334.811 322.873C330.539 323.834 326.332 324.781 322.233 325.754C320.859 326.21 319.45 326.551 318.02 326.773C316.495 327.17 314.981 327.567 313.48 327.965L313.677 327.798C312.896 328.197 312.014 328.084 311.174 327.005C310.681 326.291 310.349 325.478 310.203 324.622C310.007 323.768 309.79 322.92 309.573 322.071C309.176 320.523 308.78 318.974 308.511 317.388C307.593 316.882 306.684 316.299 305.781 315.72L305.781 315.72C302.168 313.403 298.656 311.151 295.128 314.135C294.29 314.834 293.495 315.904 292.672 317.014C290.685 319.689 288.531 322.591 285.195 321.041C281.072 319.122 281.239 315.106 281.93 311.376C282.758 306.794 286.476 302.701 290.868 301.98C293.863 301.468 296.897 301.199 299.936 300.929L299.936 300.929C303.02 300.655 306.108 300.381 309.166 299.853C313.122 299.15 317.049 298.28 320.94 297.291C327.429 295.432 335.615 292.75 342.551 290.296L345.065 287.525L344.946 287.439L344.945 287.438L344.943 287.436C344.636 287.214 344.322 286.987 344.017 286.75L309.071 263.673L306.223 261.886L306.33 261.838C303.512 259.938 307.42 253.902 307.855 253.252L307.045 252.37C305.738 251.14 304.22 250.155 302.564 249.463C301.481 249.034 300.367 248.861 299.255 248.69C298.159 248.52 297.066 248.352 296.01 247.937C293.76 247.027 291.849 245.441 290.54 243.397C289.985 242.526 289.518 241.602 289.146 240.638C289.136 240.642 289.126 240.642 289.116 240.638C289.074 240.531 289.038 240.422 289.009 240.311C288.913 240.096 288.837 239.851 288.765 239.618L288.746 239.559C288.734 239.521 288.723 239.484 288.711 239.447L288.663 239.28C288.565 239.019 288.495 238.757 288.423 238.489L288.422 238.488C288.408 238.433 288.393 238.377 288.377 238.32C288.228 237.725 288.097 237.129 287.99 236.533C287.734 235.132 287.584 233.714 287.543 232.291C287.513 231.993 287.513 231.695 287.513 231.397L287.239 231.307L272.236 226.654V226.594L271.575 226.386C270.976 226.201 270.484 225.772 270.218 225.205C269.953 224.637 269.939 223.985 270.18 223.407L276.025 209.577C276.473 208.516 277.657 207.971 278.754 208.32L304.137 216.334C304.747 216.523 305.246 216.965 305.507 217.548C305.769 218.131 305.767 218.798 305.502 219.379L305.573 219.39C305.743 219.416 305.925 219.444 306.097 219.486C309.341 220.031 312.398 221.374 314.993 223.395C318.033 225.936 320.185 229.38 321.136 233.226C321.692 235.221 322.806 237.015 324.348 238.398L358.692 258.847C359.142 258.963 359.597 259.055 360.057 259.121V259.181C360.115 259.186 360.172 259.201 360.23 259.216C360.301 259.234 360.371 259.252 360.444 259.252V262.535C360.516 261.844 360.605 261.171 360.712 260.498C360.727 260.399 360.737 260.299 360.742 260.2C361.564 252.692 364.216 245.62 367.964 239.113C374.333 227.488 383.384 218.991 390.754 213.432C393.641 211.137 396.699 209.066 399.901 207.236L399.358 206.246C398.506 206.699 397.684 207.158 396.856 207.623L396.141 208.028L394.055 199.037L393.156 195.158L389.408 188.473C389.247 188.443 389.068 188.413 388.883 188.413C383.759 187.68 380.732 183.11 379.04 179.094C378.034 176.72 377.47 174.181 377.378 171.604V171.229C374.718 169.835 373.128 167.005 373.32 164.007C373.416 162.499 373.988 161.059 374.953 159.896C374.965 159.598 374.983 159.3 375.024 159.002C375.882 151.703 379.046 144.333 384.558 139.566C385.471 138.782 386.454 138.084 387.495 137.481C390.324 135.837 393.483 134.844 396.743 134.573C396.752 134.57 396.763 134.57 396.772 134.573C397.118 134.513 397.458 134.513 397.803 134.513C397.832 134.504 397.86 134.492 397.887 134.481L397.887 134.481C397.943 134.458 397.995 134.436 398.048 134.436C406.377 132.356 413.075 135.919 417.883 141.616C419.554 143.255 421.006 145.104 422.203 147.115C422.23 147.145 422.25 147.179 422.262 147.217C425.068 152.043 426.521 157.537 426.469 163.12C426.558 164.606 426.628 166.039 426.695 167.418V167.419V167.419C426.878 171.199 427.042 174.573 427.536 177.515C428.009 179.97 428.863 182.337 430.068 184.528C431.44 186.514 433.353 188.064 435.579 188.997C437.322 189.026 439.061 189.181 440.781 189.462C441.305 189.503 441.848 189.563 442.384 189.64C448.214 190.524 453.745 192.801 458.507 196.278C458.58 196.334 458.653 196.389 458.726 196.445L458.726 196.446C458.989 196.647 459.253 196.849 459.514 197.059C464.94 201.081 469.117 206.558 471.562 212.854C471.562 212.854 471.771 214.844 471.997 217.722C472.087 218.545 472.176 219.385 472.176 220.225C472.475 224.244 472.53 228.277 472.343 232.302C472.553 234.712 473.256 237.053 474.41 239.178C476.163 241.665 478.335 243.828 480.828 245.572C482.218 246.487 483.667 247.315 485.104 248.136C485.575 248.405 486.045 248.674 486.512 248.944C487.636 249.484 488.688 250.165 489.64 250.97C493.693 254.017 496.506 258.428 497.559 263.387C498.757 267.652 498.993 272.129 498.25 276.496C497.434 281.894 494.454 286.286 490.879 289.73C486.983 294.258 481.733 297.434 475.352 299.424C471.563 300.432 467.66 300.946 463.739 300.955C458.376 300.955 452.126 299.889 447.359 295.962C442.956 292.846 439.595 287.769 438.821 279.66C438.219 293.954 438.13 306.902 438.13 307.11V307.14C438.148 307.271 438.952 321.69 439.673 336.467C440.376 346.716 440.96 355.349 440.739 361.355C440.745 361.684 440.758 362.011 440.77 362.325L440.77 362.326C440.785 362.7 440.799 363.057 440.799 363.381C440.844 364.577 440.607 365.767 440.108 366.855C439.939 367.738 439.618 368.584 439.16 369.358C438.565 370.287 436.884 370.919 434.394 371.324C432.2 372.002 429.93 372.402 427.637 372.516L430.664 427.148ZM315.22 326.213C315.071 326.454 314.905 326.685 314.725 326.904L315.297 326.421C315.253 326.36 315.226 326.288 315.22 326.213ZM344.213 289.7C344.41 289.61 344.601 289.533 344.809 289.455L346.865 288.651L346.954 288.693L346.475 288.871C345.742 289.144 344.986 289.426 344.213 289.7ZM353.353 255.987C354.744 257.228 356.383 258.159 358.162 258.716V258.752C358.269 258.782 358.376 258.782 358.496 258.776L351.453 254.849L353.353 255.987Z" fill="white"/>
<path d="M348.783 289.05L347.746 288.663C347.672 288.624 347.6 288.58 347.532 288.532C342.115 285.028 337.885 280.083 334.268 274.828C330.455 269.28 317.37 263.572 313.14 258.317C310.429 254.992 307.592 251.167 303.439 249.51C301.3 248.67 299.012 248.831 296.885 247.985C294.634 247.081 292.723 245.493 291.421 243.445C290.857 242.572 290.384 241.644 290.009 240.674C289.964 240.564 289.926 240.45 289.896 240.334C289.756 239.998 289.643 239.652 289.556 239.298C289.443 238.976 289.36 238.666 289.276 238.338C289.113 237.75 288.984 237.154 288.889 236.551C288.667 235.204 288.526 233.845 288.466 232.481V232.416C288.418 231.033 288.436 229.675 288.502 228.346V228.31H288.436L282.353 226.171C280.643 225.606 279.38 224.149 279.064 222.376C278.981 221.891 278.997 221.394 279.111 220.916C279.392 219.637 280.223 218.547 281.381 217.937C282.45 217.37 283.707 217.275 284.849 217.675L297.094 222.12L299.608 223.025L299.674 223.061C299.674 223.061 299.674 219.331 303.249 219.409C306.556 219.492 318.538 220.463 322.089 233.566C322.643 235.558 323.758 237.349 325.301 238.726L354.247 256.059C356.215 257.842 358.684 258.976 361.319 259.306V262.982C361.312 262.989 361.307 262.999 361.307 263.009C361.307 263.019 361.312 263.029 361.319 263.036V265.711L363.619 281.829L365.24 293.096C363.125 293.268 360.997 293.192 358.9 292.87L357.524 292.351H357.488L348.783 289.05Z" fill="white"/>
<path d="M360.939 262.792V262.839V262.839C360.254 268.875 359.574 275.882 359.038 283.634C355.177 285.422 351.238 286.971 347.365 288.514C347.291 288.475 347.22 288.431 347.151 288.383C344.519 286.655 342.103 284.618 339.953 282.317L307.099 261.928C309.131 260.899 310.943 259.482 312.431 257.757L312.533 257.656C318.723 251.006 324.092 239.78 324.759 238.374L324.902 238.523L353.848 255.856C355.816 257.638 358.286 258.77 360.921 259.098L360.939 262.792Z" fill="#433F37"/>
<path d="M302.66 228.591L301.998 230.378L301.367 232.112L301.021 233.095L300.974 233.244L300.908 233.423C300.584 234.353 299.569 234.846 298.638 234.525L288.163 231.308H288.115L273.064 226.684L276.973 217.442L278.695 213.373C279.15 212.312 280.336 211.77 281.436 212.122L302.177 218.676C301.505 218.522 300.822 218.425 300.133 218.384C299.144 218.325 298.18 218.712 297.506 219.438C296.867 220.165 296.608 221.15 296.809 222.096C297.119 223.293 297.735 224.39 298.596 225.278C298.68 225.373 298.763 225.456 298.858 225.552C299.629 226.406 300.52 227.143 301.504 227.739C301.504 227.739 301.534 227.739 301.569 227.786C301.605 227.834 301.569 227.786 301.569 227.786C301.914 228.079 302.278 228.348 302.66 228.591V228.591Z" fill="#E6AB39"/>
<path d="M288.389 231.308C288.389 231.629 288.389 231.975 288.424 232.297C288.467 233.722 288.619 235.143 288.877 236.545C288.972 237.148 289.102 237.745 289.265 238.333C289.348 238.654 289.425 238.964 289.539 239.286C289.652 239.608 289.771 240.001 289.914 240.358C289.96 240.491 290.014 240.62 290.075 240.746C290.411 241.579 290.828 242.377 291.32 243.129C292.642 245.19 294.575 246.786 296.85 247.693C298.959 248.515 301.265 248.372 303.404 249.213C307.491 250.851 310.298 254.533 312.937 257.828" stroke="#171106" stroke-width="2"/>
<path d="M307.426 229.788C306.83 229.693 306.234 229.58 305.638 229.431C305.042 229.282 304.601 229.121 304.101 228.93C303.303 228.619 302.536 228.232 301.813 227.774C301.813 227.774 301.765 227.774 301.747 227.727C300.658 227.062 299.679 226.231 298.845 225.266C297.983 224.379 297.367 223.282 297.058 222.084C296.836 221.137 297.097 220.142 297.755 219.426C298.43 218.701 299.393 218.314 300.383 218.372C301.3 218.444 302.21 218.586 303.106 218.795C304.387 219.021 305.668 219.23 306.937 219.492C310.18 220.045 313.237 221.387 315.839 223.401C318.872 225.945 321.023 229.385 321.982 233.226C322.53 235.22 323.638 237.015 325.176 238.398L361.301 259.908" stroke="#171106" stroke-width="2"/>
<path d="M288.431 232.291C288.431 232.291 289.587 238.791 298.625 238.613C300.06 238.56 301.31 237.62 301.76 236.257C302.209 234.893 301.762 233.394 300.639 232.499L300.52 232.41" stroke="#171106" stroke-width="2"/>
<path d="M289.884 240.305C289.884 240.305 294.311 244.91 298.726 242.92C302.629 241.133 299.959 237.635 299.959 237.635" stroke="#171106" stroke-width="2"/>
<path d="M301.962 232.201L301.64 232.106" stroke="#171106" stroke-width="2"/>
<path d="M255.225 483.991C253.346 484.26 251.443 484.314 249.552 484.152L246.573 483.914L255.225 483.991Z" fill="#EEC474"/>
<path d="M288.711 349.314L277.599 460.736C276.399 472.72 267.15 482.325 255.219 483.974C253.34 484.243 251.437 484.296 249.546 484.134L246.567 483.896L110.614 472.915C106.675 472.607 102.859 471.398 99.4603 469.381C97.8169 465.927 96.9679 462.148 96.9756 458.323V455.731L221.882 465.86L224.861 466.104C226.752 466.26 228.654 466.206 230.533 465.943C242.461 464.288 251.708 454.687 252.913 442.706L261.851 353.24L288.711 349.314Z" fill="#E6AB39"/>
<path d="M261.838 353.175L252.901 442.64C251.695 454.622 242.449 464.223 230.521 465.878C228.642 466.141 226.739 466.195 224.849 466.039L221.869 465.794L96.9634 455.665V399.472C96.9691 386.496 106.501 375.492 119.343 373.636L261.838 353.175Z" fill="#EEC474"/>
<path d="M265.592 495.378C263.712 495.647 261.807 495.701 259.914 495.539L256.935 495.3L265.592 495.378Z" fill="#EEC474"/>
<path d="M255.296 483.992L268.619 512.389C271.185 517.863 270.775 524.269 267.533 529.371C264.291 534.474 258.666 537.566 252.621 537.569H243.088C242.342 537.568 241.627 537.863 241.099 538.389C240.572 538.916 240.275 539.631 240.275 540.376V554.223C240.275 556.793 238.192 558.877 235.622 558.877C233.052 558.877 230.968 556.793 230.968 554.223V540.37C230.97 539.624 230.674 538.908 230.146 538.382C229.618 537.855 228.902 537.56 228.156 537.564H122.966C122.221 537.562 121.507 537.857 120.98 538.384C120.453 538.91 120.158 539.625 120.16 540.37V554.217C120.07 556.724 118.012 558.71 115.503 558.71C112.995 558.71 110.936 556.724 110.847 554.217V540.37C110.848 539.625 110.553 538.91 110.027 538.384C109.5 537.857 108.785 537.562 108.04 537.564H91.6905C89.6447 537.483 88.0278 535.801 88.0278 533.753C88.0278 531.706 89.6447 530.024 91.6905 529.943H249.183C253.218 529.938 256.972 527.877 259.143 524.476C261.314 521.075 261.603 516.802 259.908 513.14L246.365 483.944" fill="#171106"/>
<path fill-rule="evenodd" clip-rule="evenodd" d="M249.546 484.152L110.614 472.921C97.0641 471.828 86.6249 460.512 86.6255 446.918V388.085C86.6294 375.111 96.1635 364.109 109.005 362.261L279.022 337.832L295.783 314.624C296.69 313.665 297.955 313.125 299.275 313.132C300.595 313.14 301.853 313.695 302.749 314.665C304.324 316.392 304.415 319.006 302.963 320.838L289.175 344.547L277.61 460.736C276.198 474.884 263.718 485.297 249.546 484.152V484.152Z" stroke="#171106" stroke-width="2"/>
<path fill-rule="evenodd" clip-rule="evenodd" d="M250.154 555.486C250.169 562.889 244.607 569.115 237.249 569.93C229.891 570.746 223.101 565.889 221.494 558.663C219.888 551.436 223.982 544.16 230.992 541.782V554.223C230.992 556.793 233.075 558.876 235.645 558.876C238.215 558.876 240.299 556.793 240.299 554.223V541.776C246.189 543.753 250.157 549.273 250.154 555.486V555.486Z" stroke="#171106" stroke-width="2"/>
<path fill-rule="evenodd" clip-rule="evenodd" d="M130.015 555.486C130.029 562.887 124.466 569.11 117.11 569.922C109.754 570.735 102.967 565.877 101.365 558.652C99.7629 551.426 103.86 544.154 110.87 541.782V554.223C110.874 556.794 112.959 558.876 115.53 558.876C118.1 558.876 120.183 556.793 120.183 554.223V541.776C126.068 543.757 130.027 549.278 130.015 555.486V555.486Z" stroke="#171106" stroke-width="2"/>
<path d="M255.296 483.991L268.619 512.389C271.184 517.863 270.774 524.269 267.532 529.371C264.29 534.474 258.666 537.566 252.62 537.569H243.087C242.342 537.568 241.626 537.863 241.099 538.389C240.571 538.916 240.275 539.63 240.275 540.376V554.223C240.275 556.793 238.191 558.876 235.621 558.876C233.051 558.876 230.968 556.793 230.968 554.223V540.37C230.969 539.624 230.673 538.908 230.145 538.381C229.617 537.855 228.901 537.56 228.155 537.563H122.966C122.221 537.562 121.506 537.857 120.979 538.383C120.453 538.91 120.158 539.625 120.159 540.37V554.217C120.07 556.724 118.011 558.71 115.503 558.71C112.994 558.71 110.936 556.724 110.846 554.217V540.37C110.848 539.625 110.553 538.91 110.026 538.383C109.499 537.857 108.785 537.562 108.04 537.563H91.69C89.6442 537.482 88.0273 535.8 88.0273 533.753C88.0273 531.705 89.6442 530.023 91.69 529.942H249.182C253.217 529.938 256.972 527.877 259.143 524.476C261.314 521.075 261.602 516.802 259.908 513.14L246.364 483.944" stroke="#171106" stroke-width="2"/>
<path d="M302.999 228.424L301.616 232.106L301.241 233.095L301.128 233.423C300.804 234.334 299.814 234.823 298.893 234.525L288.389 231.307L272.42 226.398C271.822 226.213 271.329 225.784 271.064 225.217C270.799 224.649 270.785 223.996 271.026 223.419L276.865 209.583C277.322 208.524 278.507 207.984 279.606 208.332L304.983 216.346C305.596 216.532 306.1 216.972 306.367 217.554C306.635 218.136 306.641 218.804 306.383 219.391" stroke="#171106" stroke-width="2"/>
<path d="M297.744 220.946L275.155 213.635" stroke="#171106" stroke-width="2"/>
<path d="M325.2 238.398C325.2 238.398 316.513 257.292 308.094 261.779C307.969 261.841 307.887 261.966 307.879 262.105C307.872 262.244 307.94 262.377 308.058 262.452L347.532 288.508" stroke="#171106" stroke-width="2"/>
<path d="M308.767 253.234C308.767 253.234 303.893 260.337 307.492 262.077" stroke="#171106" stroke-width="2"/>
<path d="M311.466 299.591C311.466 299.591 309.47 299.68 313.474 304.721C317.478 309.762 318.837 319.355 316.114 326.213C316.114 326.213 315.995 328 323.121 325.772C330.247 323.544 355.243 318.33 355.243 318.33C355.243 318.33 359.145 316.274 357.936 321.482C356.726 326.69 354.361 345.846 351.888 351.369C349.415 356.893 347.008 362.368 355.517 364.442C364.025 366.515 410.441 370.877 410.441 370.877C410.441 370.877 442.021 377.878 441.687 363.375C441.353 348.873 439.036 307.122 439.036 307.122C439.036 307.122 439.226 274.893 441.353 255.838C441.353 255.838 446.907 207.426 430.396 202.951C413.885 198.477 408.278 203.237 404.09 205.496C399.901 207.754 362.977 227.053 360.963 266.867C360.963 266.867 360.826 282.252 357.709 284.546C354.593 286.84 318.128 299.454 311.466 299.591V299.591Z" fill="#433F37"/>
<path d="M370.657 553.532L366.486 569.971H315.702C314.588 569.963 313.52 569.523 312.723 568.744C311.638 567.654 311.23 566.061 311.659 564.584C312.087 563.107 313.285 561.98 314.785 561.641L345.22 553.532C345.22 553.532 362.839 559.723 370.657 553.532V553.532Z" fill="#171106"/>
<path d="M429.669 371.789C429.281 371.789 428.876 371.824 428.477 371.824C426.888 382.085 425.12 392.311 423.174 402.504C400.425 397.41 368.994 406.443 368.994 406.443L369.656 410.018C364.472 410.298 362.881 408.385 362.881 408.385L361.737 407.676L364.591 382.49L364.043 379.511V379.415C363.703 377.664 363.381 375.894 363.072 374.142L362.958 373.499C362.505 370.788 362.082 368.065 361.707 365.354L362.082 365.407C362.213 365.407 362.339 365.455 362.488 365.467L362.809 365.52C363.089 365.55 363.363 365.598 363.638 365.634C364.233 365.711 365.002 365.824 365.86 365.955C366.2 365.955 366.557 366.039 366.933 366.104C379.85 367.898 413.503 372.277 429.669 371.789V371.789Z" fill="#EEC474"/>
<path d="M395.646 454.67L395.569 454.98L370.657 553.532L366.486 569.971H315.702C314.588 569.963 313.52 569.523 312.723 568.744C311.638 567.653 311.231 566.059 311.66 564.582C312.088 563.105 313.285 561.976 314.785 561.635L345.22 553.532L361.737 407.676L364.591 382.49" stroke="#171106" stroke-width="2"/>
<path d="M317.418 318.759C315.631 318.842 314.63 318.86 314.63 318.86C312.842 318.985 311.108 318.306 309.392 317.382C304.804 314.85 300.407 310.411 295.998 314.141C293.144 316.524 290.79 323.234 286.071 321.047C281.954 319.134 282.115 315.088 282.794 311.382C283.64 306.794 287.352 302.707 291.732 301.974C297.762 300.955 303.958 300.907 310.024 299.853C322.242 297.619 334.199 294.141 345.709 289.473C358.49 284.379 372.432 279.13 381.87 268.667C393.078 256.279 400.198 240.066 404.089 223.943" stroke="#171106" stroke-width="2"/>
<path d="M497.738 263.757C497.738 263.626 497.678 263.495 497.637 263.364C496.266 258.461 493.443 254.088 489.539 250.821L489.396 250.72C489.033 250.458 488.657 250.214 488.276 249.963C487.769 249.648 487.245 249.338 486.721 249.034C486.677 249.003 486.629 248.979 486.578 248.962C484.557 248.016 482.635 246.873 480.84 245.548L480.75 245.489C478.325 243.874 476.127 242.003 474.619 239.399C474.581 239.346 474.551 239.288 474.53 239.226C474.5 239.226 474.5 239.185 474.488 239.167C473.059 237.172 472.332 234.76 472.421 232.309V232.237C471.986 228.299 472.421 224.157 472.266 220.159C472.266 219.915 472.266 219.665 472.218 219.421C472.17 219.176 472.176 218.866 472.158 218.622C472.174 218.539 472.174 218.455 472.158 218.372C472.101 217.572 472 216.777 471.855 215.989C470.472 208.523 465.676 201.867 459.807 197.172C459.68 197.059 459.545 196.958 459.401 196.868C452.847 192.042 445.608 190.165 440.889 189.438C440.845 189.432 440.801 189.432 440.758 189.438C439.077 189.406 437.4 189.255 435.741 188.985C435.711 188.985 435.681 188.985 435.669 188.985C433.927 188.643 432.374 187.669 431.308 186.25C430.906 185.734 430.547 185.186 430.235 184.612C430.193 184.578 430.162 184.532 430.146 184.481C428.918 182.578 428.106 180.438 427.762 178.2C427.715 177.986 427.661 177.765 427.631 177.563C426.612 172.725 426.583 167.463 426.553 163.12C426.16 156.416 423.186 147.789 418.008 141.669C418.008 141.669 418.008 141.64 417.979 141.64C416.479 140.139 414.79 138.839 412.956 137.773C408.305 135.171 402.969 134.061 397.666 134.591C397.666 134.591 397.666 134.591 397.637 134.591C394.38 134.866 391.225 135.857 388.395 137.493C387.355 138.102 386.372 138.804 385.458 139.59C379.934 144.327 376.782 151.721 375.924 159.014C375.853 159.61 375.805 160.134 375.781 160.701C375.767 160.767 375.767 160.836 375.781 160.903C375.084 161.837 374.67 162.952 374.59 164.115C374.426 166.749 375.888 169.215 378.278 170.335V170.448V171.598C378.364 174.178 378.926 176.719 379.934 179.094C381.632 183.11 384.659 187.686 389.789 188.413C390.7 188.541 391.617 188.623 392.536 188.657L394.961 199.037L397.005 208.07C406.068 202.91 416.143 197.994 425.725 201.003L429.997 202.791C434.43 204.173 435.395 208.1 438.738 211.514C449.373 220.189 461.38 261.475 462.077 264.031C462.079 264.063 462.089 264.094 462.107 264.12C462.107 264.12 462.107 264.12 462.107 264.15C462.107 264.18 462.107 264.192 462.107 264.222C462.137 264.343 462.181 264.461 462.238 264.573C462.279 264.698 462.327 264.83 462.381 264.961C462.488 265.223 462.589 265.485 462.691 265.747C464.794 271.229 471.628 289.086 473.183 293.489C474.971 298.691 476.419 299.096 476.419 299.096C476.497 299.083 476.572 299.055 476.639 299.013C476.711 298.983 476.812 298.935 476.931 298.894C481.524 297.032 485.785 294.436 489.545 291.207C489.545 291.207 489.545 291.207 489.545 291.178C493.026 287.639 495.552 283.274 496.886 278.492C498.384 273.726 498.676 268.664 497.738 263.757V263.757Z" fill="white"/>
<path d="M380.523 157.328C380.523 157.328 381.638 138.78 398.953 134.436C416.268 130.092 426.6 150.208 427.38 163.12C428.161 176.031 427.38 184.939 436.479 189.003C436.479 189.003 462.773 188.681 472.462 212.837C472.462 212.837 473.772 224.676 473.236 232.297C472.7 239.917 482.209 246.597 487.387 248.944C492.565 251.292 501.574 260.861 499.125 276.49C496.676 292.119 476.233 299.406 476.233 299.406C476.233 299.406 458.763 304.578 448.229 295.944C437.045 286.786 440.209 270.037 440.209 270.037C440.209 270.037 446.245 215.565 435.257 206.616C429.209 201.688 426.463 202.135 422.191 199.537C417.692 196.802 416.083 195.962 414.576 194.038C411.644 190.266 406.448 184.57 410.208 171.134C413.968 157.697 410.208 164.472 406.633 162.577C406.633 162.577 402.248 155.809 395.628 160.593C389.008 165.378 390.623 153.705 390.623 153.705L387.715 157.614C387.715 157.614 383.169 158.526 380.523 157.328V157.328Z" fill="#E6AB39"/>
<path d="M376.448 163.739C376.287 155.082 379.517 145.358 386.244 139.59C387.157 138.803 388.138 138.1 389.175 137.486C396.444 133.19 406.544 133.578 413.777 137.755C417.624 140.039 420.834 143.257 423.108 147.109L423.168 147.217C425.971 152.045 427.426 157.537 427.381 163.12C427.416 170.377 427.458 180.226 432.117 186.25C435.061 190.063 438.976 188.991 443.283 189.64C449.117 190.517 454.65 192.797 459.407 196.284C465.83 201.009 471.181 208.058 472.658 216.018C474.082 223.681 471.3 232.32 475.429 239.405C478.456 244.583 484.212 246.948 489.086 249.969C498.869 256.106 500.883 267.999 497.785 278.462C494.556 289.372 486.965 296.075 476.233 299.418C476.233 299.418 439.971 308.355 439.524 276.573" stroke="#171106" stroke-width="2"/>
<ellipse cx="381.603" cy="164.702" rx="6.29803" ry="6.45294" transform="rotate(-46.65 381.603 164.702)" fill="#EEC474"/>
<ellipse cx="400.395" cy="166.424" rx="6.32783" ry="6.48274" transform="rotate(-46.65 400.395 166.424)" fill="#EEC474"/>
<path d="M390.117 153.157C389.741 155.707 388.192 158.061 385.434 158.764C382.323 159.557 380.667 162.583 379.797 165.628C378.552 170.095 378.874 174.853 380.708 179.112C382.407 183.116 385.439 187.692 390.564 188.425C399.942 189.76 404.608 185.809 404.608 185.809" stroke="#171106" stroke-width="2"/>
<ellipse cx="397.928" cy="165.169" rx="1.61473" ry="1.61474" fill="#171106"/>
<ellipse cx="383.765" cy="164.109" rx="1.61472" ry="1.61473" fill="#171106"/>
<path d="M390.117 153.157C389.761 154.69 389.817 156.289 390.278 157.793C390.349 158.037 390.44 158.274 390.552 158.502C391.672 161.13 394.276 163.227 398.893 162.965C408.921 162.411 412.496 161.773 411.68 166.379C411.342 168.009 410.855 169.604 410.226 171.146C409.124 174.071 408.355 179.094 409.487 184.564C410.792 190.957 413.891 197.488 424.336 201.122" stroke="#171106" stroke-width="2"/>
<path d="M390.993 165.563C390.993 165.563 389.301 171.748 389.473 172.659C389.646 173.571 391.809 172.862 391.809 172.862" stroke="#171106" stroke-width="2"/>
<path d="M392.184 178.528C395.419 180.274 399.173 179.172 400.639 176.252" stroke="#171106" stroke-width="2"/>
<ellipse rx="7.34075" ry="7.5195" transform="matrix(0.686454 -0.727173 0.727175 0.686452 400.389 166.427)" stroke="#171106" stroke-width="2"/>
<ellipse rx="7.34075" ry="7.5195" transform="matrix(0.686454 -0.727173 0.727175 0.686452 381.603 164.703)" stroke="#171106" stroke-width="2"/>
<path fill-rule="evenodd" clip-rule="evenodd" d="M375.375 164.127C375.583 160.924 378.25 158.438 381.459 158.454V158.478H382.055C385.507 158.806 388.078 161.809 387.87 165.271C387.662 168.474 384.997 170.962 381.787 170.949C381.685 170.949 381.584 170.941 381.484 170.934C381.386 170.927 381.288 170.919 381.191 170.919C377.737 170.594 375.164 167.589 375.375 164.127ZM381.942 159.557C381.781 159.548 381.62 159.548 381.459 159.557C378.826 159.533 376.636 161.576 376.478 164.204C376.308 167.068 378.436 169.552 381.292 169.823H381.775C384.408 169.847 386.597 167.803 386.756 165.175C386.932 162.309 384.801 159.821 381.942 159.557Z" fill="white"/>
<path d="M392.965 165.741L389.021 165.378" stroke="#171106" stroke-width="2"/>
<path fill-rule="evenodd" clip-rule="evenodd" d="M393.972 165.837C394.187 162.549 396.928 159.998 400.223 160.021L400.205 160.045H400.801C404.347 160.361 406.993 163.451 406.759 167.004C406.548 170.288 403.817 172.839 400.526 172.826C400.429 172.826 400.331 172.818 400.233 172.811C400.133 172.804 400.033 172.796 399.931 172.796C396.393 172.462 393.757 169.383 393.972 165.837ZM400.717 161.123H400.223C397.516 161.096 395.26 163.189 395.086 165.89C394.91 168.843 397.105 171.404 400.05 171.682H400.544C403.25 171.706 405.504 169.615 405.68 166.915C405.857 163.962 403.662 161.401 400.717 161.123Z" fill="white"/>
<path d="M397.929 208.541L395.736 199.055L393.353 188.824" stroke="#171106" stroke-width="2"/>
<path d="M503.768 527.821L468.982 568.487C467.554 570.168 465.073 570.466 463.286 569.173L462.333 568.475C460.683 567.272 460.124 565.063 461.004 563.22L474.673 534.775C474.673 534.775 496.421 535.4 496.242 515.243C501.17 525.426 503.768 527.821 503.768 527.821V527.821Z" fill="#171106"/>
<path d="M444.981 501.944L444.737 501.7L435.591 493.007L435.15 492.602L396.945 456.255V456.219L396.891 456.172L395.598 454.98L383.985 443.939C377.626 437.883 373.346 429.97 371.759 421.333L369.655 410.06L368.988 406.485L364.591 382.55L364.042 379.571V379.475C363.703 377.724 363.381 375.954 363.071 374.202L362.958 373.559" stroke="#171106" stroke-width="2"/>
<path d="M361.689 365.372C362.065 368.083 362.488 370.806 362.941 373.517L363.054 374.16C363.364 375.912 363.686 377.682 364.025 379.433V379.529" stroke="#171106" stroke-width="2" stroke-linejoin="round"/>
<path d="M396.856 456.196L396.903 456.243L396.939 456.279" stroke="#171106" stroke-width="2" stroke-linejoin="round"/>
<path d="M435.145 492.601L435.586 493.007C438.891 496.105 441.94 499.003 444.732 501.7L444.97 501.944C481.609 537.343 474.667 534.775 474.667 534.775L460.993 563.22C460.116 565.065 460.677 567.272 462.327 568.476L463.281 569.173C465.067 570.467 467.548 570.168 468.977 568.488L503.756 527.822C503.756 527.822 501.164 525.438 496.236 515.243C484.397 490.707 459.116 445.429 424.313 421.834C421.663 420.056 420.345 416.859 420.97 413.73C421.637 410.501 422.269 407.271 422.889 404.03C422.984 403.529 423.079 403.023 423.163 402.522C425.105 392.322 426.873 382.095 428.466 371.843" stroke="#171106" stroke-width="2" stroke-linejoin="round"/>
<path d="M359.413 283.783C359.949 276.037 360.605 269.024 361.314 262.929C361.409 262.005 361.522 261.094 361.618 260.2C363.072 246.919 370.275 234.93 379.135 225.212C387.894 215.607 399.042 206.27 411.692 202.487C415.767 201.203 420.056 200.739 424.312 201.122C430.241 201.836 435.439 205.421 438.213 210.709C439.909 214.04 440.99 217.649 441.407 221.363V221.512C442.151 227.47 441.728 233.721 441.794 239.637C441.907 251.983 440.852 264.305 439.488 276.58" stroke="#171106" stroke-width="2" stroke-linejoin="round"/>
<path d="M358.353 314.66V314.642" stroke="#171106" stroke-width="2" stroke-linejoin="round"/>
<path d="M310.042 299.829C315.685 306.431 319.2 316.066 316.781 324.682C316.185 326.725 314.028 329.496 312.068 326.976C311.572 326.263 311.24 325.449 311.097 324.592C310.543 322.167 309.816 319.784 309.393 317.323" stroke="#171106" stroke-width="2"/>
<path d="M314.374 327.953C360.462 315.774 425.725 311.651 439.781 247.395C441.62 238.84 442.171 230.057 441.413 221.339" stroke="#171106" stroke-width="2"/>
<path d="M358.222 317.561C357.31 332.934 352.496 349.737 349.838 358.078C349.418 359.388 349.592 360.815 350.316 361.985C351.039 363.154 352.239 363.948 353.598 364.156C355.773 364.495 358.526 364.901 361.69 365.348L362.065 365.401C362.196 365.401 362.321 365.449 362.47 365.461L362.792 365.514C363.072 365.544 363.346 365.592 363.62 365.628C364.335 365.741 365.08 365.836 365.843 365.949C366.182 365.949 366.54 366.033 366.915 366.098C385.386 368.72 412.902 372.146 428.471 371.806C428.877 371.806 429.282 371.806 429.663 371.771L430.855 371.723L432.011 371.658C436.265 371.348 439.161 370.621 439.989 369.34C445.352 361.23 435.401 314.624 440.168 270.013" stroke="#171106" stroke-width="2"/>
<path d="M482.174 569.977H45.8818" stroke="#171106" stroke-width="2" stroke-linejoin="round"/>
<path d="M66.099 433.357C66.099 433.357 7.02143 502.647 66.099 569.256" stroke="#EEC474" stroke-width="2"/>
</svg>
