<svg width="24" height="25" viewBox="0 0 24 25" fill="none" xmlns="http://www.w3.org/2000/svg">
<path opacity="0.1" fill-rule="evenodd" clip-rule="evenodd" d="M0 12.1821C0 5.55471 5.37258 0.182129 12 0.182129C18.6274 0.182129 24 5.55471 24 12.1821C24 18.8095 18.6274 24.1821 12 24.1821C5.37258 24.1821 0 18.8095 0 12.1821Z" fill="white"/>
<path fill-rule="evenodd" clip-rule="evenodd" d="M18.3996 12.1734C18.3996 12.6062 18.3555 13.0384 18.269 13.4597C18.1846 13.871 18.0596 14.2748 17.8958 14.6608C17.7359 15.04 17.5374 15.4054 17.3055 15.7462C17.0771 16.0848 16.8139 16.4025 16.5248 16.6921C16.2351 16.9804 15.9164 17.2428 15.5779 17.4722C15.236 17.7025 14.8701 17.9007 14.4907 18.0614C14.1041 18.2243 13.6994 18.3491 13.2884 18.4334C12.8666 18.5202 12.4328 18.5645 11.9993 18.5645C11.5656 18.5645 11.1318 18.5202 10.7105 18.4334C10.2989 18.3491 9.89422 18.2243 9.50795 18.0614C9.12856 17.9007 8.76228 17.7025 8.42039 17.4722C8.08194 17.2429 7.76317 16.9804 7.47409 16.6921C7.18471 16.4025 6.92156 16.0848 6.6928 15.7462C6.46216 15.4054 6.26339 15.04 6.10277 14.6608C5.93899 14.2748 5.81369 13.871 5.72899 13.4597C5.64337 13.0384 5.59961 12.6062 5.59961 12.1734C5.59961 11.7402 5.64335 11.3071 5.72902 10.8867C5.81371 10.4754 5.93902 10.0709 6.10279 9.68555C6.26342 9.30609 6.46219 8.94036 6.69283 8.59956C6.92159 8.26067 7.18474 7.94359 7.47412 7.65368C7.7632 7.36532 8.08196 7.10352 8.42042 6.87447C8.7623 6.64321 9.12859 6.44508 9.50797 6.28403C9.89425 6.12079 10.2989 5.99567 10.7105 5.91205C11.1318 5.82593 11.5656 5.78223 11.9993 5.78223C12.4328 5.78223 12.8666 5.82593 13.2885 5.91205C13.6994 5.9957 14.1041 6.12082 14.4907 6.28403C14.8701 6.44505 15.2361 6.64321 15.5779 6.87447C15.9164 7.10352 16.2352 7.36532 16.5249 7.65368C16.814 7.94359 17.0771 8.26067 17.3055 8.59956C17.5374 8.94036 17.7359 9.30611 17.8958 9.68555C18.0596 10.0709 18.1846 10.4754 18.269 10.8867C18.3555 11.3071 18.3996 11.7402 18.3996 12.1734ZM9.6673 7.23676C8.14314 7.95547 7.00558 9.35788 6.65087 11.048C6.79496 11.0493 9.07258 11.078 11.6968 10.3818C10.7508 8.70346 9.74012 7.33384 9.6673 7.23676ZM12.1496 11.2222C9.33541 12.0635 6.63494 12.003 6.53807 11.9992C6.53649 12.0579 6.53369 12.1147 6.53369 12.1733C6.53369 13.5754 7.0634 14.8537 7.93407 15.8202C7.93219 15.8173 9.42792 13.1676 12.3774 12.2152C12.4487 12.1915 12.5212 12.1702 12.5931 12.1496C12.4559 11.8395 12.3062 11.5286 12.1496 11.2222ZM15.6089 8.07717C14.6466 7.22989 13.3831 6.71595 11.9993 6.71595C11.5552 6.71595 11.1242 6.76963 10.7114 6.86886C10.7933 6.97872 11.8199 8.33869 12.7546 10.0525C14.817 9.28049 15.5954 8.09713 15.6089 8.07717ZM12.9656 13.054C12.9535 13.058 12.9413 13.0615 12.9294 13.0659C9.70458 14.1884 8.65148 16.4508 8.64008 16.4755C9.56796 17.196 10.7318 17.6308 11.9993 17.6308C12.7562 17.6308 13.4772 17.4769 14.1332 17.1982C14.0522 16.7214 13.7347 15.05 12.9656 13.054ZM15.0535 16.6996C16.2808 15.8726 17.1524 14.5594 17.3955 13.0384C17.283 13.0022 15.7539 12.5188 13.9897 12.8012C14.7066 14.7685 14.9979 16.3706 15.0535 16.6996ZM13.1753 10.8658C13.3022 11.1261 13.425 11.391 13.5385 11.6572C13.5788 11.7527 13.6182 11.8463 13.6566 11.9399C15.5342 11.704 17.384 12.1009 17.4631 12.1171C17.4506 10.8233 16.9871 9.63592 16.2202 8.70629C16.2099 8.72093 15.3333 9.98574 13.1753 10.8658Z" fill="white"/>
</svg>
