<svg width="24" height="25" viewBox="0 0 24 25" fill="none" xmlns="http://www.w3.org/2000/svg">
<path opacity="0.1" fill-rule="evenodd" clip-rule="evenodd" d="M0 12.1821C0 5.55471 5.37258 0.182129 12 0.182129C18.6274 0.182129 24 5.55471 24 12.1821C24 18.8095 18.6274 24.1821 12 24.1821C5.37258 24.1821 0 18.8095 0 12.1821Z" fill="white"/>
<path fill-rule="evenodd" clip-rule="evenodd" d="M12.0002 5.78223C10.2621 5.78223 10.0439 5.78983 9.36125 5.82089C8.67991 5.85209 8.21484 5.95996 7.8079 6.11823C7.38696 6.2817 7.02989 6.50037 6.67415 6.85624C6.31815 7.21197 6.09948 7.56904 5.93548 7.98985C5.77681 8.39692 5.66881 8.86213 5.63814 9.5432C5.60761 10.2259 5.59961 10.4441 5.59961 12.1823C5.59961 13.9204 5.60734 14.1379 5.63828 14.8206C5.66961 15.5019 5.77748 15.967 5.93561 16.3739C6.09921 16.7949 6.31788 17.1519 6.67375 17.5077C7.02936 17.8637 7.38643 18.0829 7.8071 18.2464C8.2143 18.4046 8.67951 18.5125 9.36072 18.5437C10.0434 18.5748 10.2614 18.5824 11.9994 18.5824C13.7377 18.5824 13.9552 18.5748 14.6378 18.5437C15.3192 18.5125 15.7848 18.4046 16.192 18.2464C16.6128 18.0829 16.9693 17.8637 17.3249 17.5077C17.6809 17.1519 17.8996 16.7949 18.0636 16.3741C18.2209 15.967 18.3289 15.5018 18.3609 14.8207C18.3916 14.138 18.3996 13.9204 18.3996 12.1823C18.3996 10.4441 18.3916 10.226 18.3609 9.54333C18.3289 8.86199 18.2209 8.39692 18.0636 7.98998C17.8996 7.56905 17.6809 7.21197 17.3249 6.85624C16.9689 6.50023 16.6129 6.28157 16.1916 6.11823C15.7836 5.95996 15.3182 5.85209 14.6369 5.82089C13.9542 5.78983 13.7369 5.78223 11.9982 5.78223H12.0002ZM11.426 6.93555C11.5964 6.93529 11.7866 6.93555 12.0002 6.93555C13.709 6.93555 13.9115 6.94169 14.5863 6.97235C15.2103 7.00089 15.549 7.10516 15.7746 7.19276C16.0733 7.30876 16.2862 7.44743 16.5101 7.67143C16.7341 7.89543 16.8728 8.10877 16.989 8.40744C17.0766 8.63277 17.181 8.97144 17.2094 9.59545C17.2401 10.2701 17.2468 10.4728 17.2468 12.1808C17.2468 13.8888 17.2401 14.0915 17.2094 14.7662C17.1809 15.3902 17.0766 15.7288 16.989 15.9542C16.873 16.2529 16.7341 16.4655 16.5101 16.6894C16.2861 16.9134 16.0734 17.0521 15.7746 17.1681C15.5493 17.2561 15.2103 17.3601 14.5863 17.3886C13.9117 17.4193 13.709 17.4259 12.0002 17.4259C10.2912 17.4259 10.0887 17.4193 9.41402 17.3886C8.79002 17.3598 8.45134 17.2555 8.22561 17.1679C7.92694 17.0519 7.7136 16.9133 7.4896 16.6893C7.2656 16.4653 7.12693 16.2525 7.01066 15.9536C6.92306 15.7283 6.81866 15.3896 6.79026 14.7656C6.75959 14.091 6.75346 13.8883 6.75346 12.1792C6.75346 10.4701 6.75959 10.2685 6.79026 9.59385C6.81879 8.96984 6.92306 8.63117 7.01066 8.40557C7.12666 8.1069 7.2656 7.89356 7.4896 7.66956C7.7136 7.44556 7.92694 7.30689 8.22561 7.19062C8.45121 7.10262 8.79002 6.99862 9.41402 6.96995C10.0044 6.94329 10.2332 6.93529 11.426 6.93395V6.93555ZM15.4165 7.99823C14.9925 7.99823 14.6485 8.34184 14.6485 8.76598C14.6485 9.18998 14.9925 9.53398 15.4165 9.53398C15.8405 9.53398 16.1845 9.18998 16.1845 8.76598C16.1845 8.34197 15.8405 7.99823 15.4165 7.99823ZM12.0002 8.89558C10.1851 8.89558 8.71352 10.3672 8.71352 12.1823C8.71352 13.9974 10.1851 15.4683 12.0002 15.4683C13.8153 15.4683 15.2864 13.9974 15.2864 12.1823C15.2864 10.3672 13.8153 8.89558 12.0002 8.89558ZM12.0002 10.0489C13.1783 10.0489 14.1336 11.004 14.1336 12.1823C14.1336 13.3604 13.1783 14.3156 12.0002 14.3156C10.8219 14.3156 9.86684 13.3604 9.86684 12.1823C9.86684 11.004 10.8219 10.0489 12.0002 10.0489Z" fill="white"/>
</svg>
