<svg width="106" height="57" viewBox="0 0 106 57" fill="none" xmlns="http://www.w3.org/2000/svg">
<path d="M72.2363 47.3604C72.1134 47.2038 71.9084 47.0864 71.7444 46.969C71.2525 46.656 70.7196 46.4212 70.1048 46.2255C69.4899 46.069 68.834 45.8733 68.1781 45.7168C66.5385 45.3646 64.8578 45.0516 63.1771 44.8168C61.9064 44.6211 60.6766 44.4254 59.4059 44.2689L56.1265 43.9167C54.9787 43.7602 53.831 43.6428 52.6832 43.5254L48.379 43.1732C46.9853 43.0949 45.5506 42.9775 44.1569 42.8993C42.9271 42.8601 41.7383 42.8601 40.5086 42.8601C38.0491 42.8601 35.5896 42.9384 33.0891 43.1732C32.9661 43.1732 32.8431 43.1341 32.7611 43.1341C32.6381 42.9384 32.6791 42.7428 32.7201 42.5471C32.8021 42.0384 32.8841 41.4905 32.9251 40.9818C33.0071 39.3383 32.6791 37.8121 32.1052 36.3642C32.0643 36.2468 31.9823 36.1294 31.9413 35.9729C31.6543 35.1511 31.2444 34.4076 30.7935 33.7032C29.9327 32.3336 28.9079 31.1205 27.7601 29.9465C26.2434 28.4204 24.5217 27.0116 22.7591 25.7203L17.4711 22.0027C16.8153 21.5331 16.1594 20.9853 15.5445 20.4765C14.8886 19.9287 14.3557 19.3417 13.9048 18.6373C13.6179 18.0895 13.4539 17.5025 13.4949 16.8372C13.4949 16.3677 13.6589 15.9372 13.7819 15.5068C14.0278 14.8024 14.4377 14.1763 14.9706 13.6284C15.3396 13.2762 15.7085 12.924 16.1184 12.6501C16.3644 12.4936 16.5693 12.2979 16.7743 12.1414C17.3482 11.7109 17.922 11.2805 18.5369 10.8892C20.2176 9.87172 21.9802 8.89341 23.7839 8.07164C26.1204 6.97594 28.457 6.03676 30.8345 5.21499C32.3922 4.66714 33.9499 4.19755 35.5076 3.80623C37.8031 3.21925 40.0577 2.78879 42.3122 2.63226C43.419 2.554 44.5258 2.51487 45.5506 2.6714C46.0425 2.71053 46.5344 2.82793 46.9443 2.98445C47.3952 3.18012 47.6002 3.5323 47.4772 4.04102C47.4362 4.15842 47.4362 4.27582 47.3952 4.43234C47.4772 4.39321 47.5592 4.35408 47.5592 4.31495C47.8871 3.84536 47.8871 3.49317 47.5592 3.14098C47.2313 2.78879 46.8213 2.554 46.3294 2.39747C45.5916 2.12354 44.7717 2.00615 43.9519 1.96702C42.0663 1.88875 40.0987 2.00615 38.1311 2.31921C35.9995 2.6714 33.8679 3.18011 31.7363 3.7671C29.5637 4.43234 27.4322 5.13672 25.3416 6.03676L21.4473 7.79771C20.2996 8.30643 19.1928 8.89341 18.127 9.55866L16.7333 10.3804C16.6513 10.4587 16.5283 10.4978 16.4053 10.6152C15.6675 11.1631 14.9296 11.7109 14.2328 12.337C13.5769 12.8849 13.044 13.5501 12.6341 14.2937C12.0192 15.3894 11.8143 16.4459 12.1832 17.5025C12.3471 17.9721 12.5111 18.4025 12.7981 18.7939C13.208 19.42 13.6589 19.9678 14.1918 20.4765C15.0116 21.2592 15.8724 21.9636 16.8153 22.6288L21.2424 25.7594C23.005 27.0116 24.7267 28.3421 26.2434 29.8291C27.5961 31.1596 28.7849 32.5684 29.6867 34.2119C30.8345 36.2859 31.3674 38.5556 30.9575 41.0992C30.8755 41.7253 30.7525 42.3514 30.5476 42.9775C30.4656 43.1341 30.3836 43.2515 30.3016 43.408L29.4818 43.5254C29.0718 43.5645 28.7029 43.6037 28.293 43.6428L24.8907 44.1906C22.7181 44.582 20.5045 44.9342 18.332 45.3646C16.7743 45.6777 15.1756 46.069 13.6179 46.4603C11.1994 47.0082 8.82184 47.7125 6.4853 48.5734C5.21455 49.0039 3.9438 49.5126 2.71405 50.1387C2.01718 50.4518 1.40231 50.8822 0.828419 51.3518C0.623458 51.5084 0.459492 51.704 0.336515 51.8997C-0.0324122 52.4475 -0.114395 52.9562 0.172548 53.465C0.377508 53.8172 0.664451 54.1302 1.03338 54.4041C1.77123 54.9129 2.59107 55.3042 3.49289 55.539C4.92761 55.9694 6.4853 56.0868 8.002 56.1651C10.2976 56.2434 12.6341 56.0477 14.9706 55.6564C16.7333 55.3433 18.4549 54.8737 20.1766 54.2476C22.6361 53.3867 24.9727 52.2519 27.1042 50.6866C28.129 49.9431 29.1538 49.1604 29.8097 48.0647V47.9865C30.5066 47.2038 31.0395 46.3429 31.5724 45.4429C31.6133 45.2863 31.7363 45.1689 31.8183 45.0516C31.8593 44.7385 32.1052 44.5428 32.4332 44.5037C32.8431 44.4254 33.212 44.4254 33.6219 44.3863C34.8927 44.308 36.2044 44.1906 37.5162 44.1124L39.8117 43.995C42.4352 43.9558 45.0587 43.995 47.6002 44.1515L50.9615 44.3863C52.0273 44.4646 53.0931 44.582 54.1589 44.6602L57.6022 45.0124C58.914 45.1689 60.2667 45.3255 61.5784 45.482L66.8254 46.3038C67.7682 46.4603 68.67 46.6951 69.5719 46.8908C70.3917 47.0864 71.2115 47.2821 71.8264 47.7517L71.8674 47.7908C72.0314 47.8691 72.1953 47.8691 72.2773 47.7908C72.4003 47.6734 72.4003 47.5169 72.2363 47.3604ZM16.9382 10.7718H16.9792L16.9382 10.8109V10.7718ZM14.3967 12.7675C14.9296 12.1414 15.5855 11.6718 16.2414 11.2022C16.3644 11.2805 16.2414 11.3587 16.2004 11.3979L15.6265 11.9457C15.3396 12.1805 15.0526 12.4153 14.8067 12.6501C14.6837 12.7675 14.5607 12.8849 14.4787 13.0023V12.8066H14.4377V13.0023C14.3557 13.0414 14.2738 13.1197 14.1918 13.198C14.1508 13.198 14.1508 13.198 14.1098 13.198H14.0278C14.1098 13.0023 14.2328 12.8849 14.3967 12.7675ZM17.3482 11.2805L17.3892 11.3196C17.3482 11.3587 17.3482 11.3979 17.3072 11.3979C17.2662 11.437 17.2662 11.3979 17.2662 11.3979L17.3482 11.2805ZM16.4873 11.9457H16.5693C16.4873 12.024 16.4463 12.0631 16.4053 12.1414C15.7495 12.6501 15.1756 13.198 14.6017 13.7849L14.3557 13.9806C14.3967 13.8632 14.4377 13.7458 14.5607 13.6284C15.0936 13.0023 15.6675 12.4936 16.3234 11.9849L16.4873 11.9457ZM23.456 50.9996C21.2014 52.3301 18.8649 53.2302 16.4053 53.9346C14.8477 54.365 13.29 54.6389 11.7323 54.8346C11.1584 54.9129 10.5845 54.952 10.0106 54.9911C9.60069 55.0303 9.23176 55.0694 8.82184 55.0694C7.10018 55.0694 5.41951 54.9911 3.77984 54.6781C3.20595 54.5607 2.67305 54.4041 2.26314 54.052C1.89421 53.778 1.73024 53.3867 1.77123 52.9171C1.77123 52.8389 1.85322 52.7215 1.89421 52.6432C2.30413 52.1736 2.75504 51.8214 3.28793 51.4692C4.39471 50.804 5.5015 50.3344 6.69026 49.8648C8.49391 49.1996 10.2976 48.6126 12.1422 48.1039C14.0688 47.5951 16.0364 47.0864 17.963 46.6951C19.7257 46.3429 21.4883 45.9907 23.21 45.6777C24.9317 45.4037 26.6123 45.1689 28.293 44.9342L29.2358 44.8168C29.3588 44.8168 29.4818 44.8559 29.6457 44.8559C29.6047 45.0124 29.6047 45.1298 29.5228 45.2472C28.9899 46.0299 28.457 46.8516 27.8011 47.5951C26.5303 48.9648 25.0546 50.0213 23.456 50.9996ZM31.9413 45.0907C31.9003 45.0907 31.8593 45.0907 31.8183 45.0516C31.8183 45.1298 31.8593 45.2081 31.9413 45.0907ZM28.457 48.9648C28.9489 48.4169 29.4408 47.8299 29.8917 47.243C30.3426 46.656 30.7525 46.0299 31.2034 45.4037C30.9575 46.382 29.4818 48.3387 28.457 48.9648ZM28.334 48.1039L27.5551 48.6908C27.5551 48.6908 27.5142 48.6908 27.5142 48.6517C27.5551 48.6126 27.5551 48.5343 27.6371 48.4952C28.293 47.7908 28.9079 47.0864 29.4818 46.3038C29.5637 46.1864 29.6867 46.1081 29.7687 46.0299C29.7277 46.1081 29.7277 46.2255 29.6867 46.3429H29.7277C29.7687 46.3429 29.7687 46.3429 29.8097 46.3429L29.6867 46.5386C29.6457 46.6168 29.6047 46.6951 29.5228 46.7734C29.3998 47.0473 29.1948 47.2821 28.9489 47.5169C28.8669 47.5951 28.7439 47.7125 28.6619 47.7908L28.334 48.143C28.375 48.0647 28.375 47.9865 28.375 47.9082C28.375 47.9865 28.375 48.0647 28.334 48.1039ZM29.5637 46.5386H29.6867C29.6867 46.4603 29.6867 46.382 29.7277 46.3429C29.6457 46.382 29.6047 46.4603 29.5637 46.5386ZM30.9575 46.7342C30.9985 46.656 31.0395 46.6168 31.1214 46.5386V46.4994L31.0805 46.5386C31.0395 46.5777 30.9985 46.656 30.9575 46.7342ZM30.9165 46.7734L30.9575 46.7342C30.9575 46.7342 30.9165 46.7342 30.9165 46.7734ZM28.9079 47.4386L28.8669 47.4777H28.9079V47.4386ZM28.539 47.7908H28.6619C28.6619 47.7517 28.7029 47.6734 28.7029 47.5951C28.6619 47.6734 28.6209 47.7517 28.539 47.7908ZM1.11536 51.8997C1.11536 51.978 1.07437 52.0562 1.03338 52.1345C0.951394 52.1345 0.910402 52.0953 0.787426 52.0953C0.86941 52.0171 0.910402 51.8997 0.992386 51.8606C1.07437 51.7823 1.11536 51.8214 1.15635 51.8997H1.11536ZM1.48429 52.6432C1.52528 52.3693 1.64826 52.2519 1.9352 52.0562C1.81222 52.3693 1.73024 52.5258 1.48429 52.6432Z" fill="#1A1A1A"/>
<path d="M53.1744 31.6292C52.9285 31.4336 52.8875 31.4336 52.6416 31.6292C52.6006 31.6683 52.5596 31.7075 52.4776 31.7466C51.7807 32.2945 51.1658 32.9206 50.51 33.5076C49.8131 34.1337 49.1162 34.7598 48.4604 35.425C47.8455 35.9729 47.2306 36.5599 46.6157 37.1468C45.9189 37.8121 45.222 38.5165 44.5661 39.1817L44.1972 39.4556C44.1152 39.5339 44.1152 39.5339 43.9103 39.3774H43.9513C43.9513 39.1426 43.9923 38.9078 44.1152 38.7121C44.1972 38.1643 44.3612 37.6556 44.6481 37.1468C44.6481 36.9512 44.7301 36.7555 44.8121 36.599L45.427 34.9946C45.468 34.8772 45.509 34.7598 45.6319 34.6815C45.6729 34.6424 45.6729 34.5641 45.7139 34.525C45.7549 34.3685 45.7959 34.2119 45.9189 34.0945H45.8779C45.9189 33.9771 45.9189 33.8989 46.0009 33.8206C46.0009 33.6641 46.0828 33.5076 46.1648 33.3902C46.2468 33.1554 46.3288 32.9597 46.4518 32.764V32.8032C46.4518 32.7249 46.4928 32.6858 46.5338 32.6466C46.5338 32.4119 46.6567 32.2162 46.8207 32.0205C46.8207 31.7466 46.9847 31.4727 47.1486 31.277C47.1896 31.1988 47.1896 31.1205 47.2306 31.0031C47.2716 30.964 47.3126 30.8857 47.3126 30.8466L47.1076 30.7292L47.1486 30.5726C47.2306 30.377 47.3126 30.2205 47.3536 30.0248V30.1813C47.4766 30.0639 47.5176 29.9465 47.5176 29.8291L47.3946 29.9857C47.4356 29.8683 47.4766 29.79 47.5586 29.6726C47.8455 29.203 48.0095 28.6552 48.2144 28.1073C48.3374 27.716 48.2554 27.4421 47.8865 27.2073C47.8045 27.129 47.7225 27.0899 47.5995 27.0116C47.3946 26.8942 47.2716 26.8942 47.0667 27.0507C46.9027 27.1681 46.7387 27.3247 46.6157 27.4812C45.9189 28.1073 45.345 28.89 44.6891 29.5552V29.5943L44.5252 29.5161C44.2382 29.9465 43.9103 30.3379 43.6233 30.7683C43.4184 31.0031 43.3774 31.0031 43.1314 30.9248C42.8855 30.8466 42.6395 30.7683 42.3936 30.7683C41.4918 30.7292 40.7539 31.0031 40.016 31.4727C39.3602 31.9031 38.7863 32.4901 38.2944 33.1162C38.1304 33.351 37.9664 33.625 37.8025 33.938C37.6795 34.2119 37.5975 34.4859 37.5565 34.8381C37.5155 34.9946 37.5155 35.1511 37.5975 35.2685C37.8025 35.699 38.0894 36.0512 38.5813 36.2077C38.8273 36.2859 39.0322 36.2859 39.2782 36.2468C39.6061 36.1685 39.9341 36.0511 40.221 35.8946C41.5327 35.1902 42.6395 34.2511 43.5823 33.1554C43.6233 33.1162 43.6233 33.0771 43.6643 33.0771C43.6233 33.0771 43.6233 33.0771 43.5823 33.0771L43.6643 32.9597C43.7053 32.9597 43.7463 32.9206 43.7463 32.8814C43.8283 32.8032 43.8693 32.7249 43.9103 32.6466H43.9513C43.9513 32.6075 43.9923 32.5684 44.0333 32.5684V32.6466C44.0742 32.6075 44.0742 32.5684 44.1152 32.5684V32.5293C44.1972 32.5293 44.3202 32.5293 44.3202 32.6466V33.1162C44.3202 33.2728 44.3202 33.3902 44.4842 33.4293C44.5252 33.4684 44.5661 33.5076 44.5252 33.5858C44.5252 33.6641 44.4842 33.7815 44.4432 33.8597C44.2792 34.2902 44.1152 34.6815 43.9923 35.112C43.5413 36.2859 43.0494 37.4599 42.7625 38.673C42.6805 38.9861 42.6395 39.26 42.6395 39.573C42.6395 39.9252 42.7625 40.16 43.0085 40.3557L43.2134 40.4731C43.5414 40.747 43.9103 40.747 44.2792 40.5905C44.4842 40.4731 44.6891 40.3557 44.8531 40.1992C45.55 39.6122 46.2468 38.9861 46.8617 38.2817C47.3126 37.8512 47.7225 37.4208 48.1324 36.9512C48.8293 36.2468 49.5262 35.5424 50.182 34.8381C50.305 34.7598 50.428 34.6815 50.469 34.525C50.264 34.6033 50.141 34.7598 50.0181 34.9163C49.8951 34.9946 49.8131 35.1511 49.6491 35.1902C49.6082 35.2294 49.6082 35.2685 49.5672 35.2685C49.5262 35.3076 49.5262 35.3468 49.4852 35.3468C49.4852 35.3076 49.5262 35.3076 49.5672 35.2685C49.5672 35.2294 49.6082 35.1902 49.6491 35.1902C49.6901 35.112 49.7311 35.0337 49.7721 34.9946C50.387 34.4076 51.0019 33.8597 51.5758 33.2728L51.8217 33.1554C51.8217 33.1162 51.8627 33.0771 51.9037 33.0771C51.9037 33.038 51.9447 32.9988 51.9857 32.9988L52.0677 32.8814C52.1087 32.8814 52.1497 32.8423 52.1497 32.8032V32.8814C52.3136 32.8423 52.3956 32.764 52.4776 32.6858L53.2154 32.0205C53.3794 31.864 53.3794 31.7857 53.1744 31.6292ZM46.7797 27.7943C46.7797 27.7551 46.8207 27.7551 46.8207 27.716C46.8617 27.6769 46.8617 27.6769 46.9027 27.716L46.8617 27.7551C46.8617 27.7551 46.8207 27.7943 46.7797 27.7943C46.7387 27.9117 46.6567 27.9899 46.5338 28.0291C46.6157 27.9508 46.6567 27.8725 46.7797 27.7943ZM45.7139 28.9682C45.7139 28.9291 45.7549 28.89 45.7959 28.8508C45.8369 28.6943 45.9599 28.5769 46.0828 28.4986C46.1648 28.3421 46.2878 28.2247 46.4518 28.1464C46.4928 28.1073 46.4928 28.0682 46.5338 28.0682C46.5338 28.0682 46.5338 28.1073 46.5338 28.1464H46.4518C46.4518 28.1856 46.4518 28.2247 46.4928 28.2638C46.4928 28.2638 46.5338 28.2247 46.5747 28.2247L46.4928 28.3421C46.4518 28.4595 46.3698 28.5378 46.2468 28.5769C46.2058 28.616 46.2058 28.6552 46.1648 28.6943V28.616C46.1238 28.6552 46.0828 28.6943 46.0828 28.7334C46.0419 28.8117 45.9599 28.89 45.8369 28.89L45.7549 29.0074C45.7139 29.1248 45.5909 29.1639 45.509 29.203L45.7139 28.9682ZM46.1648 28.616C46.2058 28.5769 46.2058 28.5769 46.2468 28.5769C46.2058 28.5769 46.2058 28.5769 46.1648 28.5378V28.616ZM44.4842 31.6292C44.4842 31.6292 44.4432 31.6683 44.4022 31.6292V31.5509C44.4842 31.4727 44.5252 31.3553 44.6071 31.277C44.6071 31.277 44.6481 31.277 44.6481 31.2379L44.8121 31.0814C44.8531 31.0422 44.8531 30.964 44.8941 30.8857L45.0171 30.7683V30.8074C45.058 30.7683 45.0581 30.7292 45.0581 30.7292L45.14 30.6118C45.222 30.5726 45.304 30.5335 45.345 30.4552C45.304 30.4552 45.304 30.4552 45.263 30.4944L45.386 30.377H45.427C45.263 30.6509 45.058 30.8857 44.8531 31.1205C44.7711 31.3162 44.6481 31.4727 44.4842 31.6292ZM45.345 30.4552C45.345 30.4161 45.386 30.4161 45.386 30.377C45.345 30.4161 45.345 30.4161 45.345 30.4552ZM44.8941 32.8032C44.8941 32.8423 44.8531 32.8814 44.8121 32.9206C44.6891 32.9206 44.7301 32.8423 44.7301 32.8032C44.6891 32.6466 44.6891 32.4901 44.6481 32.3336C44.5661 32.0597 44.5661 31.864 44.6891 31.6683L45.6319 30.4161C45.8779 30.5726 45.0171 32.5684 44.8941 32.8032ZM46.9027 31.1596C46.9027 31.0031 46.9437 30.8857 47.0667 30.7683C47.0667 30.9248 46.9847 31.0422 46.9027 31.1596ZM47.3536 30.8466H47.3126C47.3126 30.8857 47.3126 30.964 47.3536 31.0031V30.8466ZM39.6471 34.8772C39.4012 35.0728 39.1142 35.1902 38.8683 35.3076C38.7043 35.3468 38.5813 35.2685 38.6223 35.112C38.7043 34.7207 38.7863 34.2902 39.0322 33.938C39.2782 33.5467 39.5241 33.1945 39.8931 32.9206C39.9751 32.8032 40.098 32.6858 40.098 32.5293C39.9341 32.6075 39.8111 32.764 39.6881 32.8814C39.6061 32.9597 39.5241 33.0771 39.3602 33.1554C39.3192 33.3119 39.2372 33.4293 39.1142 33.4684C39.1552 33.351 39.2372 33.1945 39.3602 33.1554C39.6471 32.6466 40.057 32.2945 40.5079 32.0205C40.5899 31.9423 40.6719 31.9031 40.7949 31.864C40.7539 31.9814 40.6719 32.0205 40.5489 32.0597C40.467 32.2162 40.262 32.2945 40.18 32.451C40.344 32.451 40.467 32.3336 40.5899 32.2553C40.9179 32.0205 41.2868 31.7857 41.6557 31.6292C41.9837 31.4727 42.3526 31.3944 42.6805 31.3944H42.8855C42.9675 31.4335 43.0085 31.5118 42.9675 31.5509C42.8445 31.7075 42.7625 31.864 42.6395 31.9814L41.8607 32.9206C41.2048 33.625 40.467 34.2902 39.6471 34.8772ZM46.7797 31.5118L46.7387 31.5509C46.6977 31.5509 46.6977 31.5118 46.6977 31.4727C46.7387 31.4335 46.7797 31.4335 46.7797 31.3944V31.5118ZM39.4832 32.3727H39.5651C39.5241 32.3336 39.4832 32.3336 39.4832 32.2945C39.6061 32.0597 39.8111 31.864 40.057 31.7857L40.18 31.7075C40.221 31.6292 40.303 31.6292 40.344 31.6292C40.303 31.6683 40.262 31.7075 40.18 31.7075C40.139 31.7466 40.139 31.7857 40.098 31.7857C40.016 32.0597 39.7701 32.2162 39.5651 32.3727C39.5241 32.4119 39.4832 32.451 39.4832 32.451V32.3727ZM43.5823 31.7075C43.5413 31.7075 43.5004 31.7466 43.5004 31.7857H43.4184C43.4184 31.6292 43.4594 31.6292 43.5823 31.7075ZM52.2726 32.1771C52.3956 32.0597 52.5186 31.9031 52.7235 31.7857C52.5596 32.0597 52.5596 32.0597 52.2726 32.1771ZM41.5327 34.0163C41.4098 34.0554 41.2868 34.1728 41.1638 34.1728C41.4098 33.8206 41.7377 33.5858 42.0246 33.2728C42.1886 33.0771 42.3526 32.8814 42.5575 32.6858C42.5985 32.6858 42.6395 32.6466 42.6395 32.6075C42.7215 32.4901 42.8035 32.3727 42.9265 32.2945C42.9675 32.2553 43.0085 32.2162 43.0494 32.2162C43.0904 32.0597 43.1724 31.9423 43.2954 31.864C43.2954 31.9423 43.2954 31.9814 43.2954 32.0597H43.4184C43.3774 32.0597 43.3364 32.0988 43.2954 32.0988V32.0597C43.2544 32.0597 43.2544 32.0988 43.2134 32.1379H43.2954C43.2954 32.2162 43.2134 32.2945 43.1314 32.3727C43.1314 32.3336 43.1314 32.2553 43.1314 32.2162H43.0494C43.0085 32.2553 43.0085 32.2945 42.9675 32.2945C42.9675 32.3727 42.9675 32.4119 42.9675 32.451H43.0494C43.0085 32.4901 42.9675 32.5293 42.9675 32.5293V32.451C42.9265 32.4901 42.8855 32.5293 42.8445 32.5293C42.8445 32.5684 42.8035 32.6075 42.7625 32.6466C42.8035 32.6466 42.8445 32.6466 42.8445 32.6466V32.5684C42.8855 32.5684 42.9265 32.5684 42.9265 32.5684L42.8445 32.6466C42.8445 32.7249 42.7625 32.8423 42.6805 32.8814C42.6395 32.9206 42.6395 32.9597 42.5985 32.9597V32.8814C42.5575 32.9206 42.5166 32.9597 42.5166 32.9988C42.5166 32.9988 42.5575 32.9988 42.5985 32.9988L42.5166 33.0771C42.4756 33.1162 42.4756 33.1554 42.4346 33.1554V33.0771C42.3936 33.0771 42.3526 33.1162 42.3116 33.1554H42.3936C42.3526 33.351 42.2296 33.4684 42.0656 33.5858C42.0246 33.5858 41.9837 33.625 41.9837 33.6641V33.5858C41.9427 33.5858 41.9017 33.625 41.8607 33.6641H41.9427C41.9427 33.7032 41.9017 33.7032 41.9017 33.7423C41.8607 33.7032 41.8607 33.7032 41.8607 33.6641C41.8607 33.7032 41.8197 33.7032 41.7787 33.7423H41.8607C41.8607 33.7815 41.8197 33.7815 41.7787 33.8206C41.7377 33.8597 41.7377 33.8989 41.6967 33.8989V33.8206C41.6557 33.8597 41.6147 33.8989 41.6147 33.938H41.6967C41.6557 33.938 41.6557 33.9771 41.6147 33.9771V33.938C41.5737 33.938 41.5327 33.9771 41.5327 34.0163ZM43.9923 32.2945C43.4594 32.9206 42.9265 33.5467 42.3526 34.0945C42.2296 34.2119 42.1476 34.2902 41.9837 34.3685L41.9017 34.4467C41.8607 34.525 41.7787 34.5641 41.6967 34.6033C41.7377 34.4859 41.7787 34.4467 41.8607 34.4076C41.9017 34.3685 41.9427 34.3685 41.9427 34.3293L42.1476 34.0945C42.7215 33.5076 43.2954 32.9206 43.7873 32.2945L43.9513 32.1379C43.9513 32.0988 44.0333 32.0988 44.0333 32.0988C44.0742 32.1379 44.0742 32.1771 44.0333 32.2162C44.0333 32.2553 44.0333 32.2553 43.9923 32.2945ZM46.3698 32.3727C46.3698 32.2945 46.3698 32.2162 46.4518 32.1379C46.4108 32.2162 46.4108 32.2945 46.3698 32.3727ZM39.4422 32.2945C39.4422 32.3336 39.4422 32.3336 39.4422 32.3727H39.4012C39.4012 32.3336 39.4422 32.3336 39.4422 32.2945ZM39.3602 32.3727C39.3602 32.4119 39.3602 32.451 39.3602 32.451H39.4422C39.4422 32.4901 39.4012 32.5293 39.3602 32.5293C39.3602 32.5293 39.3602 32.4901 39.3602 32.451H39.2782C39.3192 32.451 39.3602 32.4119 39.3602 32.3727ZM39.2782 32.4901V32.5293H39.1962C39.2372 32.5293 39.2372 32.4901 39.2782 32.4901ZM39.1142 32.6466C39.1552 32.6075 39.1552 32.5684 39.1962 32.5684C39.1962 32.5684 39.1962 32.6075 39.1962 32.6466H39.2782C39.2782 32.6075 39.2782 32.5684 39.2782 32.5684H39.3602C39.3192 32.5684 39.3192 32.6075 39.2782 32.6466L39.1962 32.7249C39.1962 32.6858 39.1962 32.6858 39.1962 32.6466H39.1142C39.1142 32.6858 39.1142 32.6858 39.1142 32.7249H39.0322C39.0322 32.6858 39.0732 32.6466 39.1142 32.6466ZM42.6805 32.7249C42.7215 32.6858 42.7625 32.6858 42.7625 32.6466H42.7215C42.6805 32.6858 42.6805 32.6858 42.6805 32.7249ZM42.6395 32.764C42.5985 32.8032 42.5985 32.8423 42.5985 32.8814H42.6805C42.6805 32.8423 42.6805 32.764 42.6805 32.7249L42.6395 32.764ZM52.0677 32.9597C52.1087 32.9597 52.1087 32.9206 52.1497 32.8814C52.1087 32.8814 52.1087 32.8814 52.0677 32.8814V32.9597ZM51.0839 33.3902C50.9609 33.5076 50.8379 33.5858 50.6739 33.625C50.9199 33.351 51.1658 33.0771 51.5348 32.9206L51.0839 33.3902ZM42.4346 33.0771C42.4346 33.0771 42.4756 33.0771 42.5166 33.0771V32.9988C42.4756 32.9988 42.4346 33.038 42.4346 33.0771ZM43.6643 33.038C43.7053 33.038 43.7463 32.9988 43.7463 32.9988C43.7463 32.9988 43.7053 32.9988 43.6643 32.9988V33.038ZM52.0677 32.9988C52.0267 32.9988 52.0267 32.9988 51.9857 32.9988V33.038C52.0267 33.038 52.0267 32.9988 52.0677 32.9988ZM51.9857 33.0771C51.9447 33.0771 51.9037 33.0771 51.9037 33.0771V33.1554C51.9037 33.1162 51.9447 33.0771 51.9857 33.0771ZM45.7959 33.5467C45.8369 33.3902 45.8779 33.2728 46.0009 33.1554C45.9599 33.3119 45.9189 33.4293 45.7959 33.5467ZM51.4528 33.5467C51.6577 33.4684 51.7807 33.351 51.9037 33.1554C51.8627 33.1554 51.8217 33.1554 51.8217 33.1554L51.4528 33.5467ZM46.2058 33.3902H46.1648V33.4293C46.1648 33.4293 46.1648 33.3902 46.2058 33.3902ZM39.1142 33.5076C39.0732 33.5858 39.0322 33.6641 38.9093 33.7032C38.9912 33.625 39.0322 33.5467 39.1142 33.5076ZM51.3708 33.6641C51.3708 33.625 51.4118 33.625 51.4528 33.5858C51.4118 33.5858 51.3708 33.625 51.3708 33.6641ZM51.3298 33.6641C51.0429 33.8989 50.7969 34.1337 50.551 34.4076C50.9199 34.2511 51.1658 33.9771 51.3298 33.6641ZM41.6967 33.8206C41.7377 33.8206 41.7377 33.8206 41.7787 33.8206V33.7423C41.7377 33.7815 41.7377 33.8206 41.6967 33.8206ZM49.3212 34.9163C49.5262 34.6424 49.8131 34.4076 50.1001 34.1728C49.9361 34.525 49.6491 34.7598 49.3212 34.9163ZM50.551 34.4467V34.4076C50.51 34.4467 50.469 34.4859 50.469 34.525C50.51 34.4859 50.51 34.4467 50.551 34.4467ZM41.3688 34.8381C41.4098 34.7598 41.4918 34.7207 41.5737 34.7207C41.5327 34.7598 41.4508 34.8381 41.3688 34.8381ZM49.1162 35.112C48.9933 35.3859 48.7883 35.5816 48.5014 35.699C48.6653 35.4642 48.8703 35.2685 49.1162 35.112ZM45.099 35.2685V35.2294C45.14 35.2294 45.14 35.2685 45.099 35.2685ZM49.3212 35.5424L49.2392 35.6207C49.1982 35.6598 49.1572 35.699 49.1162 35.7381L49.0343 35.8164C49.0343 35.8555 48.9933 35.8555 48.9523 35.8946C48.6653 36.3251 48.2964 36.6773 47.8865 36.9903C47.8865 36.9512 47.8865 36.9121 47.9275 36.8729C48.2144 36.5207 48.5424 36.1685 48.9523 35.8555L49.0343 35.7772C49.0343 35.7381 49.0753 35.7381 49.1162 35.699C49.1572 35.6598 49.1572 35.6207 49.1982 35.6207L49.2802 35.5424C49.3212 35.5033 49.3212 35.4642 49.4032 35.4642C49.3622 35.5033 49.3622 35.5424 49.3212 35.5424ZM48.3784 35.8164C48.3784 35.8555 48.3784 35.8555 48.3374 35.8555L48.3784 35.8164ZM47.7635 36.4816C47.4356 36.8338 47.1076 37.2251 46.7387 37.499C46.7797 37.4208 46.7797 37.3425 46.8617 37.3034C47.1896 36.9512 47.4766 36.599 47.8455 36.3251C47.8455 36.4033 47.8045 36.4425 47.7635 36.4816ZM44.6481 36.4033C44.6481 36.5599 44.5661 36.6773 44.4842 36.7947C44.5252 36.6381 44.5252 36.5207 44.6481 36.4033ZM47.8045 37.0686C47.8045 37.0295 47.8045 37.0295 47.8455 36.9903C47.8455 37.0295 47.8045 37.0295 47.8045 37.0686ZM47.6815 37.1468L47.7635 37.0686C47.7635 37.1077 47.7225 37.1468 47.6815 37.1468ZM47.5995 37.2642C47.3946 37.5773 47.1486 37.8512 46.8207 38.086C46.9847 37.8121 47.2716 37.4599 47.5995 37.2642C47.6405 37.2251 47.6405 37.186 47.6815 37.186C47.6815 37.2251 47.6405 37.2251 47.5995 37.2642Z" fill="#1A1A1A"/>
<path d="M69.9481 0.127802C69.9072 0.0495389 69.8662 -0.0287245 69.7432 0.0104096C69.5382 0.284334 69.2923 0.558258 69.0463 0.871316C68.9643 0.949579 68.9233 1.06698 68.8414 1.14524C67.8986 2.554 66.9967 3.96276 66.1359 5.41065C65.726 6.15416 65.2751 6.85854 64.9061 7.64118L64.4142 8.50209C64.1683 8.97168 63.8813 9.40213 63.6354 9.87172C63.1025 10.8109 62.6516 11.7501 62.1187 12.6501L60.397 15.6242C60.1101 16.2111 59.7822 16.7981 59.4542 17.3851C59.2083 17.8547 58.9623 18.3243 58.7164 18.7939L57.7735 20.4374C57.5686 20.8287 57.4046 21.2201 57.1997 21.6114C56.7488 22.4331 56.2978 23.2549 55.8879 24.0767C55.355 25.1333 54.8221 26.1898 54.3302 27.2464C54.1253 27.6377 54.0023 28.0682 53.7973 28.4204C53.5514 28.89 53.3874 29.3595 53.1825 29.8291C52.9365 30.4944 52.6496 31.1596 52.4036 31.8249C52.2806 32.1379 52.1986 32.4901 52.0347 32.8032C51.8707 33.1554 51.7887 33.5076 51.6248 33.8597C51.5838 34.0554 51.5018 34.2511 51.4608 34.4859L50.7229 36.9512C50.436 37.9295 50.231 38.9078 50.1491 39.9644C50.0671 40.4731 50.0261 41.0209 50.1491 41.5688C50.354 42.3123 51.2148 42.821 51.9937 42.6254C52.1986 42.5471 52.4446 42.4688 52.6496 42.3514C52.8955 42.1949 53.1415 42.0384 53.3464 41.8818C54.3302 41.1383 55.1911 40.3166 56.0929 39.5339C56.5848 39.1035 57.0357 38.6339 57.5276 38.1643L58.7574 36.9512C60.2741 35.4642 61.8317 34.0163 63.4304 32.6075C63.7584 32.3727 64.0453 32.0988 64.3323 31.864C64.4962 31.7466 64.5372 31.5901 64.4142 31.4727C64.1273 31.2379 63.8813 31.3162 63.6764 31.5118C63.5944 31.5509 63.5534 31.5901 63.5124 31.6292C62.8565 32.1379 62.2007 32.6858 61.5448 33.2336L59.3312 35.1511C58.8393 35.5816 58.3474 36.0511 57.8965 36.4816C57.3226 37.0295 56.7488 37.6164 56.1339 38.1252C55.355 38.8687 54.5762 39.573 53.7973 40.2774C53.3464 40.6687 52.8955 41.0601 52.4446 41.4123C52.2396 41.5688 51.9937 41.6862 51.7887 41.8427C51.7067 41.8818 51.6248 41.8818 51.5428 41.8818C51.4198 41.8036 51.3788 41.6471 51.3788 41.5297C51.3378 41.1383 51.3378 40.7861 51.4198 40.3948L51.5428 39.4948C51.6248 38.9078 51.8297 38.2817 51.9937 37.6947C52.0347 37.5773 52.0757 37.4599 52.1577 37.3816C52.1577 37.3034 52.1986 37.2251 52.2396 37.1077V37.1468C52.2396 37.0295 52.2806 36.9121 52.3216 36.7947C52.3626 36.7164 52.3626 36.599 52.4036 36.5207C52.4856 36.0511 52.6496 35.5816 52.8545 35.1511C52.8545 35.0337 52.8955 34.9163 53.0185 34.7989L53.1005 34.6815C53.0185 34.5641 53.0595 34.4859 53.1005 34.4076C53.2644 34.0163 53.3874 33.625 53.5514 33.1945V33.2336H53.6744C53.6334 33.2336 53.5924 33.1945 53.5514 33.1945C53.5924 32.9988 53.5924 32.8814 53.7563 32.764C53.7973 32.3727 53.9613 32.0205 54.1663 31.6683C54.2073 31.4336 54.2892 31.1988 54.4532 31.0031L54.5352 30.8074C54.6172 30.69 54.6582 30.5726 54.7401 30.4161H54.8221C54.7811 30.377 54.7401 30.377 54.7401 30.377L54.6992 30.4161C54.7401 30.3379 54.7811 30.2987 54.8221 30.2205L54.9451 29.9074C54.9861 29.8683 55.0271 29.8683 55.0681 29.8291H55.1091C55.1091 29.7509 55.1501 29.6726 55.1501 29.5943C55.1501 29.6726 55.1091 29.7509 55.0681 29.79C55.0271 29.7509 54.9861 29.6726 55.0271 29.5943C55.1091 29.2813 55.273 29.0074 55.519 28.7726C55.56 28.7334 55.601 28.6552 55.601 28.616H55.519C55.56 28.5378 55.601 28.4986 55.601 28.4204C55.642 28.3421 55.642 28.2247 55.683 28.1464C56.0109 27.5203 56.2978 26.8942 56.5848 26.229C56.6258 26.1507 56.7078 26.0333 56.7897 25.955C56.7897 25.9159 56.8307 25.8376 56.8717 25.7985L56.9537 25.6029C56.9947 25.5637 57.0357 25.4855 57.0357 25.4463C57.0767 25.4072 57.1177 25.3289 57.1587 25.2507H57.1177C57.2407 24.9376 57.3636 24.6246 57.5686 24.3115V24.3506H57.6916C57.6506 24.3506 57.6096 24.3115 57.6096 24.3115C57.6096 24.2724 57.6506 24.2332 57.6916 24.155H57.6506L57.8555 23.8028V23.8419H57.9375C57.8965 23.8028 57.8965 23.8028 57.8555 23.8028C57.8965 23.7636 57.8965 23.7245 57.9375 23.6462C57.9785 23.5289 58.0605 23.4115 58.1015 23.2941L58.2245 23.1375C58.2654 23.0201 58.3474 22.9027 58.3884 22.7853C58.4294 22.7462 58.4294 22.6679 58.4704 22.6288C58.5524 22.3158 58.7574 22.0418 58.8803 21.7679L60.2331 19.1852C60.315 19.0678 60.438 18.9113 60.52 18.7939L60.643 18.5982H60.602L60.725 18.4417C60.725 18.4025 60.766 18.3243 60.8069 18.2851L60.8889 18.0895C61.1349 17.4634 61.4628 16.8764 61.8727 16.3285C61.8727 16.1329 61.9957 15.9372 62.1187 15.7807L62.2417 15.6242C62.2417 15.585 62.2827 15.5068 62.3237 15.4676C62.5696 14.998 62.8156 14.5284 63.0205 14.098L63.1025 14.0197C63.1435 13.7458 63.3075 13.511 63.4714 13.3154C63.5124 13.2762 63.5534 13.198 63.5944 13.1588V13.0414C63.8404 12.611 64.0453 12.1805 64.2503 11.7892C64.3323 11.6718 64.4142 11.6327 64.4962 11.5153C64.5372 11.4761 64.5372 11.3979 64.5782 11.3587C64.6192 11.0848 64.7422 10.8892 64.9061 10.6544C64.9471 10.6152 64.9881 10.5761 65.0291 10.4978C65.1521 10.0674 65.3571 9.67606 65.644 9.28473V9.32387C65.644 9.2456 65.685 9.20647 65.726 9.12821C65.767 9.08907 65.767 9.01081 65.808 8.97168C65.849 8.89341 65.8899 8.85428 65.8899 8.77602C66.2999 7.87598 66.7918 7.01507 67.2837 6.11503L67.6526 5.41065C67.8166 5.09759 67.9805 4.82367 68.1035 4.51061L68.7184 3.33664C68.9643 2.86706 69.2103 2.39747 69.4153 1.92788C69.6202 1.49743 69.8252 1.06698 69.9481 0.636521C69.9891 0.479994 69.9891 0.284334 69.9481 0.127802ZM63.9223 11.8675C63.9223 11.7501 64.0043 11.6718 64.0863 11.5544C64.0863 11.7109 64.0453 11.7892 63.9223 11.8675ZM63.6764 12.3762C63.7174 12.2588 63.7994 12.1805 63.8404 12.0631C63.7994 12.1805 63.7994 12.2979 63.6764 12.3762ZM63.1435 13.2762C63.1845 13.1588 63.2255 13.0023 63.3894 12.8849C63.3484 13.0806 63.3075 13.198 63.1435 13.2762ZM63.1435 13.9806L63.1025 14.0197H63.1435V13.9806ZM63.2255 14.0197C63.1845 14.0197 63.1845 14.0197 63.1435 14.0197V14.1371C63.1435 14.098 63.1845 14.0589 63.2255 14.0197ZM63.1435 14.1763V14.1371L63.1025 14.1763H63.1435ZM62.4876 14.5676C62.4876 14.6458 62.4056 14.7632 62.3237 14.8415C62.3237 14.7241 62.3646 14.6458 62.4876 14.5676ZM62.0777 15.3894C61.1349 17.1503 60.1921 18.9113 59.2493 20.6722L57.6506 23.7245C57.1177 24.7419 56.6258 25.7985 56.0929 26.8551C55.1911 28.7334 54.3302 30.6509 53.5924 32.5684C52.9775 34.0554 52.4856 35.5424 51.9937 37.0686C51.9117 37.2642 51.9117 37.4599 51.7477 37.6556C51.7887 37.8512 51.7477 38.0469 51.5838 38.2425V38.4773C51.5018 38.3599 51.5428 38.2817 51.5838 38.2425C51.5838 38.0469 51.6658 37.8512 51.7477 37.6556L51.8297 37.2251C52.1987 35.9729 52.6086 34.7598 53.0595 33.5467C53.5924 32.0205 54.2073 30.5335 54.8631 29.0856C55.437 27.8334 56.0109 26.6203 56.6258 25.4072C57.3226 23.9984 58.0605 22.6288 58.7574 21.2592C59.3722 20.0852 60.0281 18.9113 60.684 17.6982C61.0939 16.9546 61.5448 16.172 61.9547 15.3894C62.0367 15.272 62.0777 15.1154 62.2417 15.0372C62.2007 15.1546 62.1597 15.272 62.0777 15.3894ZM62.3237 15.6242C62.2827 15.6242 62.2827 15.6242 62.2417 15.6242V15.7807C62.2827 15.7415 62.2827 15.6633 62.3237 15.6242ZM59.9051 17.5808C59.8641 17.6199 59.8641 17.6982 59.8231 17.7373C59.8231 17.6982 59.8641 17.6199 59.9051 17.5808ZM60.8889 18.2851C60.8479 18.2851 60.8479 18.2851 60.8069 18.2851V18.4417C60.8479 18.3634 60.8479 18.3243 60.8889 18.2851ZM60.725 18.5982C60.725 18.5591 60.766 18.4808 60.8069 18.4417C60.766 18.4417 60.725 18.4417 60.725 18.4417V18.5982ZM60.643 18.6373V18.7939C60.643 18.7156 60.684 18.6765 60.725 18.6373H60.643ZM60.643 18.7939C60.602 18.7939 60.561 18.7939 60.52 18.7939V18.9504C60.561 18.8721 60.602 18.833 60.643 18.7939ZM57.2407 22.6288C57.1997 22.7853 57.1587 22.8636 57.0357 22.9419C57.0357 22.7853 57.1177 22.7071 57.2407 22.6288ZM58.2245 23.2941H58.1015C58.1425 23.2941 58.1835 23.3332 58.2245 23.3332V23.2941ZM56.2568 24.5072C56.2978 24.3898 56.3798 24.2724 56.4208 24.155V24.4289C56.3388 24.468 56.2978 24.468 56.2568 24.5072C56.2159 24.6637 56.1749 24.7811 56.1339 24.9376V24.9767L56.1749 24.9376V25.0941H56.1339V24.9767C56.0929 25.0159 56.0929 25.055 56.0519 25.0941L55.8059 25.4463C55.8879 25.0941 56.0109 24.7811 56.2568 24.5072ZM57.0357 25.4463V25.6029C57.0767 25.5637 57.1177 25.4855 57.1587 25.4463V25.2507C57.1177 25.3289 57.1177 25.4072 57.1177 25.4463H57.0357ZM56.9537 25.7985C56.9947 25.7203 57.0357 25.6811 57.0357 25.6029C57.0357 25.6029 56.9947 25.6029 56.9537 25.6029V25.7985ZM56.8717 25.955C56.9127 25.8768 56.9127 25.8376 56.9537 25.7985C56.9127 25.7985 56.9127 25.7985 56.8717 25.7985V25.955ZM55.519 26.229C55.437 26.3072 55.355 26.3855 55.273 26.5029C55.273 26.2681 55.355 26.1116 55.519 25.955V26.229ZM55.0681 26.8942C55.0681 26.9725 55.0681 27.0899 55.0681 27.1681L54.8221 27.5203C54.7811 27.6377 54.6992 27.716 54.6172 27.8334C54.6992 27.4812 54.8221 27.1681 55.0681 26.8942ZM55.7239 28.4595C55.683 28.4204 55.642 28.4204 55.601 28.4204V28.616C55.642 28.5378 55.683 28.4986 55.7239 28.4595ZM54.0843 29.0465C54.0843 28.8508 54.1663 28.7334 54.2892 28.616C54.2482 28.7726 54.2482 28.9291 54.0843 29.0465C54.0843 29.1248 54.0843 29.203 54.0843 29.2813L53.9203 29.4378C53.9203 29.2813 53.9613 29.1248 54.0843 29.0465ZM53.8383 29.6335C53.7973 29.7117 53.7973 29.79 53.7563 29.8683C53.7563 29.8683 53.7154 29.8683 53.7154 29.8291C53.7563 29.79 53.7973 29.7117 53.8383 29.6335ZM54.6582 30.8466C54.6172 30.8466 54.5762 30.8074 54.5352 30.8074V31.0031C54.5762 30.9248 54.6172 30.8857 54.6582 30.8466ZM53.3054 30.9248C53.2644 31.0814 53.2234 31.1988 53.1005 31.3162C53.1825 31.1988 53.2234 31.0422 53.3054 30.9248ZM52.8135 32.0205C52.8955 32.1379 52.7725 32.1771 52.7315 32.2553C52.7725 32.1771 52.7725 32.0988 52.8135 32.0205ZM53.2234 34.4467C53.1825 34.4076 53.1415 34.4076 53.1005 34.4076C53.1005 34.4859 53.1005 34.5641 53.1005 34.6815L53.2234 34.4467Z" fill="#1A1A1A"/>
<path d="M76.4687 31.3162C76.3048 31.1205 76.0998 31.1205 75.8539 31.1596C75.6489 31.2379 75.4849 31.3162 75.28 31.4335C74.952 31.5901 74.6241 31.7466 74.3372 31.9031C73.1484 32.5293 72.0006 33.2336 70.8529 33.938C69.3771 34.8381 67.9424 35.7772 66.4667 36.7164C65.5239 37.3034 64.5811 37.9295 63.5973 38.5165C63.0644 38.8687 62.4905 39.1817 61.8756 39.4556C61.6297 39.573 61.3427 39.6904 61.0558 39.7296C60.8918 39.7687 60.7688 39.7296 60.7278 39.5339C60.6869 39.2991 60.6869 39.0252 60.7278 38.7904C60.7688 38.3599 60.8508 37.9686 60.9738 37.5773C61.0558 37.2251 61.0968 36.9121 61.3017 36.599V36.4816C61.3427 36.4033 61.3427 36.3251 61.3837 36.2468C61.7117 35.5033 62.1626 34.7598 62.6135 34.0163C62.6955 33.8597 62.8184 33.7032 62.9414 33.5858C63.1054 33.3902 63.2693 33.2728 63.4743 33.2728C64.2532 33.1554 64.868 32.764 65.5239 32.3727C66.1798 31.9423 66.7537 31.3944 67.2866 30.8466C67.9834 30.1422 67.9424 29.6726 67.3685 29.1248C66.9996 28.7726 66.5897 28.7334 66.0978 28.89C65.8108 29.0074 65.4829 29.1639 65.196 29.3204C64.6221 29.7509 64.0482 30.1813 63.5563 30.69C63.3923 30.9248 63.1874 31.1205 62.9414 31.277C62.5725 31.5118 62.2855 31.8249 62.1216 32.2162C62.0806 32.3727 61.9986 32.4901 61.9166 32.6075C61.3427 33.3902 60.8098 34.1728 60.3999 34.9946C59.908 35.9729 59.4981 36.9512 59.3341 38.0078C59.1702 38.9078 59.3751 39.6513 59.99 40.2774C60.4409 40.7079 60.9738 40.8644 61.6297 40.8253C62.1626 40.7861 62.6545 40.6296 63.1464 40.3948C64.0072 39.9644 64.868 39.4948 65.6879 38.9469C66.1798 38.6339 66.6717 38.3208 67.1636 37.9686H67.2046C67.5325 37.6947 67.8604 37.4208 68.1884 37.186C68.8852 36.6381 69.6231 36.1685 70.32 35.6598C71.0988 35.1511 71.9596 34.7207 72.6975 34.1728C73.1074 33.938 73.5583 33.7032 73.9682 33.4293C74.8701 32.8423 75.8129 32.2945 76.8377 31.9423C76.8787 31.6292 76.6327 31.4727 76.4687 31.3162ZM65.032 29.9465L65.155 29.8291C65.3599 29.5943 65.6059 29.4769 65.8928 29.3595C65.8928 29.3595 65.8928 29.3987 65.9338 29.4378C65.8928 29.4769 65.8928 29.5161 65.8928 29.5552C65.8108 29.6335 65.6879 29.6726 65.5649 29.7509C65.4829 29.8291 65.3599 29.9074 65.237 29.9465L65.114 30.0248C65.073 30.0639 65.032 30.1031 65.032 30.1422V30.0248C64.991 30.0248 64.95 30.0248 64.909 30.0248L65.032 29.9465ZM66.4257 29.8291C65.8928 30.1813 65.4419 30.5335 64.909 30.8857C65.278 30.377 65.8928 29.9465 66.4257 29.8291ZM65.114 30.0248C65.114 29.9857 65.155 29.9857 65.155 29.9465C65.155 29.9465 65.196 29.9465 65.237 29.9465L65.155 29.8291C65.155 29.8683 65.155 29.9074 65.114 29.9465H65.032C65.032 29.9857 65.032 29.9857 65.032 30.0248H65.114ZM64.909 30.0639C64.909 30.0639 64.909 30.1031 64.909 30.1422H64.786C64.827 30.1031 64.868 30.0639 64.909 30.0639ZM65.114 31.0422V31.0031C65.155 31.0031 65.196 30.964 65.196 30.9248H65.237C65.4829 30.5726 65.8928 30.3379 66.3027 30.1813C66.3437 30.1422 66.3847 30.1422 66.4257 30.1813C66.4667 30.2205 66.4667 30.2987 66.4257 30.3379C66.1388 30.6118 65.8928 30.8857 65.6059 31.1205C65.4419 31.277 65.237 31.3944 65.032 31.5509C64.827 31.7466 64.5811 31.864 64.2941 31.9031C64.4991 31.5509 64.786 31.277 65.114 31.0422ZM65.155 31.0031H65.114C65.114 31.0031 65.155 31.0422 65.196 31.0422L65.155 31.0031ZM66.3847 31.5118C66.3847 31.4727 66.4257 31.4335 66.4667 31.4335C66.4667 31.4727 66.4257 31.4727 66.3847 31.5118ZM65.3599 31.7857C65.237 31.9031 65.073 32.0205 64.868 31.9814C65.073 31.7857 65.3189 31.6683 65.5239 31.5118C65.5239 31.6292 65.4829 31.7466 65.3599 31.7857ZM66.1388 31.7075C66.0158 31.9031 65.8108 32.0597 65.5649 32.0988C65.5649 32.1379 65.5239 32.1771 65.4829 32.1771C65.5239 32.1771 65.5239 32.1379 65.5649 32.0988C65.7289 31.9031 65.9338 31.7857 66.1388 31.6683C66.1388 31.6683 66.1798 31.6292 66.2208 31.6292C66.2208 31.6683 66.1798 31.6683 66.1388 31.7075ZM75.321 31.7075C75.362 31.7075 75.403 31.7075 75.403 31.7466L75.362 31.7857H75.28C75.28 31.7857 75.321 31.7466 75.321 31.7075ZM75.239 31.8249C75.198 31.864 75.116 31.9031 75.075 31.9031C75.116 31.8249 75.198 31.8249 75.239 31.8249ZM75.034 31.9031C74.993 31.9814 74.911 31.9814 74.8291 31.9814L75.034 31.9031ZM65.7699 37.6556C65.8928 37.5382 66.0568 37.4208 66.2208 37.3425C66.3437 37.2251 66.4667 37.1469 66.6307 37.0686C66.8356 36.9121 66.9996 36.7555 67.2046 36.6773C67.4915 36.4425 67.8194 36.2468 68.1064 36.0903C68.2294 35.9338 68.3933 35.8555 68.5573 35.7772C68.6803 35.6598 68.8442 35.5424 69.0082 35.5033C69.1312 35.3859 69.2952 35.2685 69.4591 35.2294C69.7051 34.9946 69.951 34.8381 70.238 34.7207C70.3609 34.6033 70.5249 34.4859 70.6889 34.4467C70.8119 34.3293 70.8938 34.2511 71.0168 34.2511C71.2628 34.0163 71.5087 33.8597 71.7957 33.7423C71.9186 33.625 72.0006 33.5858 72.1646 33.5467C72.2466 33.4293 72.3696 33.3902 72.4925 33.351C72.7795 33.0771 73.1074 32.9206 73.4763 32.764C73.5583 32.6466 73.6813 32.6075 73.8453 32.5684C73.8862 32.451 74.0092 32.4119 74.1322 32.3727C74.2552 32.2553 74.3372 32.2162 74.5011 32.1771C74.5831 32.0597 74.7061 32.0205 74.7881 31.9814C74.7881 32.0205 74.7881 32.0597 74.8291 32.0988C74.7471 32.1771 74.6651 32.2162 74.5831 32.2945L74.5011 32.2162C74.5011 32.2553 74.5011 32.2553 74.4601 32.2945C74.4191 32.3727 74.3372 32.4119 74.2552 32.4901C74.1322 32.5684 74.0092 32.6075 73.9272 32.6858L73.5583 32.8814C73.4763 32.9597 73.3534 32.9988 73.2304 33.0771H73.2714C73.1484 33.1162 73.0254 33.1945 72.9025 33.2728H72.9434C72.8205 33.3119 72.6975 33.3902 72.5745 33.4684C72.5745 33.4293 72.5335 33.4293 72.4925 33.3902V33.4684C72.4105 33.5467 72.3286 33.5858 72.2466 33.6641L72.1646 33.5858C72.1646 33.625 72.1646 33.625 72.1236 33.6641C72.0826 33.7423 72.0006 33.7815 71.9186 33.8597L71.7957 33.9771C71.6727 34.0163 71.5907 34.0945 71.4677 34.1337H71.3447C71.3038 34.2119 71.2218 34.2902 71.1398 34.3293C71.0988 34.3293 71.0988 34.2902 71.0578 34.2511C71.0578 34.2902 71.0578 34.3293 71.0168 34.3685H71.1398C71.0988 34.3685 71.0578 34.4076 71.0168 34.4467C70.9348 34.4859 70.8938 34.525 70.8119 34.525C70.7709 34.525 70.7709 34.4859 70.7299 34.4859V34.525C70.7299 34.525 70.7709 34.525 70.8119 34.5641C70.7709 34.5641 70.7299 34.6033 70.6889 34.6424C70.6069 34.7207 70.4839 34.7989 70.3609 34.8381L70.238 34.9554C70.115 34.9946 70.033 35.0728 69.91 35.112L69.7871 35.2294C69.7051 35.2685 69.6641 35.3076 69.5821 35.3076C69.5411 35.3076 69.5411 35.2685 69.5001 35.2685V35.3076C69.5001 35.3076 69.5411 35.3076 69.5821 35.3468C69.5411 35.3468 69.5001 35.3859 69.4591 35.425L69.3362 35.5424C69.2542 35.5424 69.2132 35.5816 69.1312 35.6207L69.0082 35.7381C68.9262 35.8164 68.8033 35.8946 68.6803 35.9338C68.6393 35.9338 68.5983 35.9729 68.5573 36.012C68.4753 36.1294 68.3523 36.2077 68.2294 36.2077L68.1064 36.3251C68.0654 36.3251 68.0244 36.3642 68.0244 36.4033V36.3642H67.9834V36.4033C67.9014 36.5207 67.7785 36.5599 67.6555 36.599H67.6145V36.6381L67.5735 36.6773L67.5325 36.6381V36.7164C67.4505 36.7947 67.3275 36.8729 67.2046 36.9121C67.1636 36.9121 67.1226 36.9512 67.1226 36.9903C67.1226 36.9512 67.1226 36.9121 67.1226 36.9121L66.9996 36.9903C67.0406 36.9903 67.0406 36.9903 67.0816 36.9903L66.9586 37.1077C66.9176 37.1077 66.8356 37.1468 66.7537 37.186C66.7127 37.2251 66.7127 37.2642 66.6717 37.2642V37.186C66.6307 37.2251 66.5897 37.2642 66.5487 37.2642C66.5487 37.3034 66.5487 37.3034 66.5487 37.3034H66.6307C66.6307 37.3034 66.5897 37.3425 66.5487 37.3816V37.3034C66.5077 37.3425 66.4667 37.3425 66.4257 37.3816L66.2618 37.4208C66.2618 37.4599 66.2208 37.4599 66.2208 37.499C66.1798 37.499 66.1388 37.5382 66.0978 37.5773H66.2208C66.1798 37.6164 66.1388 37.6556 66.0978 37.6556V37.5773C66.0568 37.6164 66.0158 37.6556 65.9748 37.6947H65.8108C65.7699 37.773 65.6879 37.8121 65.6469 37.8904C65.5649 37.8904 65.4419 37.9295 65.3599 37.9686C65.4419 37.8121 65.6059 37.7338 65.7699 37.6556ZM75.8539 32.0988C75.8949 32.0205 75.9768 32.0205 76.0178 32.0205C75.9768 32.0205 75.8949 32.0597 75.8539 32.0988ZM75.5259 32.2945L75.28 32.4119C75.239 32.4901 75.157 32.5293 75.034 32.6075C74.3372 33.038 73.5993 33.4684 72.9025 33.8597C72.8205 33.938 72.7385 33.938 72.6565 33.9771C72.4105 34.2119 72.1646 34.3685 71.8776 34.4859C70.9758 35.112 70.115 35.699 69.1722 36.2468C68.7213 36.5599 68.3114 36.9121 67.8604 37.2251C67.2456 37.6164 66.6717 38.0469 66.0568 38.4382C65.8518 38.5556 65.6879 38.7121 65.4419 38.7513C65.3599 38.8687 65.237 38.9469 65.114 38.9469C65.032 39.0643 64.909 39.1035 64.786 39.1426C64.868 39.0643 64.991 38.9861 65.114 38.9469C65.196 38.8295 65.278 38.7513 65.4419 38.7513C65.5239 38.5947 65.7289 38.4773 65.8928 38.3599C66.8356 37.7338 67.7785 37.0686 68.7213 36.4033L69.1312 36.1685C69.7871 35.6598 70.5249 35.1902 71.2628 34.7207C71.4267 34.6033 71.6317 34.525 71.7957 34.4076C72.0416 34.2119 72.3286 34.0554 72.6155 33.938C73.3534 33.3902 74.1732 32.9597 74.993 32.4901C75.075 32.4119 75.198 32.4119 75.28 32.3727C75.362 32.2945 75.4439 32.2945 75.5259 32.2945C75.6079 32.1771 75.6899 32.0988 75.8129 32.0988C75.7719 32.2162 75.6489 32.2553 75.5259 32.2945ZM65.155 32.3727C65.237 32.2945 65.3189 32.2162 65.4419 32.2162C65.4009 32.3336 65.2779 32.3727 65.155 32.3727ZM71.7957 33.8597C71.8367 33.8597 71.8776 33.8597 71.9186 33.8597L71.8367 33.7815C71.8367 33.8206 71.8367 33.8206 71.7957 33.8597ZM70.238 34.8381C70.279 34.8381 70.32 34.8381 70.3609 34.8381L70.279 34.7598C70.279 34.7989 70.279 34.7989 70.238 34.8381ZM69.3362 35.425H69.4591C69.4591 35.3859 69.4591 35.3859 69.4591 35.3468L69.3362 35.425ZM69.0082 35.6207C69.0492 35.6207 69.0902 35.6207 69.1312 35.6207L69.0492 35.5424C69.0492 35.5816 69.0492 35.6207 69.0082 35.6207ZM68.5983 35.8555V35.8946C68.5983 35.8946 68.6393 35.8946 68.6803 35.9338C68.6393 35.8946 68.6393 35.8555 68.5983 35.8555ZM68.5573 35.9338V36.012C68.5983 35.9729 68.5983 35.9729 68.5573 35.9338ZM68.2294 36.2077C68.1884 36.2077 68.1884 36.1685 68.1474 36.1685C68.1884 36.2077 68.1884 36.2077 68.2294 36.2077ZM68.0244 36.2859C68.0654 36.2859 68.0654 36.2859 68.1064 36.3251V36.2468C68.0654 36.2468 68.0654 36.2859 68.0244 36.2859ZM67.1226 36.9121C67.1636 36.9121 67.1636 36.9121 67.2046 36.9121V36.7947C67.2046 36.8338 67.1636 36.8729 67.1226 36.9121ZM66.6717 37.186H66.7537C66.7537 37.186 66.7127 37.1469 66.7127 37.1077C66.7127 37.1469 66.6717 37.186 66.6717 37.186ZM65.3189 37.9686C65.2779 38.086 65.155 38.1643 65.032 38.1643C65.114 38.0469 65.196 38.0078 65.3189 37.9686ZM64.868 38.2817C64.786 38.3991 64.7041 38.4382 64.5811 38.4382C64.6631 38.3599 64.7451 38.2817 64.868 38.2817ZM64.4581 38.5556C64.4581 38.5165 64.4991 38.4773 64.5401 38.4773C64.4991 38.5165 64.4581 38.5165 64.4581 38.5556Z" fill="#1A1A1A"/>
<path d="M87.2176 31.2379C87.0536 30.964 86.8077 30.7292 86.5617 30.4944C86.1108 30.0639 85.6189 29.9074 85.045 29.9857C84.4301 30.0639 83.8153 30.2596 83.2824 30.4944C82.4215 30.8857 81.6017 31.277 80.8229 31.7075C80.208 32.0597 79.6341 32.3336 79.0602 32.7249C78.3223 33.2336 77.5845 33.6641 76.9286 34.2902L76.5187 34.6424C76.4777 34.6815 76.3957 34.7598 76.3137 34.6815C76.2318 34.6033 76.2318 34.5641 76.2318 34.4859C76.2318 34.4076 76.3137 34.3293 76.3137 34.2119C76.3137 33.4293 76.6827 32.6858 76.8056 31.864C76.8466 31.5509 76.8876 31.2379 76.7647 30.9248C76.6827 30.69 76.5187 30.5335 76.3137 30.4161C76.2318 30.377 76.1498 30.377 76.1088 30.4552L75.9858 30.69C75.7808 31.0814 75.6579 31.5118 75.5349 31.9423C75.2479 32.8814 74.879 33.7815 74.5511 34.7207C74.1822 35.8164 73.8952 36.8729 73.5263 37.9295C73.4443 38.1643 73.4853 38.3599 73.6903 38.5556C73.7722 38.6339 73.8952 38.7121 73.9362 38.8295C74.0592 39.1426 74.3051 39.2209 74.5921 39.3383C74.797 39.4165 74.961 39.3774 75.125 39.3383C75.2889 39.2991 75.2479 39.1426 75.2889 39.0643C75.2889 39.0643 75.3299 39.0643 75.3709 39.0252C75.3709 38.9861 75.4119 38.9469 75.4529 38.9078L75.5349 38.8295C75.7399 38.3599 76.0678 38.0078 76.4367 37.6556C76.5187 37.499 76.6417 37.3425 76.7647 37.2642C76.8056 37.3034 76.8056 37.3816 76.8056 37.4599C76.9286 37.3034 77.0516 37.186 77.1336 37.0686H76.9286C77.1336 36.7947 77.3385 36.5207 77.6665 36.3642C77.6665 36.3251 77.7075 36.3251 77.7075 36.2859C77.7485 36.2468 77.7895 36.2077 77.7895 36.1685C77.8304 36.1685 77.8714 36.1294 77.9124 36.0903C77.9534 35.9729 78.0354 35.9338 78.1584 35.8946C78.1994 35.8555 78.2404 35.8164 78.2404 35.7772L78.3223 35.699C78.3223 35.7381 78.3223 35.7381 78.3633 35.7772C78.3633 35.7381 78.3633 35.7381 78.3223 35.699H78.3633C78.4043 35.5033 78.5683 35.3859 78.7733 35.3076L78.8552 35.1902C78.9372 35.0728 79.0602 34.9554 79.2242 34.9163L79.3062 34.7989C79.3881 34.7598 79.4291 34.7207 79.5111 34.7207C79.5111 34.6815 79.5521 34.6424 79.5931 34.6033H79.5521C79.6341 34.525 79.7161 34.4467 79.839 34.4076L79.921 34.3293C80.003 34.2119 80.126 34.1728 80.208 34.0945C80.29 34.0163 80.4129 33.9771 80.4949 33.8989C80.5359 33.7815 80.6589 33.7423 80.7409 33.7032V33.7423C80.7409 33.7815 80.7819 33.7815 80.7819 33.8206C80.7819 33.7815 80.8228 33.7815 80.8638 33.7423V33.7032C80.9868 33.6641 81.1098 33.5858 81.2328 33.5467C81.2328 33.5467 81.2328 33.5467 81.2328 33.5076L81.3148 33.4293C81.4787 33.3119 81.7247 33.2336 81.7657 33.0771C81.8067 32.9597 81.9296 32.9597 82.0116 32.9206C82.1756 32.8423 82.3396 32.764 82.4625 32.6858C82.7495 32.4901 83.0364 32.2945 83.3643 32.1379C83.9792 31.864 84.5941 31.5509 85.25 31.3162C85.4549 31.2379 85.6599 31.1988 85.9059 31.1205C86.2338 31.0031 86.4797 31.0814 86.8077 31.3944C86.8487 31.4335 86.8487 31.4335 86.8896 31.4335C87.0126 31.4335 87.0536 31.5509 87.1356 31.4727C87.2176 31.3944 87.2586 31.3162 87.2176 31.2379ZM84.0612 30.69C84.1022 30.69 83.9792 30.7683 83.8153 30.7683C83.8563 30.7292 83.9382 30.69 84.0612 30.69ZM77.9534 34.2119C78.0354 34.0554 78.1584 33.9771 78.3223 33.938C78.3633 33.8206 78.4453 33.7423 78.5683 33.7423C78.6093 33.5858 78.7323 33.5467 78.8142 33.5076C78.8962 33.4293 79.0192 33.351 79.1012 33.3119C79.2242 33.1945 79.3881 33.0771 79.5521 32.9988C79.6751 32.8814 79.839 32.764 80.044 32.7249C80.249 32.5293 80.5359 32.3336 80.8638 32.2162C81.5197 31.8249 82.1756 31.4336 82.9134 31.1596C82.9544 31.0814 83.0364 31.0814 83.1184 31.0814C83.2414 30.9248 83.4053 30.8857 83.6103 30.8857C83.6513 30.8074 83.7333 30.8074 83.7743 30.8074C83.8153 30.8074 83.8153 30.8466 83.8153 30.8857C83.7333 30.8857 83.6923 30.8857 83.6103 30.8857V30.964C83.4873 31.0422 83.3643 31.1596 83.1594 31.0814V31.1596C83.0774 31.1988 83.0364 31.1988 82.9544 31.1988C82.9544 31.2379 82.9544 31.2379 82.9544 31.277L82.7905 31.3944V31.3553C82.6675 31.4335 82.6265 31.5509 82.5035 31.5901C82.4625 31.6292 82.3805 31.6683 82.2986 31.6683C82.2576 31.7466 82.2166 31.7466 82.1346 31.7857L81.9296 31.864C81.8476 32.0205 81.6837 32.0988 81.4787 32.1379V32.0597C81.3967 32.0988 81.3557 32.1379 81.3148 32.1379L81.4787 32.1771C81.4377 32.2162 81.3557 32.2553 81.3148 32.2553C81.2738 32.2162 81.2738 32.2162 81.2738 32.1771C81.2328 32.2162 81.1508 32.2162 81.1098 32.2553H81.2738C81.2738 32.3336 81.1918 32.3336 81.1098 32.3727C81.0688 32.4119 80.9868 32.451 80.9458 32.451C80.9048 32.4119 80.9048 32.4119 80.9048 32.3727V32.451C80.8229 32.6075 80.6589 32.6858 80.4539 32.764C80.4129 32.8032 80.3719 32.8423 80.29 32.8423C80.208 32.9597 80.126 32.9988 80.003 33.038C79.962 33.1162 79.88 33.1162 79.839 33.1554C79.798 33.1162 79.7981 33.0771 79.7981 33.038L79.6341 33.0771C79.6341 33.1162 79.6341 33.1162 79.5931 33.1554H79.7981C79.7571 33.2336 79.6751 33.3119 79.5521 33.351C79.5111 33.3902 79.4291 33.4293 79.3471 33.4293C79.3471 33.3902 79.3471 33.351 79.3471 33.351H79.1832C79.1422 33.4293 79.1012 33.4684 79.0602 33.5467H79.2652C79.2242 33.5858 79.1832 33.625 79.1012 33.625C79.1012 33.5858 79.0602 33.5467 79.0602 33.5467C79.0192 33.5467 78.9372 33.5467 78.8962 33.5858C78.8552 33.625 78.8142 33.6641 78.8142 33.7423H78.9782C78.9372 33.7423 78.8552 33.7815 78.8142 33.8206C78.8142 33.7815 78.8142 33.7423 78.8142 33.7423H78.6093C78.5683 33.7815 78.5273 33.8597 78.5273 33.938C78.6093 33.938 78.6503 33.938 78.7323 33.938L78.5273 34.0163C78.5273 33.9771 78.5273 33.938 78.5273 33.938H78.3223C78.2813 33.9771 78.2813 34.0554 78.2404 34.1337H78.4453C78.4043 34.2119 78.3223 34.2902 78.1994 34.2902C78.1994 34.2902 78.1584 34.2511 78.1584 34.2119C78.1174 34.2119 78.0354 34.2119 77.9944 34.2511C77.9534 34.2511 77.9124 34.2902 77.9124 34.2902C77.9124 34.2511 77.9534 34.2511 77.9534 34.2119ZM84.5941 31.3162C82.7495 31.9031 81.1918 33.0771 79.7161 34.1728C78.2814 35.2294 77.0926 36.4816 75.9858 37.773C75.8218 37.9686 75.6989 38.2034 75.4529 38.3599H75.4119V38.3208C75.4119 38.1643 75.5349 38.0469 75.6169 37.9686C76.8876 36.7555 77.8714 35.3859 79.2652 34.2902C80.5769 33.2336 82.0526 32.4119 83.6103 31.5901C84.0612 31.3553 84.4711 31.1988 84.963 31.0814C84.8811 31.1988 84.7171 31.277 84.5941 31.3162ZM80.9458 32.2945V32.3336C80.9868 32.3336 81.0688 32.3336 81.1098 32.3727C81.1098 32.3336 81.1098 32.2945 81.0688 32.2553C81.0278 32.2945 80.9868 32.2945 80.9458 32.2945ZM80.249 32.764H80.4539C80.4539 32.7249 80.4539 32.6858 80.4539 32.6466L80.249 32.764ZM80.085 32.764C80.085 32.8032 80.085 32.8423 80.085 32.8423H80.29C80.29 32.8032 80.249 32.764 80.249 32.764H80.085ZM79.7981 33.038H80.003C80.003 32.9988 80.003 32.9597 80.003 32.9206L79.7981 33.038ZM79.3471 33.351C79.4291 33.351 79.4701 33.351 79.5521 33.351V33.2336C79.4701 33.2728 79.3881 33.3119 79.3471 33.351ZM80.4949 34.0163V33.8989C80.4539 33.938 80.4949 33.938 80.4949 34.0163ZM80.4949 34.0163L80.5359 34.0554C80.5359 34.0163 80.4949 34.0163 80.4949 34.0163ZM77.8714 34.3293C77.8714 34.3685 77.8304 34.4467 77.8304 34.4859H77.6255C77.6665 34.4076 77.7485 34.3293 77.8714 34.3293ZM79.962 34.4076H79.839C79.839 34.4467 79.88 34.4859 79.88 34.4859L79.962 34.4076ZM79.7981 34.6033C79.7981 34.5641 79.839 34.5641 79.88 34.525V34.4859C79.839 34.525 79.798 34.5641 79.7571 34.6033H79.7981ZM77.5025 34.6033C77.4615 34.7207 77.3795 34.7598 77.2566 34.7989C77.3385 34.7207 77.4205 34.6424 77.5025 34.6033ZM79.5931 34.7207L79.7571 34.6033C79.7161 34.6033 79.6341 34.6033 79.5931 34.6033V34.7207ZM79.5111 34.7989C79.5521 34.7598 79.5521 34.7207 79.5931 34.7207C79.5521 34.7207 79.5111 34.7207 79.5111 34.7207V34.7989ZM79.3062 34.8772C79.3062 34.9163 79.3062 34.9163 79.3062 34.9163L79.5111 34.7989C79.4291 34.7989 79.3881 34.7989 79.3062 34.7989V34.8772ZM79.2242 34.9946L79.3062 34.9163C79.2652 34.9163 79.2652 34.9163 79.2242 34.9163V34.9946ZM79.2242 34.9946L79.1422 35.112C79.1832 35.0728 79.2242 35.0337 79.2242 34.9946ZM79.0602 35.1902C79.1012 35.1511 79.1422 35.1511 79.1422 35.112C79.1012 35.112 79.1012 35.1511 79.0602 35.1902ZM78.8962 35.3076C78.9372 35.2685 78.9782 35.2294 79.0602 35.1902H78.8552C78.8552 35.2294 78.8962 35.2685 78.8962 35.3076ZM76.8876 35.2294C76.8466 35.3076 76.7646 35.3468 76.6417 35.3859C76.7237 35.3076 76.8056 35.2294 76.8876 35.2294ZM78.8552 35.3076H78.7733C78.7733 35.3468 78.8142 35.3468 78.8142 35.3859C78.8142 35.3468 78.8552 35.3468 78.8552 35.3076ZM78.6503 35.6207C78.6503 35.5816 78.6913 35.5424 78.6913 35.5033L78.6093 35.6207H78.6503ZM78.2814 35.8946C78.3223 35.8555 78.3223 35.8164 78.3633 35.7772H78.2404C78.2813 35.8164 78.2814 35.8555 78.2814 35.8946ZM78.1994 35.9729C78.1994 35.9338 78.2404 35.9338 78.2814 35.8946H78.1584C78.1584 35.9338 78.1994 35.9338 78.1994 35.9729ZM78.1174 36.0903C78.1174 36.0511 78.1584 36.012 78.1994 35.9729C78.1584 36.012 78.1174 36.0511 78.0764 36.0903H78.1174ZM77.9124 36.1685C77.9944 36.1294 78.0354 36.1294 78.0764 36.0903C78.0354 36.0903 77.9534 36.0903 77.9124 36.0903V36.1685ZM77.8304 36.2859L77.9124 36.1685C77.8714 36.1685 77.8304 36.1685 77.8304 36.1685V36.2859ZM77.7485 36.3642L77.8304 36.2859C77.7895 36.2859 77.7485 36.2859 77.7485 36.2859V36.3642ZM77.6665 36.4425C77.7075 36.4425 77.7075 36.4033 77.7485 36.3642C77.7075 36.3642 77.6665 36.3642 77.6665 36.3642V36.4425ZM77.6665 36.4816C77.6255 36.4816 77.5845 36.5207 77.5845 36.5599C77.5845 36.5207 77.6255 36.5207 77.6665 36.4816ZM77.4205 36.7555C77.4205 36.7164 77.4615 36.7164 77.5025 36.6773C77.5025 36.6381 77.5435 36.599 77.5845 36.5599L77.4615 36.6773C77.4615 36.6773 77.4205 36.7164 77.3795 36.7555L77.2975 36.8729C77.2975 36.8729 77.2566 36.9121 77.2156 36.9512L77.3385 36.8729C77.3385 36.8338 77.3795 36.7947 77.4205 36.7555ZM77.2156 36.9512C77.2156 36.9903 77.1746 37.0295 77.1336 37.0686H77.1746C77.1746 37.0295 77.2156 36.9903 77.2156 36.9512ZM76.8056 37.4599L76.7237 37.5382C76.7646 37.499 76.8056 37.499 76.8056 37.4599ZM76.3137 38.0469L76.3547 38.0078H76.3137L76.2318 38.1252C76.2728 38.086 76.2728 38.0469 76.3137 38.0469ZM76.1498 38.2425C76.1498 38.2034 76.1908 38.1643 76.2318 38.1252L76.1088 38.2425C76.1088 38.2817 76.0678 38.2817 76.0678 38.3208C76.1088 38.3208 76.1088 38.2817 76.1498 38.2425ZM76.0678 38.3208L76.0268 38.3599C76.0678 38.3599 76.0678 38.3208 76.0678 38.3208ZM76.0268 38.3599L75.9448 38.4382C75.9448 38.4773 75.9038 38.4773 75.9038 38.5165L75.9858 38.4382C76.0268 38.3991 76.0268 38.3991 76.0268 38.3599ZM75.9038 38.5165L75.8218 38.5947C75.7808 38.6339 75.7808 38.673 75.7399 38.673C75.7808 38.673 75.8218 38.6339 75.8218 38.6339L75.9038 38.5165ZM75.6989 38.7513C75.6989 38.7513 75.7399 38.7121 75.7399 38.673C75.7399 38.7121 75.6989 38.7121 75.6989 38.7513ZM75.6989 38.7513C75.6579 38.7513 75.6579 38.7904 75.6169 38.8295C75.6579 38.7904 75.6989 38.7904 75.6989 38.7513ZM75.6169 38.8295H75.5349C75.5349 38.8687 75.5349 38.8687 75.5349 38.9078L75.6169 38.8295ZM75.4529 39.0252C75.4939 38.9861 75.5349 38.9469 75.5349 38.9078C75.4939 38.9078 75.4939 38.9078 75.4529 38.9078V39.0252ZM75.3709 39.0252H75.4529C75.4119 38.9861 75.3709 38.9861 75.3709 39.0252Z" fill="#1A1A1A"/>
<path d="M98.5464 31.2379C98.3824 30.964 98.1365 30.7292 97.8905 30.4944C97.4396 30.0639 96.9477 29.9074 96.3738 29.9857C95.759 30.0639 95.1441 30.2596 94.6112 30.4944C93.7504 30.8857 92.9305 31.277 92.1517 31.7075C91.5368 32.0597 90.9629 32.3336 90.389 32.7249C89.6512 33.2336 88.9133 33.6641 88.2574 34.2902L87.8475 34.6424C87.8065 34.6815 87.7245 34.7598 87.6426 34.6815C87.5606 34.6033 87.5606 34.5641 87.5606 34.4859C87.5606 34.4076 87.6426 34.3293 87.6426 34.2119C87.6426 33.4293 88.0115 32.6858 88.1345 31.864C88.1755 31.5509 88.2164 31.2379 88.0935 30.9248C88.0115 30.69 87.8475 30.5335 87.6426 30.4161C87.5606 30.377 87.4786 30.377 87.4376 30.4552L87.3146 30.69C87.1097 31.0814 86.9867 31.5118 86.8637 31.9423C86.5768 32.8814 86.2078 33.7815 85.8799 34.7207C85.511 35.8164 85.224 36.8729 84.8551 37.9295C84.7731 38.1643 84.8141 38.3599 85.0191 38.5556C85.1011 38.6339 85.224 38.7121 85.265 38.8295C85.388 39.1426 85.634 39.2209 85.9209 39.3383C86.1259 39.4165 86.2898 39.3774 86.4538 39.3383C86.6178 39.2991 86.5768 39.1426 86.6178 39.0643C86.6178 39.0643 86.6588 39.0643 86.6997 39.0252C86.6997 38.9861 86.7407 38.9469 86.7817 38.9078L86.8637 38.8295C87.0687 38.3599 87.3966 38.0078 87.7655 37.6556C87.8475 37.499 87.9705 37.3425 88.0935 37.2642C88.1345 37.3034 88.1345 37.3816 88.1345 37.4599C88.2574 37.3034 88.3804 37.186 88.4624 37.0686H88.2574C88.4624 36.7947 88.6674 36.5207 88.9953 36.3642C88.9953 36.3251 89.0363 36.3251 89.0363 36.2859C89.0773 36.2468 89.1183 36.2077 89.1183 36.1685C89.1593 36.1685 89.2003 36.1294 89.2412 36.0903C89.2822 35.9729 89.3642 35.9338 89.4872 35.8946C89.5282 35.8555 89.5692 35.8164 89.5692 35.7772L89.6512 35.699C89.6512 35.7381 89.6512 35.7381 89.6922 35.7772C89.6922 35.7381 89.6922 35.7381 89.6512 35.699H89.6922C89.7331 35.5033 89.8971 35.3859 90.1021 35.3076L90.1841 35.1902C90.266 35.0728 90.389 34.9554 90.553 34.9163L90.635 34.7989C90.7169 34.7598 90.7579 34.7207 90.8399 34.7207C90.8399 34.6815 90.8809 34.6424 90.9219 34.6033H90.8809C90.9629 34.525 91.0449 34.4467 91.1679 34.4076L91.2498 34.3293C91.3318 34.2119 91.4548 34.1728 91.5368 34.0945C91.6188 34.0163 91.7417 33.9771 91.8237 33.8989C91.8647 33.7815 91.9877 33.7423 92.0697 33.7032V33.7423C92.0697 33.7815 92.1107 33.7815 92.1107 33.8206C92.1107 33.7815 92.1517 33.7815 92.1927 33.7423V33.7032C92.3156 33.6641 92.4386 33.5858 92.5616 33.5467C92.5616 33.5467 92.5616 33.5467 92.5616 33.5076L92.6436 33.4293C92.8075 33.3119 93.0535 33.2336 93.0945 33.0771C93.1355 32.9597 93.2585 32.9597 93.3404 32.9206C93.5044 32.8423 93.6684 32.764 93.7913 32.6858C94.0783 32.4901 94.3652 32.2945 94.6932 32.1379C95.308 31.864 95.9229 31.5509 96.5788 31.3162C96.7838 31.2379 96.9887 31.1988 97.2347 31.1205C97.5626 31.0031 97.8086 31.0814 98.1365 31.3944C98.1775 31.4335 98.1775 31.4335 98.2185 31.4335C98.3414 31.4335 98.3824 31.5509 98.4644 31.4727C98.5464 31.3944 98.5874 31.3162 98.5464 31.2379ZM95.39 30.69C95.431 30.69 95.308 30.7683 95.1441 30.7683C95.1851 30.7292 95.2671 30.69 95.39 30.69ZM89.2822 34.2119C89.3642 34.0554 89.4872 33.9771 89.6512 33.938C89.6922 33.8206 89.7741 33.7423 89.8971 33.7423C89.9381 33.5858 90.0611 33.5467 90.1431 33.5076C90.2251 33.4293 90.348 33.351 90.43 33.3119C90.553 33.1945 90.717 33.0771 90.8809 32.9988C91.0039 32.8814 91.1679 32.764 91.3728 32.7249C91.5778 32.5293 91.8647 32.3336 92.1927 32.2162C92.8485 31.8249 93.5044 31.4336 94.2423 31.1596C94.2832 31.0814 94.3652 31.0814 94.4472 31.0814C94.5702 30.9248 94.7342 30.8857 94.9391 30.8857C94.9801 30.8074 95.0621 30.8074 95.1031 30.8074C95.1441 30.8074 95.1441 30.8466 95.1441 30.8857C95.0621 30.8857 95.0211 30.8857 94.9391 30.8857V30.964C94.8161 31.0422 94.6932 31.1596 94.4882 31.0814V31.1596C94.4062 31.1988 94.3652 31.1988 94.2832 31.1988C94.2832 31.2379 94.2832 31.2379 94.2832 31.277L94.1193 31.3944V31.3553C93.9963 31.4335 93.9553 31.5509 93.8323 31.5901C93.7914 31.6292 93.7094 31.6683 93.6274 31.6683C93.5864 31.7466 93.5454 31.7466 93.4634 31.7857L93.2584 31.864C93.1765 32.0205 93.0125 32.0988 92.8075 32.1379V32.0597C92.7256 32.0988 92.6846 32.1379 92.6436 32.1379L92.8075 32.1771C92.7665 32.2162 92.6846 32.2553 92.6436 32.2553C92.6026 32.2162 92.6026 32.2162 92.6026 32.1771C92.5616 32.2162 92.4796 32.2162 92.4386 32.2553H92.6026C92.6026 32.3336 92.5206 32.3336 92.4386 32.3727C92.3976 32.4119 92.3156 32.451 92.2746 32.451C92.2337 32.4119 92.2337 32.4119 92.2337 32.3727V32.451C92.1517 32.6075 91.9877 32.6858 91.7827 32.764C91.7418 32.8032 91.7008 32.8423 91.6188 32.8423C91.5368 32.9597 91.4548 32.9988 91.3318 33.038C91.2908 33.1162 91.2089 33.1162 91.1679 33.1554C91.1269 33.1162 91.1269 33.0771 91.1269 33.038L90.9629 33.0771C90.9629 33.1162 90.9629 33.1162 90.9219 33.1554H91.1269C91.0859 33.2336 91.0039 33.3119 90.8809 33.351C90.8399 33.3902 90.7579 33.4293 90.676 33.4293C90.676 33.3902 90.676 33.351 90.676 33.351H90.512C90.471 33.4293 90.43 33.4684 90.389 33.5467H90.594C90.553 33.5858 90.512 33.625 90.43 33.625C90.43 33.5858 90.389 33.5467 90.389 33.5467C90.348 33.5467 90.266 33.5467 90.2251 33.5858C90.1841 33.625 90.1431 33.6641 90.1431 33.7423H90.307C90.266 33.7423 90.1841 33.7815 90.1431 33.8206C90.1431 33.7815 90.1431 33.7423 90.1431 33.7423H89.9381C89.8971 33.7815 89.8561 33.8597 89.8561 33.938C89.9381 33.938 89.9791 33.938 90.0611 33.938L89.8561 34.0163C89.8561 33.9771 89.8561 33.938 89.8561 33.938H89.6512C89.6102 33.9771 89.6102 34.0554 89.5692 34.1337H89.7741C89.7331 34.2119 89.6512 34.2902 89.5282 34.2902C89.5282 34.2902 89.4872 34.2511 89.4872 34.2119C89.4462 34.2119 89.3642 34.2119 89.3232 34.2511C89.2822 34.2511 89.2412 34.2902 89.2412 34.2902C89.2412 34.2511 89.2822 34.2511 89.2822 34.2119ZM95.9229 31.3162C94.0783 31.9031 92.5206 33.0771 91.0449 34.1728C89.6102 35.2294 88.4214 36.4816 87.3146 37.773C87.1507 37.9686 87.0277 38.2034 86.7817 38.3599H86.7407V38.3208C86.7407 38.1643 86.8637 38.0469 86.9457 37.9686C88.2164 36.7555 89.2003 35.3859 90.594 34.2902C91.9057 33.2336 93.3814 32.4119 94.9391 31.5901C95.39 31.3553 95.7999 31.1988 96.2919 31.0814C96.2099 31.1988 96.0459 31.277 95.9229 31.3162ZM92.2746 32.2945V32.3336C92.3156 32.3336 92.3976 32.3336 92.4386 32.3727C92.4386 32.3336 92.4386 32.2945 92.3976 32.2553C92.3566 32.2945 92.3156 32.2945 92.2746 32.2945ZM91.5778 32.764H91.7827C91.7827 32.7249 91.7827 32.6858 91.7827 32.6466L91.5778 32.764ZM91.4138 32.764C91.4138 32.8032 91.4138 32.8423 91.4138 32.8423H91.6188C91.6188 32.8032 91.5778 32.764 91.5778 32.764H91.4138ZM91.1269 33.038H91.3318C91.3318 32.9988 91.3318 32.9597 91.3318 32.9206L91.1269 33.038ZM90.676 33.351C90.7579 33.351 90.7989 33.351 90.8809 33.351V33.2336C90.7989 33.2728 90.7169 33.3119 90.676 33.351ZM91.8237 34.0163V33.8989C91.7827 33.938 91.8237 33.938 91.8237 34.0163ZM91.8237 34.0163L91.8647 34.0554C91.8647 34.0163 91.8237 34.0163 91.8237 34.0163ZM89.2002 34.3293C89.2002 34.3685 89.1593 34.4467 89.1593 34.4859H88.9543C88.9953 34.4076 89.0773 34.3293 89.2002 34.3293ZM91.2908 34.4076H91.1679C91.1679 34.4467 91.2089 34.4859 91.2089 34.4859L91.2908 34.4076ZM91.1269 34.6033C91.1269 34.5641 91.1679 34.5641 91.2089 34.525V34.4859C91.1679 34.525 91.1269 34.5641 91.0859 34.6033H91.1269ZM88.8313 34.6033C88.7903 34.7207 88.7084 34.7598 88.5854 34.7989C88.6674 34.7207 88.7493 34.6424 88.8313 34.6033ZM90.9219 34.7207L91.0859 34.6033C91.0449 34.6033 90.9629 34.6033 90.9219 34.6033V34.7207ZM90.8399 34.7989C90.8809 34.7598 90.8809 34.7207 90.9219 34.7207C90.8809 34.7207 90.8399 34.7207 90.8399 34.7207V34.7989ZM90.635 34.8772C90.635 34.9163 90.635 34.9163 90.635 34.9163L90.8399 34.7989C90.7579 34.7989 90.7169 34.7989 90.635 34.7989V34.8772ZM90.553 34.9946L90.635 34.9163C90.594 34.9163 90.594 34.9163 90.553 34.9163V34.9946ZM90.553 34.9946L90.471 35.112C90.512 35.0728 90.553 35.0337 90.553 34.9946ZM90.389 35.1902C90.43 35.1511 90.471 35.1511 90.471 35.112C90.43 35.112 90.43 35.1511 90.389 35.1902ZM90.2251 35.3076C90.266 35.2685 90.307 35.2294 90.389 35.1902H90.1841C90.1841 35.2294 90.2251 35.2685 90.2251 35.3076ZM88.2164 35.2294C88.1755 35.3076 88.0935 35.3468 87.9705 35.3859C88.0525 35.3076 88.1345 35.2294 88.2164 35.2294ZM90.1841 35.3076H90.1021C90.1021 35.3468 90.1431 35.3468 90.1431 35.3859C90.1431 35.3468 90.1841 35.3468 90.1841 35.3076ZM89.9791 35.6207C89.9791 35.5816 90.0201 35.5424 90.0201 35.5033L89.9381 35.6207H89.9791ZM89.6102 35.8946C89.6512 35.8555 89.6512 35.8164 89.6922 35.7772H89.5692C89.6102 35.8164 89.6102 35.8555 89.6102 35.8946ZM89.5282 35.9729C89.5282 35.9338 89.5692 35.9338 89.6102 35.8946H89.4872C89.4872 35.9338 89.5282 35.9338 89.5282 35.9729ZM89.4462 36.0903C89.4462 36.0511 89.4872 36.012 89.5282 35.9729C89.4872 36.012 89.4462 36.0511 89.4052 36.0903H89.4462ZM89.2412 36.1685C89.3232 36.1294 89.3642 36.1294 89.4052 36.0903C89.3642 36.0903 89.2822 36.0903 89.2412 36.0903V36.1685ZM89.1593 36.2859L89.2412 36.1685C89.2003 36.1685 89.1593 36.1685 89.1593 36.1685V36.2859ZM89.0773 36.3642L89.1593 36.2859C89.1183 36.2859 89.0773 36.2859 89.0773 36.2859V36.3642ZM88.9953 36.4425C89.0363 36.4425 89.0363 36.4033 89.0773 36.3642C89.0363 36.3642 88.9953 36.3642 88.9953 36.3642V36.4425ZM88.9953 36.4816C88.9543 36.4816 88.9133 36.5207 88.9133 36.5599C88.9133 36.5207 88.9543 36.5207 88.9953 36.4816ZM88.7493 36.7555C88.7493 36.7164 88.7903 36.7164 88.8313 36.6773C88.8313 36.6381 88.8723 36.599 88.9133 36.5599L88.7903 36.6773C88.7903 36.6773 88.7493 36.7164 88.7084 36.7555L88.6264 36.8729C88.6264 36.8729 88.5854 36.9121 88.5444 36.9512L88.6674 36.8729C88.6674 36.8338 88.7084 36.7947 88.7493 36.7555ZM88.5444 36.9512C88.5444 36.9903 88.5034 37.0295 88.4624 37.0686H88.5034C88.5034 37.0295 88.5444 36.9903 88.5444 36.9512ZM88.1345 37.4599L88.0525 37.5382C88.0935 37.499 88.1345 37.499 88.1345 37.4599ZM87.6426 38.0469L87.6835 38.0078H87.6426L87.5606 38.1252C87.6016 38.086 87.6016 38.0469 87.6426 38.0469ZM87.4786 38.2425C87.4786 38.2034 87.5196 38.1643 87.5606 38.1252L87.4376 38.2425C87.4376 38.2817 87.3966 38.2817 87.3966 38.3208C87.4376 38.3208 87.4376 38.2817 87.4786 38.2425ZM87.3966 38.3208L87.3556 38.3599C87.3966 38.3599 87.3966 38.3208 87.3966 38.3208ZM87.3556 38.3599L87.2736 38.4382C87.2736 38.4773 87.2326 38.4773 87.2326 38.5165L87.3146 38.4382C87.3556 38.3991 87.3556 38.3991 87.3556 38.3599ZM87.2326 38.5165L87.1507 38.5947C87.1097 38.6339 87.1097 38.673 87.0687 38.673C87.1097 38.673 87.1507 38.6339 87.1507 38.6339L87.2326 38.5165ZM87.0277 38.7513C87.0277 38.7513 87.0687 38.7121 87.0687 38.673C87.0687 38.7121 87.0277 38.7121 87.0277 38.7513ZM87.0277 38.7513C86.9867 38.7513 86.9867 38.7904 86.9457 38.8295C86.9867 38.7904 87.0277 38.7904 87.0277 38.7513ZM86.9457 38.8295H86.8637C86.8637 38.8687 86.8637 38.8687 86.8637 38.9078L86.9457 38.8295ZM86.7817 39.0252C86.8227 38.9861 86.8637 38.9469 86.8637 38.9078C86.8227 38.9078 86.8227 38.9078 86.7817 38.9078V39.0252ZM86.6997 39.0252H86.7817C86.7407 38.9861 86.6997 38.9861 86.6997 39.0252Z" fill="#1A1A1A"/>
<path d="M101.294 45.3271C102.654 46.3735 104.431 46.0881 105.582 45.2319C105.895 45.0417 106 44.8514 106 44.5661C106 44.3758 105.791 44.1856 105.582 44.1856C105.477 44.2807 105.163 44.4709 105.268 44.0904C105.373 43.5197 105.582 42.9489 105.791 42.3782C106 41.9025 105.895 41.522 105.477 41.2366C104.641 40.5708 103.699 40.0951 102.549 40C101.608 40 100.771 40.1903 100.039 40.761C99.2027 41.4269 98.4707 42.5684 99.5165 43.8051L100.144 44.3758C100.562 44.7563 100.876 45.0417 101.294 45.3271Z" fill="#E6AB39"/>
</svg>
