<svg width="608" height="608" viewBox="0 0 608 608" fill="none" xmlns="http://www.w3.org/2000/svg">
<path d="M77.5693 338.755H139.978V423.752H77.5693V338.755Z" fill="#E6AB39"/>
<ellipse cx="90.0813" cy="351.316" rx="5.24339" ry="5.24341" fill="#F5DDB0"/>
<ellipse cx="90.0813" cy="409.613" rx="5.24339" ry="5.24341" fill="#F5DDB0"/>
<path d="M379.338 556.427C392.661 551.863 403.94 545.97 413.825 538.338C421.587 532.297 428.533 525.275 434.489 517.448C438.499 512.258 443.081 504.417 447.812 494.538" stroke="#EEC474" stroke-width="2"/>
<path d="M486.667 343.272C488.693 314.82 487.442 286.238 481.126 260.146C468.226 207.033 434.269 164.275 364.025 154.319" stroke="#EEC474" stroke-width="2"/>
<path d="M163.936 258.764C163.186 252.948 162.411 247.151 161.714 241.371C147.295 123.568 238.494 127.399 238.494 127.399" stroke="#EEC474" stroke-width="2"/>
<path d="M128.859 424.955C123.043 429.43 116.942 433.661 111.025 438.064C95.4918 449.736 84.3258 463.518 79.0407 482.472C72.8023 504.893 75.6206 530.437 91.7559 548.104C108.338 566.247 134.108 571.621 157.715 571.621H195.253" stroke="#EEC474" stroke-width="2"/>
<path d="M88.5205 397.791V364.043C96.2009 364.043 102.427 358.644 102.427 351.983V351.071H139.965V409.833H104.155C104.155 403.07 97.7382 397.63 89.9326 397.779L88.5205 397.791Z" fill="#F5DDB0"/>
<path d="M122.812 380.863C122.812 390.571 130.681 398.441 140.389 398.441V363.286C135.727 363.285 131.255 365.136 127.958 368.433C124.661 371.729 122.81 376.201 122.812 380.863V380.863Z" fill="#E6AB39"/>
<rect x="246.99" y="561.719" width="60.9783" height="44.2828" rx="8.45" transform="rotate(-180 246.99 561.719)" fill="#E6AB39"/>
<path d="M161.154 561.719H181.568C184.023 561.719 186.015 559.73 186.018 557.274V525.444C186.023 524.862 185.793 524.302 185.378 523.892C184.964 523.483 184.402 523.258 183.82 523.269L172.463 523.37C171.846 523.385 171.265 523.662 170.866 524.133L157.108 540.417C154.938 542.653 153.72 545.644 153.712 548.759V554.235C153.701 556.216 154.48 558.12 155.877 559.524C157.274 560.929 159.173 561.719 161.154 561.719V561.719Z" fill="#E6AB39"/>
<circle cx="216.506" cy="539.577" r="12.8404" fill="#F5DDB0"/>
<path d="M180.143 538.588V529.591C180.143 529.037 179.696 528.587 179.142 528.584H174.107C173.796 528.587 173.504 528.732 173.314 528.977L166.361 537.974C166.127 538.279 166.087 538.689 166.256 539.033C166.426 539.377 166.776 539.595 167.159 539.595H179.124C179.393 539.598 179.652 539.494 179.844 539.304C180.035 539.115 180.143 538.857 180.143 538.588V538.588Z" fill="#F5DDB0"/>
<path d="M241.801 561.623V561.713C241.889 565.318 240.016 568.688 236.908 570.517C233.799 572.346 229.943 572.346 226.835 570.517C223.726 568.688 221.853 565.318 221.941 561.713" fill="#E6AB39"/>
<path d="M181.566 561.713C181.566 567.198 177.119 571.645 171.634 571.645C166.148 571.645 161.701 567.198 161.701 561.713" fill="#E6AB39"/>
<path d="M502.278 347.878V483.842C502.262 489.733 497.497 494.508 491.607 494.538H327.882L332.946 467.796C346.651 410.137 351.185 346.513 352.27 328.054C352.174 330.3 352.085 332.547 351.954 334.769C352.472 335.508 353.044 336.223 353.628 336.926C353.872 337.2 354.129 337.474 354.385 337.754C354.641 338.034 354.981 338.38 355.267 338.672C355.469 338.892 355.69 339.095 355.916 339.316L356.172 339.554C356.429 339.798 356.703 340.036 356.983 340.275C357.09 340.382 357.203 340.477 357.328 340.585C357.59 340.787 357.847 340.99 358.103 341.21C358.359 341.431 358.764 341.711 359.098 341.967C359.449 342.223 359.795 342.462 360.147 342.688C360.498 342.914 360.862 343.147 361.231 343.367C361.6 343.588 362.023 343.844 362.423 344.064C362.679 344.195 362.935 344.338 363.197 344.47C363.243 344.497 363.291 344.521 363.34 344.541C364.135 344.938 364.945 345.308 365.771 345.649C366.194 345.816 366.6 345.959 367.023 346.108C367.869 346.4 368.715 346.704 369.603 346.901L370.925 347.21C371.366 347.306 371.825 347.377 372.284 347.449C372.743 347.52 373.172 347.598 373.613 347.651H373.648C373.964 347.693 374.274 347.729 374.572 347.747C374.87 347.765 375.168 347.8 375.454 347.818H375.561C375.859 347.854 376.157 347.854 376.449 347.878H377.438C379.542 347.881 381.641 347.665 383.7 347.234C392.585 345.438 400.257 339.884 404.739 332.005C406.114 329.609 407.16 327.04 407.85 324.366C407.946 324.04 408.025 323.71 408.088 323.377C408.598 321.104 408.857 318.782 408.862 316.453C408.863 318.415 409.041 320.374 409.393 322.304C409.542 322.989 409.691 323.687 409.875 324.366C413.477 338.2 425.968 347.855 440.263 347.855C454.558 347.855 467.049 338.2 470.651 324.366C470.969 323.1 471.214 321.817 471.384 320.523C471.556 319.173 471.644 317.814 471.646 316.453C471.643 317.838 471.734 319.222 471.92 320.594C472.082 321.866 472.327 323.126 472.653 324.366C476.2 337.911 488.269 347.484 502.266 347.854L502.278 347.878Z" fill="#F5DDB0"/>
<path d="M514.809 345.613V527.66C514.783 533.544 510.021 538.308 504.137 538.338H320.893C322.233 525.414 324.736 510.691 327.792 494.538H491.607C497.498 494.508 502.262 489.733 502.278 483.842V347.877H503.053C503.206 347.886 503.359 347.886 503.512 347.877C507.386 347.837 511.218 347.069 514.809 345.613V345.613Z" fill="#E6AB39"/>
<rect x="159.211" y="335.931" width="15.6229" height="15.623" rx="7.81145" fill="#F5DDB0"/>
<rect x="188.181" y="335.931" width="15.6229" height="15.623" rx="7.81145" fill="#F5DDB0"/>
<rect x="217.15" y="335.931" width="15.6229" height="15.623" rx="7.81145" fill="#F5DDB0"/>
<rect x="159.211" y="360.056" width="15.6229" height="15.6229" rx="7.81145" fill="#F5DDB0"/>
<rect x="188.181" y="360.056" width="15.6229" height="15.6229" rx="7.81145" fill="#F5DDB0"/>
<rect x="217.15" y="360.056" width="15.6229" height="15.6229" rx="7.81145" fill="#F5DDB0"/>
<rect x="159.211" y="384.182" width="15.6229" height="15.623" rx="7.81145" fill="#F5DDB0"/>
<rect x="188.181" y="384.182" width="15.6229" height="15.623" rx="7.81145" fill="#F5DDB0"/>
<rect x="217.15" y="384.182" width="15.6229" height="15.623" rx="7.81145" fill="#F5DDB0"/>
<path fill-rule="evenodd" clip-rule="evenodd" d="M249.1 466.664C247.12 468.478 244.533 469.484 241.848 469.483H150.786C144.849 469.486 140.023 464.695 139.983 458.757V269.548C139.993 263.589 144.827 258.764 150.786 258.764H235.92L237.522 261.743C232.404 274.994 229.258 292.572 229.681 315.851C230.676 370.138 240.466 422.298 249.1 466.664V466.664Z" stroke="#EEC474" stroke-width="2"/>
<path d="M230.932 289.366H160.927C158.952 289.366 157.352 290.967 157.352 292.941V319.158C157.352 321.133 158.952 322.733 160.927 322.733H229.865L230.932 289.366Z" fill="#F5DDB0"/>
<path d="M230.306 292.911H165.11C163.322 292.911 161.803 294.175 161.803 295.724V316.399C161.803 317.949 163.292 319.212 165.11 319.212H229.311L230.306 292.911Z" fill="#E6AB39"/>
<rect x="235.258" y="426.892" width="77.8882" height="13.9128" rx="5.78" transform="rotate(-180 235.258 426.892)" fill="#F5DDB0"/>
<path d="M230.307 419.39C230.303 419.986 230.042 420.551 229.592 420.939C226.697 423.576 225.047 427.309 225.045 431.224V487.233C225.045 490.274 223.837 493.191 221.685 495.341C219.534 497.491 216.617 498.698 213.575 498.697H212.729C207.671 498.697 202.701 494.651 202.004 489.646C201.071 483.337 195.426 478.818 189.066 479.287C182.706 479.757 177.786 485.056 177.789 491.433V522.774C176.3 522.995 173.058 523.442 172.486 523.442C171.914 523.442 162.881 533.821 158.961 538.385H109.268C106.378 538.385 104.036 536.043 104.036 533.154V489.991C104.038 486.762 105.323 483.665 107.608 481.383C109.893 479.101 112.992 477.821 116.221 477.824H142.098C145.104 477.834 147.989 476.644 150.114 474.519C152.239 472.394 153.429 469.509 153.419 466.503V431.224C153.426 423.543 159.651 417.317 167.332 417.311H228.245C229.388 417.317 230.31 418.247 230.307 419.39Z" fill="#F5DDB0"/>
<path d="M357.495 345.006C357.786 344.81 358.111 344.672 358.454 344.6C358.109 344.664 357.782 344.803 357.495 345.006H357.495Z" fill="#E6AB39"/>
<path d="M372.718 196.04H425.682C431.566 196.069 436.328 200.833 436.354 206.717V237.415C436.325 243.296 431.564 248.057 425.682 248.086H370.948C368.675 248.077 366.595 249.362 365.586 251.399C368.946 238.35 373.117 217.538 372.718 196.04V196.04Z" fill="#F5DDB0"/>
<path d="M534.447 286.333V316.477C534.451 329.291 526.669 340.822 514.784 345.613C511.186 347.071 507.346 347.84 503.464 347.878C503.311 347.886 503.158 347.886 503.005 347.878C502.748 347.878 502.486 347.878 502.23 347.878C488.233 347.507 476.164 337.935 472.617 324.389C472.29 323.15 472.045 321.89 471.884 320.618C471.698 319.245 471.607 317.862 471.61 316.477C471.607 317.837 471.52 319.197 471.348 320.546C471.178 321.84 470.933 323.124 470.615 324.389C467.013 338.224 454.522 347.879 440.227 347.879C425.932 347.879 413.441 338.224 409.839 324.389C409.654 323.71 409.505 323.013 409.357 322.328C409.004 320.397 408.827 318.439 408.826 316.477C408.821 318.806 408.562 321.128 408.052 323.4C407.989 323.734 407.91 324.064 407.813 324.389C407.133 327.054 406.099 329.615 404.739 332.004C400.261 339.876 392.598 345.427 383.724 347.228C381.664 347.659 379.565 347.874 377.461 347.872H376.472C376.174 347.872 375.876 347.872 375.584 347.812C375.549 347.812 375.513 347.812 375.477 347.812C375.179 347.812 374.881 347.776 374.595 347.74C374.309 347.705 373.999 347.687 373.672 347.645H373.636C373.195 347.592 372.736 347.52 372.307 347.443C371.878 347.365 371.39 347.3 370.949 347.204L369.626 346.894C368.738 346.674 367.892 346.394 367.046 346.102C366.623 345.953 366.218 345.81 365.795 345.643C364.964 345.309 364.154 344.94 363.364 344.535C363.314 344.515 363.266 344.491 363.221 344.463C362.958 344.332 362.702 344.189 362.446 344.058C362.041 343.838 361.636 343.617 361.254 343.361C360.873 343.105 360.539 342.92 360.17 342.682C359.801 342.443 359.473 342.217 359.121 341.961C358.788 341.705 358.46 341.466 358.126 341.204C357.793 340.942 357.614 340.781 357.352 340.578C357.226 340.471 357.113 340.376 357.006 340.269C356.726 340.03 356.452 339.792 356.196 339.548L355.939 339.309C355.713 339.089 355.493 338.886 355.29 338.666C354.98 338.374 354.694 338.07 354.408 337.748C354.122 337.426 353.896 337.194 353.651 336.92C353.056 336.217 352.496 335.502 351.977 334.763C352.108 332.541 352.198 330.294 352.293 328.048C352.329 327.351 352.364 326.743 352.382 326.171C352.513 322.596 352.621 318.973 352.698 315.368C353.103 293.209 350.267 276.24 345.596 263.232L349.624 255.594C355.755 260.599 360.593 264.484 361.588 265.068C361.588 265.068 364.692 254.521 366.587 247.455C366.587 247.562 370.973 247.967 370.973 248.08L383.747 247.455C383.747 250.767 381.924 258.776 392.119 260.14H508.308C522.756 260.163 534.454 271.885 534.447 286.333V286.333Z" fill="#F5DDB0"/>
<path d="M346.305 265.163C346.305 265.163 354.408 289.986 352.418 329.252C352.418 329.252 359.622 341.061 378.039 341.061C395.14 341.061 403.362 329.418 407.891 314.248C408.016 313.833 408.398 313.549 408.832 313.549C409.266 313.549 409.649 313.833 409.774 314.248C412.222 322.554 420.189 342.712 440.001 343.891C459.58 345.083 468.148 324.145 470.948 315.023C471.078 314.6 471.474 314.316 471.916 314.328C472.358 314.341 472.738 314.647 472.843 315.077C474.821 322.989 481.423 339.506 502.349 342.11C502.484 342.128 502.62 342.128 502.754 342.11C506.151 342.081 509.511 341.407 512.657 340.126C523.067 335.921 529.879 325.815 529.871 314.588V288.121C529.871 275.442 519.593 265.163 506.913 265.163H346.305Z" fill="#E6AB39"/>
<path d="M387.317 398.977V433.184C387.281 445.368 377.413 455.236 365.229 455.272H335.473C337.218 446.334 339.048 437.123 340.835 427.589C341.127 426.01 341.431 424.425 341.735 422.822C342.176 420.439 342.617 418.03 343.058 415.595C343.612 412.485 344.184 409.35 344.714 406.204C346.371 396.671 347.956 386.881 349.391 376.907H365.253C377.42 376.956 387.271 386.809 387.317 398.977V398.977Z" fill="#E6AB39"/>
<rect x="480.792" y="455.278" width="76.053" height="78.3887" rx="35.8" transform="rotate(-180 480.792 455.278)" fill="#E6AB39"/>
<path d="M341.711 422.804H370.234V419.146C370.231 414.486 366.457 410.707 361.797 410.697H360.122V415.922C360.122 416.538 359.624 417.037 359.008 417.037C358.393 417.037 357.894 416.538 357.894 415.922V410.697H356.106V415.922C356.064 416.505 355.579 416.955 354.995 416.955C354.411 416.955 353.927 416.505 353.884 415.922V410.697H347.675" stroke="white" stroke-width="2"/>
<path fill-rule="evenodd" clip-rule="evenodd" d="M369.239 443.075C369.235 443.713 368.975 444.322 368.518 444.767C368.074 445.211 367.472 445.462 366.844 445.464H337.236C337.528 443.885 337.832 442.3 338.136 440.698H366.844C368.156 440.707 369.219 441.763 369.239 443.075V443.075Z" stroke="white" stroke-width="2"/>
<path fill-rule="evenodd" clip-rule="evenodd" d="M344.095 428.572C344.095 431.173 342.057 433.319 339.459 433.452C340.013 430.342 340.585 427.208 341.115 424.062C342.924 424.83 344.098 426.607 344.095 428.572V428.572Z" stroke="white" stroke-width="2"/>
<path fill-rule="evenodd" clip-rule="evenodd" d="M352.55 427.452V433.792C352.58 434.208 352.375 434.607 352.019 434.824C351.663 435.042 351.214 435.042 350.858 434.824C350.502 434.607 350.297 434.208 350.327 433.792V427.452C350.37 426.87 350.855 426.419 351.438 426.419C352.022 426.419 352.507 426.87 352.55 427.452V427.452Z" stroke="white" stroke-width="2"/>
<path fill-rule="evenodd" clip-rule="evenodd" d="M356.554 427.452V433.792C356.584 434.208 356.379 434.607 356.023 434.824C355.666 435.042 355.218 435.042 354.862 434.824C354.505 434.607 354.301 434.208 354.331 433.792V427.452C354.374 426.87 354.859 426.419 355.442 426.419C356.026 426.419 356.511 426.87 356.554 427.452V427.452Z" stroke="white" stroke-width="2"/>
<path fill-rule="evenodd" clip-rule="evenodd" d="M459.515 400.222C460.802 397.13 462.041 394.681 462.78 393.298C463.15 392.594 462.884 391.723 462.184 391.344L454.403 388.067C453.787 387.71 453.027 387.71 452.412 388.067C451.796 388.424 451.419 389.083 451.423 389.795C451.423 396.593 449.469 402.993 442.676 402.993C435.878 402.993 433.929 396.593 433.929 389.795V389.503C433.924 388.826 433.575 388.198 433.002 387.837C432.43 387.475 431.713 387.43 431.099 387.715L423.169 390.641C422.767 390.817 422.466 391.166 422.35 391.589C422.235 392.013 422.316 392.465 422.573 392.822L422.68 392.971C431.367 405.072 432.917 420.896 426.744 434.453L423.943 440.614C423.543 441.499 423.618 442.527 424.145 443.343C424.671 444.16 425.576 444.653 426.547 444.654H461.106C462.094 444.656 463.014 444.146 463.536 443.306C464.058 442.466 464.108 441.416 463.668 440.531L460.707 434.608C455.362 423.856 454.928 411.318 459.515 400.222V400.222Z" stroke="white" stroke-width="2"/>
<path d="M430.42 419.849H456.548" stroke="white" stroke-width="2"/>
<path d="M436.307 419.855C436.432 424.3 436.349 435.758 432.696 444.654" stroke="white" stroke-width="2"/>
<path d="M454.247 444.654C450.583 435.758 450.511 424.3 450.636 419.855" stroke="white" stroke-width="2"/>
<path d="M443.486 444.654V419.855" stroke="white" stroke-width="2"/>
<path opacity="0.54" d="M294.187 571.645H398.5V571.312C398.497 565.549 393.824 560.878 388.061 560.878H387.882C385.116 560.88 382.463 559.781 380.507 557.824C378.552 555.866 377.456 553.212 377.461 550.445V538.332H320.892C320.892 538.332 315.625 565.282 313.557 569.423C313.084 570.528 312.184 571.395 311.063 571.828C309.941 572.261 308.692 572.223 307.599 571.723L294.187 571.645Z" fill="#E6AB39"/>
<path fill-rule="evenodd" clip-rule="evenodd" d="M371.592 223.74C371.592 219.45 374.392 216.048 378.915 216.048C383.664 216.048 386.077 219.557 386.059 223.52C386.059 228.245 383.205 231.266 378.676 231.266C374.112 231.266 371.592 227.84 371.592 223.74ZM378.825 228.137H378.879C380.774 228.137 381.9 226.296 381.9 223.627C381.9 221.089 380.72 219.176 378.825 219.176C376.93 219.176 375.786 221.029 375.769 223.663C375.751 226.296 376.93 228.137 378.825 228.137Z" fill="white"/>
<path fill-rule="evenodd" clip-rule="evenodd" d="M396.844 224.163C397.821 224.604 398.351 225.54 398.738 226.809C398.905 227.345 399.066 227.971 399.215 228.59C399.363 229.176 399.234 229.798 398.864 230.276C398.494 230.754 397.925 231.036 397.32 231.039H397.285C396.421 231.047 395.657 230.484 395.408 229.657C395.241 229.103 395.056 228.441 394.871 227.631C394.508 225.885 393.912 225.498 392.72 225.498H392.077V229.073C392.077 230.156 391.199 231.033 390.117 231.033C389.034 231.033 388.156 230.156 388.156 229.073V217.752C388.158 217.025 388.704 216.416 389.425 216.334C390.42 216.244 391.618 216.167 392.923 216.167C395.187 216.167 396.808 216.465 397.928 217.329C398.902 218.088 399.439 219.278 399.364 220.511C399.322 222.102 398.328 223.512 396.844 224.086V224.163ZM392.077 222.638H393.108L393.126 222.65C394.615 222.65 395.443 221.911 395.443 220.821C395.443 219.73 394.728 219.087 393.418 219.087C392.969 219.077 392.52 219.109 392.077 219.182V222.638Z" fill="white"/>
<path d="M409.982 227.786H407.003C406.256 227.786 405.65 227.18 405.65 226.433C405.65 225.686 406.256 225.081 407.003 225.081H409.338C409.933 225.117 410.499 224.82 410.807 224.31C411.116 223.8 411.116 223.161 410.807 222.651C410.499 222.142 409.933 221.845 409.338 221.881H406.889C406.198 221.881 405.638 221.321 405.638 220.63C405.638 219.939 406.198 219.379 406.889 219.379H409.672C410.094 219.382 410.501 219.216 410.8 218.919C411.1 218.621 411.269 218.216 411.269 217.794V217.74C411.27 217.315 411.103 216.908 410.803 216.607C410.504 216.306 410.096 216.137 409.672 216.137H403.356C402.427 216.144 401.678 216.9 401.682 217.829V229.681C401.688 230.429 402.298 231.031 403.046 231.027H409.982C410.405 231.026 410.81 230.856 411.107 230.555C411.404 230.254 411.57 229.847 411.567 229.424V229.389C411.57 228.966 411.404 228.559 411.107 228.258C410.81 227.957 410.405 227.787 409.982 227.786V227.786Z" fill="white"/>
<path d="M335.687 377.342V407.855C335.683 410.903 333.211 413.372 330.163 413.372H252.37C251.829 413.37 251.291 413.29 250.773 413.134C250.753 413.095 250.741 413.052 250.738 413.009C250.491 412.393 250.366 411.735 250.368 411.072V380.559C250.346 367.062 260.94 355.933 274.422 355.29C274.845 355.29 275.25 355.254 275.674 355.254H313.897C314.241 355.248 314.585 355.26 314.927 355.29C316.578 355.346 318.219 355.567 319.825 355.951C323.19 356.758 326.353 358.251 329.114 360.336C333.354 364.984 335.699 371.051 335.687 377.342V377.342Z" fill="#F5DDB0"/>
<path d="M361.755 265.532C361.398 265.308 361.054 265.064 360.725 264.8C358.812 263.381 354.766 260.122 349.904 256.148C336.95 245.584 318.193 229.931 318.193 229.931L317.568 232.213L315.047 241.359C315.047 241.359 315.047 241.359 315.012 241.359C290.892 254.033 272.004 243.063 271.229 242.628L269.317 234.584L268.798 232.41L235.068 257.185L224.575 264.931C219.111 249.874 187.216 154.372 249.147 127.035C257.227 133.959 273.821 144.41 293.132 142.42C294.104 142.331 295.081 142.199 296.016 142.074C299.354 141.748 302.652 141.101 305.866 140.144L305.973 140.108C321.655 135.502 332.404 124.849 333.822 123.425C400.479 155.636 361.755 265.532 361.755 265.532Z" fill="#433F37"/>
<path d="M317.186 86.7208C317.186 86.7208 314.94 86.8519 312.544 86.8162C309.839 86.8162 306.967 86.554 307.063 85.69C307.188 84.4983 309.398 80.0951 309.512 77.0801C309.547 75.8885 309.267 74.9589 308.457 74.4823C306.324 73.2906 297.917 65.7592 293.257 60.5873C292.947 60.2357 292.661 59.908 292.375 59.5743C291.053 58.049 290.2 56.7977 290.111 56.1364C289.742 53.2287 285.088 67.2666 278.445 72.0929C278.445 72.0929 275.132 78.0513 271.926 78.4386C273.163 79.8304 273.988 81.5385 274.309 83.3722C274.386 83.8157 274.435 84.2634 274.458 84.7128C274.467 84.8617 274.467 85.0109 274.458 85.1597C274.458 89.3008 269.096 88.2879 267.004 87.8053C265.402 87.4418 261.976 86.3693 260.45 84.4388V67.9697C260.45 67.9697 264.621 39.5184 294.187 38.1777C299.958 38.2917 305.617 39.7873 310.691 42.5393C310.719 42.5543 310.745 42.5723 310.769 42.5929C316.858 47.3596 322.179 55.4213 322.912 69.227C322.906 69.2389 325.301 86.7208 317.186 86.7208V86.7208Z" fill="#E6AB39"/>
<path d="M248.521 122.185C248.521 122.185 267.279 142.223 291.762 142.223C316.245 142.223 333.977 123.246 333.977 123.246" stroke="#171106" stroke-width="2"/>
<path d="M268.81 232.41L271.229 242.628L290.85 325.742C291.11 326.858 291.252 327.999 291.273 329.144C291.265 329.151 291.261 329.161 291.261 329.171C291.261 329.181 291.265 329.191 291.273 329.198C291.255 329.227 291.255 329.264 291.273 329.293C291.273 329.293 291.273 329.293 291.273 329.329V338.547H278.165C276.734 338.556 275.363 337.979 274.369 336.95C273.88 336.435 273.499 335.827 273.249 335.162C273.134 334.884 273.048 334.594 272.993 334.298C272.916 333.954 272.878 333.602 272.88 333.25V330.413C272.881 328.391 272.382 326.399 271.426 324.616L252.693 289.837L237.564 261.731L235.961 258.752L235.115 257.185" stroke="#171106" stroke-width="2"/>
<path d="M318.187 229.949L291.809 325.45C291.437 326.809 291.248 328.212 291.249 329.621V338.559H305.585C308.51 338.559 310.882 336.187 310.882 333.262V330.05C310.883 327.985 311.406 325.954 312.401 324.145L349.88 256.142" stroke="#171106" stroke-width="2"/>
<path fill-rule="evenodd" clip-rule="evenodd" d="M335.997 377.342V407.855C335.994 410.901 333.525 413.369 330.479 413.372H252.651C251.996 413.377 251.346 413.253 250.738 413.009C248.585 412.208 247.159 410.152 247.163 407.855V377.342C247.162 365.64 255.185 355.464 266.564 352.734C266.951 352.644 267.314 352.567 267.702 352.495C268.089 352.424 268.625 352.329 269.102 352.275C269.785 352.168 270.473 352.101 271.164 352.072H271.229C271.652 352.072 272.057 352.037 272.48 352.037H310.703C311.047 352.031 311.392 352.043 311.734 352.072C313.385 352.122 315.027 352.343 316.632 352.734C327.997 355.478 336.002 365.651 335.997 377.342V377.342Z" stroke="#171106" stroke-width="2"/>
<path d="M310.888 331.784H313.575C314.379 331.781 315.151 332.097 315.721 332.664C316.291 333.231 316.612 334.001 316.614 334.805V352.728" stroke="#171106" stroke-width="2"/>
<path d="M266.552 352.728V334.805C266.555 333.138 267.906 331.787 269.573 331.784H272.85" stroke="#171106" stroke-width="2"/>
<path d="M309.398 336.92H310.393C310.745 336.92 311.083 337.06 311.331 337.309C311.579 337.559 311.718 337.897 311.716 338.249V352.066" stroke="#171106" stroke-width="2"/>
<path d="M271.229 352.066V338.231C271.229 337.509 271.813 336.923 272.534 336.92H274.358" stroke="#171106" stroke-width="2"/>
<path d="M321.715 541.663C321.511 544.589 321.143 547.501 320.612 550.386C319.325 557.435 316.596 566.765 310.966 571.073C309.053 569.917 305.007 565.919 302.225 552.412C303.926 555.145 306.983 556.732 310.197 556.553C310.554 556.541 310.91 556.511 311.264 556.463C319.248 555.248 321.458 543.212 321.715 541.663V541.663Z" fill="#171106"/>
<path d="M285.577 541.663C285.373 544.589 285.005 547.501 284.474 550.386C283.187 557.435 280.464 566.765 274.834 571.073C272.915 569.917 268.875 565.919 266.093 552.412C267.792 555.144 270.847 556.731 274.059 556.553C274.416 556.541 274.772 556.512 275.126 556.463C283.146 555.248 285.321 543.212 285.577 541.663V541.663Z" fill="#171106"/>
<path d="M259.634 67.4872C259.829 50.1815 273.893 36.244 291.199 36.2049C308.506 36.1658 322.633 50.0396 322.906 67.3442V67.4872" stroke="#171106" stroke-width="2"/>
<path d="M287.609 98.9237C287.609 98.9237 287.609 98.9237 287.645 98.9237C288.85 99.058 290.061 99.1256 291.274 99.1263C291.697 99.1263 292.102 99.1263 292.525 99.0905H292.632" stroke="#171106" stroke-width="2"/>
<path fill-rule="evenodd" clip-rule="evenodd" d="M272.463 77.4914C273.027 80.9837 274.04 84.3884 275.478 87.6206C277.742 92.4648 281.555 97.6546 287.609 98.9416H287.645C289.194 99.2707 290.787 99.3392 292.358 99.1442C292.415 99.1403 292.471 99.1283 292.525 99.1084H292.632C300.181 98.1134 304.501 92.4052 306.932 86.7388C308.534 83.064 309.565 79.1659 309.989 75.1795C298.948 70.949 290.463 55.5347 290.463 55.5347C290.463 55.5347 280.834 72.9809 272.463 77.4914H272.463Z" stroke="#171106" stroke-width="2"/>
<path d="M320.147 547.311C320.201 546.65 320.439 545.291 320.493 544.63C324.664 492.387 351.155 407.211 352.829 315.857C353.234 293.698 350.404 276.728 345.727 263.715" stroke="#171106" stroke-width="2"/>
<path d="M297.822 541.496L293.901 413.372" stroke="#171106" stroke-width="2"/>
<path d="M297.846 541.663C297.971 543.802 299.502 565.222 309.363 571.645C309.363 571.645 316.561 570.287 320.19 546.936" stroke="#171106" stroke-width="2"/>
<path d="M320.5 544.606C319.064 550.308 316.537 556.749 309.363 556.523C300.515 556.267 298.12 543.236 297.846 541.627C297.842 541.571 297.842 541.515 297.846 541.46" stroke="#171106" stroke-width="2"/>
<path d="M237.523 261.725C232.404 274.977 229.258 292.554 229.682 315.833C230.677 370.138 240.466 422.298 249.1 466.664C254.987 496.885 260.343 523.478 262.018 544.642C262.01 544.691 262.01 544.741 262.018 544.791C262.089 545.452 262.292 546.852 262.387 547.603C262.389 547.709 262.401 547.815 262.423 547.919" stroke="#171106" stroke-width="2"/>
<path d="M288.586 413.372L284.642 542.217" stroke="#171106" stroke-width="2"/>
<path d="M284.654 541.663C284.529 543.802 282.997 565.222 273.136 571.645C273.136 571.645 265.986 570.668 262.352 547.317" stroke="#171106" stroke-width="2"/>
<path d="M262 544.606C263.436 550.308 265.968 556.749 273.136 556.523C281.984 556.267 284.38 543.236 284.654 541.627C284.658 541.571 284.658 541.515 284.654 541.46" stroke="#171106" stroke-width="2"/>
<path d="M259.634 66.4563V80.3751C259.637 84.3677 262.875 87.6027 266.867 87.6027H275.477" stroke="#171106" stroke-width="2"/>
<path d="M322.907 67.3501V80.0236C322.907 83.7178 319.928 86.7149 318.051 86.7149H307.653" stroke="#171106" stroke-width="2"/>
<path d="M278.445 92.6138L277.152 112.664C277.045 114.097 275.93 115.25 274.5 115.405C169.096 127.053 223.711 265.556 223.711 265.556L268.798 232.428L257.281 186.858" stroke="#171106" stroke-width="2"/>
<path d="M303.53 92.6138L305.818 113.331C305.98 114.668 307.018 115.731 308.351 115.923C409.28 130.646 361.738 265.533 361.738 265.533C358.663 263.691 318.176 229.943 318.176 229.943L330.45 187.007" stroke="#171106" stroke-width="2"/>
<path d="M271.229 242.628C271.229 242.628 290.451 254.343 315.054 241.395" stroke="#171106" stroke-width="2"/>
<path d="M272.462 77.4915C270.896 78.2898 269.253 78.9286 267.559 79.3981" stroke="#171106" stroke-width="2"/>
<path d="M310.007 75.1616C311.392 75.6565 312.809 76.0547 314.249 76.3533" stroke="#171106" stroke-width="2"/>
<ellipse cx="269.406" cy="97.6724" rx="5.05869" ry="5.05868" stroke="#171106" stroke-width="2"/>
<ellipse cx="312.128" cy="97.6724" rx="5.05869" ry="5.05868" stroke="#171106" stroke-width="2"/>
<path d="M274.47 97.6725C274.463 99.7145 273.23 101.552 271.343 102.334C269.456 103.115 267.285 102.687 265.836 101.248C264.823 99.0237 265.542 96.3933 267.546 94.9945C269.55 93.5957 272.267 93.8274 274.005 95.5454C274.322 96.2091 274.481 96.9371 274.47 97.6725V97.6725Z" fill="#171106"/>
<path d="M317.186 97.6725C317.182 99.7147 315.95 101.554 314.064 102.336C312.177 103.118 310.005 102.688 308.558 101.248C307.545 99.0237 308.264 96.3933 310.268 94.9945C312.272 93.5957 314.989 93.8274 316.727 95.5454C317.038 96.2108 317.195 96.9379 317.186 97.6725V97.6725Z" fill="#171106"/>
<path d="M269.405 92.6139V78.7844" stroke="#171106" stroke-width="2"/>
<path d="M312.127 92.6139V75.8469" stroke="#171106" stroke-width="2"/>
<path d="M274.321 336.92H272.534C271.812 336.923 271.229 337.509 271.229 338.231V352.066C269.658 352.14 268.098 352.361 266.569 352.728V334.805C266.573 333.138 267.923 331.787 269.59 331.784H272.849V333.238C272.841 334.61 273.369 335.932 274.321 336.92V336.92Z" fill="#171106"/>
<path d="M309.398 336.92H311.186C311.908 336.923 312.491 337.509 312.491 338.231V352.066C314.059 352.139 315.617 352.361 317.144 352.728V334.805C317.144 333.139 315.795 331.787 314.129 331.784H310.87V333.238C310.875 334.61 310.348 335.93 309.398 336.92H309.398Z" fill="#171106"/>
<path d="M398.501 571.645H157.716" stroke="#171106" stroke-width="2"/>
<circle cx="297.851" cy="73.8508" r="1.90669" fill="#171106"/>
<ellipse cx="282.83" cy="73.8508" rx="1.90668" ry="1.90669" fill="#171106"/>
<path d="M273.017 70.246C274.125 70.1924 290.117 70.246 290.117 70.246L287.424 79.0823H277.497L273.017 70.246Z" fill="#E6AB39"/>
<path d="M290.564 70.246C291.667 70.1924 307.665 70.246 307.665 70.246L303.131 79.0823H293.234L290.564 70.246Z" fill="#E6AB39"/>
<path fill-rule="evenodd" clip-rule="evenodd" d="M273.017 70.246C274.125 70.1924 290.117 70.246 290.117 70.246L287.424 79.0823H277.497L273.017 70.246Z" stroke="#171106" stroke-width="2"/>
<path fill-rule="evenodd" clip-rule="evenodd" d="M290.564 70.246C291.667 70.1924 307.665 70.246 307.665 70.246L303.131 79.0823H293.234L290.564 70.246Z" stroke="#171106" stroke-width="2"/>
<path d="M286.548 86.7149C286.548 86.7149 291.994 88.5025 293.448 85.696" stroke="#171106" stroke-width="2"/>
<path d="M319.986 547.317C320.046 546.656 320.284 545.291 320.338 544.63C320.489 542.735 320.674 540.797 320.892 538.814C322.233 525.897 324.735 511.173 327.792 495.014C329.079 488.15 330.461 481.006 331.897 473.63C333.643 464.722 335.472 455.48 337.23 445.947C337.528 444.368 337.826 442.783 338.136 441.18C338.577 438.797 339.018 436.386 339.458 433.947C340.013 430.836 340.585 427.708 341.115 424.562C342.771 415.029 344.356 405.239 345.792 395.265C346.746 388.71 347.633 382.067 348.402 375.352C349.969 362.243 351.202 348.849 351.977 335.27C352.329 328.846 352.573 322.364 352.698 315.869C353.103 293.71 350.267 276.74 345.596 263.733L349.623 256.094C355.755 261.099 360.593 264.984 361.588 265.574C361.588 265.574 363.078 261.338 364.972 254.253C365.175 253.497 365.395 252.71 365.616 251.87C368.964 238.821 373.165 218.002 372.766 196.51C372.105 160.879 358.817 123.317 308.225 115.935C306.896 115.738 305.864 114.676 305.704 113.343" stroke="#171106" stroke-width="2"/>
<path d="M208.339 437.73H168.638" stroke="white" stroke-width="2"/>
<path d="M208.339 447.752H168.638" stroke="white" stroke-width="2"/>
<path d="M208.339 457.774H168.638" stroke="white" stroke-width="2"/>
<path d="M208.339 467.802H168.638" stroke="white" stroke-width="2"/>
<path d="M159.831 494.12H120.13" stroke="white" stroke-width="2"/>
<path d="M159.831 503.624H120.13" stroke="white" stroke-width="2"/>
<path d="M159.831 513.134H120.13" stroke="white" stroke-width="2"/>
<path d="M159.831 522.644H120.13" stroke="white" stroke-width="2"/>
<path d="M208.339 477.824H168.638" stroke="white" stroke-width="2"/>
<path d="M208.332 488.335H198.763" stroke="white" stroke-width="2"/>
<path d="M212.73 498.673H177.766V491.386C177.763 485.008 182.682 479.709 189.042 479.24C195.403 478.77 201.047 483.289 201.981 489.598C202.707 494.627 207.671 498.673 212.73 498.673Z" fill="#E6AB39"/>
</svg>
