<svg width="24" height="25" viewBox="0 0 24 25" fill="none" xmlns="http://www.w3.org/2000/svg">
<path opacity="0.1" fill-rule="evenodd" clip-rule="evenodd" d="M0 12.1821C0 5.55471 5.37258 0.182129 12 0.182129C18.6274 0.182129 24 5.55471 24 12.1821C24 18.8095 18.6274 24.1821 12 24.1821C5.37258 24.1821 0 18.8095 0 12.1821Z" fill="white"/>
<path fill-rule="evenodd" clip-rule="evenodd" d="M11.6406 9.93583L11.6658 10.3511L11.2461 10.3002C9.71843 10.1053 8.38383 9.44434 7.25067 8.33424L6.69668 7.78343L6.55399 8.19018C6.25181 9.0969 6.44487 10.0545 7.0744 10.6985C7.41015 11.0544 7.33461 11.1052 6.75544 10.8934C6.55399 10.8256 6.37772 10.7748 6.36093 10.8002C6.30218 10.8595 6.50363 11.6306 6.66311 11.9357C6.88134 12.3594 7.32621 12.7746 7.81305 13.0204L8.22434 13.2153L7.73751 13.2238C7.26746 13.2238 7.25067 13.2322 7.30103 13.4102C7.46891 13.961 8.13201 14.5457 8.87066 14.7999L9.39108 14.9779L8.93781 15.249C8.26631 15.6388 7.4773 15.8592 6.68829 15.8761C6.31057 15.8846 6 15.9185 6 15.9439C6 16.0287 7.02404 16.5032 7.61999 16.6896C9.40786 17.2404 11.5315 17.0032 13.1263 16.0625C14.2595 15.3931 15.3926 14.0627 15.9214 12.7746C16.2068 12.0882 16.4922 10.8341 16.4922 10.2324C16.4922 9.84262 16.5174 9.79177 16.9874 9.3257C17.2644 9.05453 17.5246 8.75794 17.575 8.6732C17.6589 8.51219 17.6505 8.51219 17.2224 8.65625C16.509 8.91047 16.4083 8.87658 16.7608 8.49525C17.021 8.22408 17.3316 7.73258 17.3316 7.58853C17.3316 7.5631 17.2057 7.60547 17.063 7.68174C16.9119 7.76648 16.5761 7.89359 16.3243 7.96986L15.8711 8.11392L15.4598 7.83427C15.2331 7.68174 14.9142 7.51226 14.7463 7.46142C14.3182 7.34278 13.6635 7.35973 13.2774 7.49531C12.2282 7.87664 11.5651 8.85963 11.6406 9.93583Z" fill="white"/>
</svg>
