<svg width="24" height="25" viewBox="0 0 24 25" fill="none" xmlns="http://www.w3.org/2000/svg">
<path opacity="0.1" fill-rule="evenodd" clip-rule="evenodd" d="M0 12.1821C0 5.55471 5.37258 0.182129 12 0.182129C18.6274 0.182129 24 5.55471 24 12.1821C24 18.8095 18.6274 24.1821 12 24.1821C5.37258 24.1821 0 18.8095 0 12.1821Z" fill="white"/>
<path fill-rule="evenodd" clip-rule="evenodd" d="M17.0004 8.05689C17.5512 8.20802 17.9849 8.65333 18.1321 9.21884C18.3996 10.2437 18.3996 12.3822 18.3996 12.3822C18.3996 12.3822 18.3996 14.5206 18.1321 15.5456C17.9849 16.1111 17.5512 16.5564 17.0004 16.7076C16.0023 16.9822 11.9996 16.9822 11.9996 16.9822C11.9996 16.9822 7.99692 16.9822 6.99874 16.7076C6.44797 16.5564 6.01423 16.1111 5.86703 15.5456C5.59961 14.5206 5.59961 12.3822 5.59961 12.3822C5.59961 12.3822 5.59961 10.2437 5.86703 9.21884C6.01423 8.65333 6.44797 8.20802 6.99874 8.05689C7.99692 7.78223 11.9996 7.78223 11.9996 7.78223C11.9996 7.78223 16.0023 7.78223 17.0004 8.05689ZM10.7996 10.5822V14.5822L13.9996 12.5823L10.7996 10.5822Z" fill="white"/>
</svg>
